<svg width="1400" height="700" viewBox="0 0 1400 700" xmlns="http://www.w3.org/2000/svg">
<rect x="0" y="0" width="1400" height="700" opacity="1" fill="#FFFFFF" stroke="none"/>
<polyline fill="none" opacity="0.4" stroke="#C8C8C8" stroke-width="0.5" stroke-dasharray="4,4" points="70,689 70,10 "/>
<polyline fill="none" opacity="0.4" stroke="#C8C8C8" stroke-width="0.5" stroke-dasharray="4,4" points="238,689 238,10 "/>
<polyline fill="none" opacity="0.4" stroke="#C8C8C8" stroke-width="0.5" stroke-dasharray="4,4" points="406,689 406,10 "/>
<polyline fill="none" opacity="0.4" stroke="#C8C8C8" stroke-width="0.5" stroke-dasharray="4,4" points="575,689 575,10 "/>
<polyline fill="none" opacity="0.4" stroke="#C8C8C8" stroke-width="0.5" stroke-dasharray="4,4" points="743,689 743,10 "/>
<polyline fill="none" opacity="0.4" stroke="#C8C8C8" stroke-width="0.5" stroke-dasharray="4,4" points="912,689 912,10 "/>
<polyline fill="none" opacity="0.4" stroke="#C8C8C8" stroke-width="0.5" stroke-dasharray="4,4" points="1080,689 1080,10 "/>
<polyline fill="none" opacity="0.4" stroke="#C8C8C8" stroke-width="0.5" stroke-dasharray="4,4" points="1248,689 1248,10 "/>
<polyline fill="none" opacity="0.4" stroke="#C8C8C8" stroke-width="0.5" stroke-dasharray="4,4" points="70,689 1329,689 "/>
<polyline fill="none" opacity="0.4" stroke="#C8C8C8" stroke-width="0.5" stroke-dasharray="4,4" points="70,647 1329,647 "/>
<polyline fill="none" opacity="0.4" stroke="#C8C8C8" stroke-width="0.5" stroke-dasharray="4,4" points="70,605 1329,605 "/>
<polyline fill="none" opacity="0.4" stroke="#C8C8C8" stroke-width="0.5" stroke-dasharray="4,4" points="70,562 1329,562 "/>
<polyline fill="none" opacity="0.4" stroke="#C8C8C8" stroke-width="0.5" stroke-dasharray="4,4" points="70,520 1329,520 "/>
<polyline fill="none" opacity="0.4" stroke="#C8C8C8" stroke-width="0.5" stroke-dasharray="4,4" points="70,477 1329,477 "/>
<polyline fill="none" opacity="0.4" stroke="#C8C8C8" stroke-width="0.5" stroke-dasharray="4,4" points="70,435 1329,435 "/>
<polyline fill="none" opacity="0.4" stroke="#C8C8C8" stroke-width="0.5" stroke-dasharray="4,4" points="70,392 1329,392 "/>
<polyline fill="none" opacity="0.4" stroke="#C8C8C8" stroke-width="0.5" stroke-dasharray="4,4" points="70,350 1329,350 "/>
<polyline fill="none" opacity="0.4" stroke="#C8C8C8" stroke-width="0.5" stroke-dasharray="4,4" points="70,308 1329,308 "/>
<polyline fill="none" opacity="0.4" stroke="#C8C8C8" stroke-width="0.5" stroke-dasharray="4,4" points="70,265 1329,265 "/>
<polyline fill="none" opacity="0.4" stroke="#C8C8C8" stroke-width="0.5" stroke-dasharray="4,4" points="70,223 1329,223 "/>
<polyline fill="none" opacity="0.4" stroke="#C8C8C8" stroke-width="0.5" stroke-dasharray="4,4" points="70,180 1329,180 "/>
<polyline fill="none" opacity="0.4" stroke="#C8C8C8" stroke-width="0.5" stroke-dasharray="4,4" points="70,138 1329,138 "/>
<polyline fill="none" opacity="0.4" stroke="#C8C8C8" stroke-width="0.5" stroke-dasharray="4,4" points="70,95 1329,95 "/>
<polyline fill="none" opacity="0.4" stroke="#C8C8C8" stroke-width="0.5" stroke-dasharray="4,4" points="70,53 1329,53 "/>
<polyline fill="none" opacity="0.4" stroke="#C8C8C8" stroke-width="0.5" stroke-dasharray="4,4" points="70,10 1329,10 "/>
<polyline fill="none" opacity="1" stroke="#475569" stroke-width="1" points="70,689 1329,689 "/>
<polyline fill="none" opacity="1" stroke="#3B82F6" stroke-width="1" points="70,689 70,10 "/>
<polyline fill="none" opacity="1" stroke="#3B82F6" stroke-width="2" points="70,42 74,53 78,63 82,73 86,83 91,93 95,103 99,112 103,122 107,131 112,140 116,149 120,158 124,166 128,175 133,183 137,191 141,199 145,207 150,215 154,223 158,230 162,238 166,245 171,252 175,259 179,266 183,273 187,280 192,286 196,293 200,299 204,305 208,312 213,318 217,324 221,330 225,335 230,341 234,347 238,352 242,357 246,363 251,368 255,373 259,378 263,383 267,388 272,393 276,398 280,402 284,407 288,411 293,416 297,420 301,424 305,429 310,433 314,437 318,441 322,445 326,449 331,452 335,456 339,460 343,463 347,467 352,470 356,474 360,477 364,481 368,484 373,487 377,490 381,493 385,497 390,500 394,502 398,505 402,508 406,511 411,514 415,517 419,519 423,522 427,525 432,527 436,530 440,532 444,534 448,537 453,539 457,542 461,544 465,546 470,548 474,550 478,552 482,555 486,557 491,559 495,561 499,563 503,565 507,566 512,568 516,570 520,572 524,574 528,575 533,577 537,579 541,580 545,582 550,584 554,585 558,587 562,588 566,590 571,591 575,593 579,594 583,596 587,597 592,598 596,600 600,601 604,602 608,603 613,605 617,606 621,607 625,608 630,610 634,611 638,612 642,613 646,614 651,615 655,616 659,617 663,618 667,619 672,620 676,621 680,622 684,623 688,624 693,625 697,626 701,627 705,628 710,628 714,629 718,630 722,631 726,632 731,632 735,633 739,634 743,635 747,635 752,636 756,637 760,638 764,638 768,639 773,640 777,640 781,641 785,641 790,642 794,643 798,643 802,644 806,644 811,645 815,646 819,646 823,647 827,647 832,648 836,648 840,649 844,649 848,650 853,650 857,651 861,651 865,652 870,652 874,653 878,653 882,653 886,654 891,654 895,655 899,655 903,655 907,656 912,656 916,657 920,657 924,657 928,658 933,658 937,658 941,659 945,659 950,659 954,660 958,660 962,660 966,661 971,661 975,661 979,661 983,662 987,662 992,662 996,663 1000,663 1004,663 1008,663 1013,664 1017,664 1021,664 1025,664 1030,665 1034,665 1038,665 1042,665 1046,666 1051,666 1055,666 1059,666 1063,666 1067,667 1072,667 1076,667 1080,667 1084,667 1088,668 1093,668 1097,668 1101,668 1105,668 1110,669 1114,669 1118,669 1122,669 1126,669 1131,669 1135,670 1139,670 1143,670 1147,670 1152,670 1156,670 1160,670 1164,671 1168,671 1173,671 1177,671 1181,671 1185,671 1190,671 1194,671 1198,672 1202,672 1206,672 1211,672 1215,672 1219,672 1223,672 1227,672 1232,672 1236,673 1240,673 1244,673 1248,673 1253,673 1257,673 1261,673 1265,673 1270,673 1274,673 1278,674 1282,674 1286,674 1291,674 1295,674 1299,674 1303,674 1307,674 1312,674 1316,674 1320,674 1324,674 1329,675 "/>
<polyline fill="none" opacity="1" stroke="#475569" stroke-width="1" points="70,690 70,696 "/>
<polyline fill="none" opacity="1" stroke="#475569" stroke-width="1" points="112,690 112,693 "/>
<polyline fill="none" opacity="1" stroke="#475569" stroke-width="1" points="154,690 154,693 "/>
<polyline fill="none" opacity="1" stroke="#475569" stroke-width="1" points="196,690 196,693 "/>
<polyline fill="none" opacity="1" stroke="#475569" stroke-width="1" points="238,690 238,696 "/>
<polyline fill="none" opacity="1" stroke="#475569" stroke-width="1" points="280,690 280,693 "/>
<polyline fill="none" opacity="1" stroke="#475569" stroke-width="1" points="322,690 322,693 "/>
<polyline fill="none" opacity="1" stroke="#475569" stroke-width="1" points="364,690 364,693 "/>
<polyline fill="none" opacity="1" stroke="#475569" stroke-width="1" points="407,690 407,696 "/>
<polyline fill="none" opacity="1" stroke="#475569" stroke-width="1" points="449,690 449,693 "/>
<polyline fill="none" opacity="1" stroke="#475569" stroke-width="1" points="491,690 491,693 "/>
<polyline fill="none" opacity="1" stroke="#475569" stroke-width="1" points="533,690 533,693 "/>
<polyline fill="none" opacity="1" stroke="#475569" stroke-width="1" points="575,690 575,696 "/>
<polyline fill="none" opacity="1" stroke="#475569" stroke-width="1" points="617,690 617,693 "/>
<polyline fill="none" opacity="1" stroke="#475569" stroke-width="1" points="659,690 659,693 "/>
<polyline fill="none" opacity="1" stroke="#475569" stroke-width="1" points="702,690 702,693 "/>
<polyline fill="none" opacity="1" stroke="#475569" stroke-width="1" points="744,690 744,696 "/>
<polyline fill="none" opacity="1" stroke="#475569" stroke-width="1" points="786,690 786,693 "/>
<polyline fill="none" opacity="1" stroke="#475569" stroke-width="1" points="828,690 828,693 "/>
<polyline fill="none" opacity="1" stroke="#475569" stroke-width="1" points="870,690 870,693 "/>
<polyline fill="none" opacity="1" stroke="#475569" stroke-width="1" points="912,690 912,696 "/>
<polyline fill="none" opacity="1" stroke="#475569" stroke-width="1" points="954,690 954,693 "/>
<polyline fill="none" opacity="1" stroke="#475569" stroke-width="1" points="997,690 997,693 "/>
<polyline fill="none" opacity="1" stroke="#475569" stroke-width="1" points="1039,690 1039,693 "/>
<polyline fill="none" opacity="1" stroke="#475569" stroke-width="1" points="1081,690 1081,696 "/>
<polyline fill="none" opacity="1" stroke="#475569" stroke-width="1" points="1123,690 1123,693 "/>
<polyline fill="none" opacity="1" stroke="#475569" stroke-width="1" points="1165,690 1165,693 "/>
<polyline fill="none" opacity="1" stroke="#475569" stroke-width="1" points="1207,690 1207,693 "/>
<polyline fill="none" opacity="1" stroke="#475569" stroke-width="1" points="1249,690 1249,696 "/>
<polyline fill="none" opacity="1" stroke="#475569" stroke-width="1" points="1292,690 1292,693 "/>
<polyline fill="none" opacity="1" stroke="#3B82F6" stroke-width="1" points="70,690 64,690 "/>
<polyline fill="none" opacity="1" stroke="#3B82F6" stroke-width="1" points="70,679 67,679 "/>
<polyline fill="none" opacity="1" stroke="#3B82F6" stroke-width="1" points="70,668 67,668 "/>
<polyline fill="none" opacity="1" stroke="#3B82F6" stroke-width="1" points="70,658 67,658 "/>
<polyline fill="none" opacity="1" stroke="#3B82F6" stroke-width="1" points="70,647 64,647 "/>
<polyline fill="none" opacity="1" stroke="#3B82F6" stroke-width="1" points="70,636 67,636 "/>
<polyline fill="none" opacity="1" stroke="#3B82F6" stroke-width="1" points="70,626 67,626 "/>
<polyline fill="none" opacity="1" stroke="#3B82F6" stroke-width="1" points="70,615 67,615 "/>
<polyline fill="none" opacity="1" stroke="#3B82F6" stroke-width="1" points="70,605 64,605 "/>
<polyline fill="none" opacity="1" stroke="#3B82F6" stroke-width="1" points="70,594 67,594 "/>
<polyline fill="none" opacity="1" stroke="#3B82F6" stroke-width="1" points="70,583 67,583 "/>
<polyline fill="none" opacity="1" stroke="#3B82F6" stroke-width="1" points="70,573 67,573 "/>
<polyline fill="none" opacity="1" stroke="#3B82F6" stroke-width="1" points="70,562 64,562 "/>
<polyline fill="none" opacity="1" stroke="#3B82F6" stroke-width="1" points="70,551 67,551 "/>
<polyline fill="none" opacity="1" stroke="#3B82F6" stroke-width="1" points="70,541 67,541 "/>
<polyline fill="none" opacity="1" stroke="#3B82F6" stroke-width="1" points="70,530 67,530 "/>
<polyline fill="none" opacity="1" stroke="#3B82F6" stroke-width="1" points="70,520 64,520 "/>
<polyline fill="none" opacity="1" stroke="#3B82F6" stroke-width="1" points="70,509 67,509 "/>
<polyline fill="none" opacity="1" stroke="#3B82F6" stroke-width="1" points="70,498 67,498 "/>
<polyline fill="none" opacity="1" stroke="#3B82F6" stroke-width="1" points="70,488 67,488 "/>
<polyline fill="none" opacity="1" stroke="#3B82F6" stroke-width="1" points="70,477 64,477 "/>
<polyline fill="none" opacity="1" stroke="#3B82F6" stroke-width="1" points="70,466 67,466 "/>
<polyline fill="none" opacity="1" stroke="#3B82F6" stroke-width="1" points="70,456 67,456 "/>
<polyline fill="none" opacity="1" stroke="#3B82F6" stroke-width="1" points="70,445 67,445 "/>
<polyline fill="none" opacity="1" stroke="#3B82F6" stroke-width="1" points="70,435 64,435 "/>
<polyline fill="none" opacity="1" stroke="#3B82F6" stroke-width="1" points="70,424 67,424 "/>
<polyline fill="none" opacity="1" stroke="#3B82F6" stroke-width="1" points="70,413 67,413 "/>
<polyline fill="none" opacity="1" stroke="#3B82F6" stroke-width="1" points="70,403 67,403 "/>
<polyline fill="none" opacity="1" stroke="#3B82F6" stroke-width="1" points="70,392 64,392 "/>
<polyline fill="none" opacity="1" stroke="#3B82F6" stroke-width="1" points="70,381 67,381 "/>
<polyline fill="none" opacity="1" stroke="#3B82F6" stroke-width="1" points="70,371 67,371 "/>
<polyline fill="none" opacity="1" stroke="#3B82F6" stroke-width="1" points="70,360 67,360 "/>
<polyline fill="none" opacity="1" stroke="#3B82F6" stroke-width="1" points="70,350 64,350 "/>
<polyline fill="none" opacity="1" stroke="#3B82F6" stroke-width="1" points="70,339 67,339 "/>
<polyline fill="none" opacity="1" stroke="#3B82F6" stroke-width="1" points="70,328 67,328 "/>
<polyline fill="none" opacity="1" stroke="#3B82F6" stroke-width="1" points="70,318 67,318 "/>
<polyline fill="none" opacity="1" stroke="#3B82F6" stroke-width="1" points="70,307 64,307 "/>
<polyline fill="none" opacity="1" stroke="#3B82F6" stroke-width="1" points="70,296 67,296 "/>
<polyline fill="none" opacity="1" stroke="#3B82F6" stroke-width="1" points="70,286 67,286 "/>
<polyline fill="none" opacity="1" stroke="#3B82F6" stroke-width="1" points="70,275 67,275 "/>
<polyline fill="none" opacity="1" stroke="#3B82F6" stroke-width="1" points="70,265 64,265 "/>
<polyline fill="none" opacity="1" stroke="#3B82F6" stroke-width="1" points="70,254 67,254 "/>
<polyline fill="none" opacity="1" stroke="#3B82F6" stroke-width="1" points="70,243 67,243 "/>
<polyline fill="none" opacity="1" stroke="#3B82F6" stroke-width="1" points="70,233 67,233 "/>
<polyline fill="none" opacity="1" stroke="#3B82F6" stroke-width="1" points="70,222 64,222 "/>
<polyline fill="none" opacity="1" stroke="#3B82F6" stroke-width="1" points="70,211 67,211 "/>
<polyline fill="none" opacity="1" stroke="#3B82F6" stroke-width="1" points="70,201 67,201 "/>
<polyline fill="none" opacity="1" stroke="#3B82F6" stroke-width="1" points="70,190 67,190 "/>
<polyline fill="none" opacity="1" stroke="#3B82F6" stroke-width="1" points="70,180 64,180 "/>
<polyline fill="none" opacity="1" stroke="#3B82F6" stroke-width="1" points="70,169 67,169 "/>
<polyline fill="none" opacity="1" stroke="#3B82F6" stroke-width="1" points="70,158 67,158 "/>
<polyline fill="none" opacity="1" stroke="#3B82F6" stroke-width="1" points="70,148 67,148 "/>
<polyline fill="none" opacity="1" stroke="#3B82F6" stroke-width="1" points="70,137 64,137 "/>
<polyline fill="none" opacity="1" stroke="#3B82F6" stroke-width="1" points="70,126 67,126 "/>
<polyline fill="none" opacity="1" stroke="#3B82F6" stroke-width="1" points="70,116 67,116 "/>
<polyline fill="none" opacity="1" stroke="#3B82F6" stroke-width="1" points="70,105 67,105 "/>
<polyline fill="none" opacity="1" stroke="#3B82F6" stroke-width="1" points="70,95 64,95 "/>
<polyline fill="none" opacity="1" stroke="#3B82F6" stroke-width="1" points="70,84 67,84 "/>
<polyline fill="none" opacity="1" stroke="#3B82F6" stroke-width="1" points="70,73 67,73 "/>
<polyline fill="none" opacity="1" stroke="#3B82F6" stroke-width="1" points="70,63 67,63 "/>
<polyline fill="none" opacity="1" stroke="#3B82F6" stroke-width="1" points="70,52 64,52 "/>
<polyline fill="none" opacity="1" stroke="#3B82F6" stroke-width="1" points="70,41 67,41 "/>
<polyline fill="none" opacity="1" stroke="#3B82F6" stroke-width="1" points="70,31 67,31 "/>
<polyline fill="none" opacity="1" stroke="#3B82F6" stroke-width="1" points="70,20 67,20 "/>
<polyline fill="none" opacity="1" stroke="#3B82F6" stroke-width="1" points="70,10 64,10 "/>
</svg>
