<svg width="1400" height="700" viewBox="0 0 1400 700" xmlns="http://www.w3.org/2000/svg">
<rect x="0" y="0" width="1400" height="700" opacity="1" fill="#FFFFFF" stroke="none"/>
<polyline fill="none" opacity="0.4" stroke="#C8C8C8" stroke-width="0.5" stroke-dasharray="4,4" points="10,689 10,10 "/>
<polyline fill="none" opacity="0.4" stroke="#C8C8C8" stroke-width="0.5" stroke-dasharray="4,4" points="194,689 194,10 "/>
<polyline fill="none" opacity="0.4" stroke="#C8C8C8" stroke-width="0.5" stroke-dasharray="4,4" points="378,689 378,10 "/>
<polyline fill="none" opacity="0.4" stroke="#C8C8C8" stroke-width="0.5" stroke-dasharray="4,4" points="563,689 563,10 "/>
<polyline fill="none" opacity="0.4" stroke="#C8C8C8" stroke-width="0.5" stroke-dasharray="4,4" points="747,689 747,10 "/>
<polyline fill="none" opacity="0.4" stroke="#C8C8C8" stroke-width="0.5" stroke-dasharray="4,4" points="932,689 932,10 "/>
<polyline fill="none" opacity="0.4" stroke="#C8C8C8" stroke-width="0.5" stroke-dasharray="4,4" points="1116,689 1116,10 "/>
<polyline fill="none" opacity="0.4" stroke="#C8C8C8" stroke-width="0.5" stroke-dasharray="4,4" points="1301,689 1301,10 "/>
<polyline fill="none" opacity="0.4" stroke="#C8C8C8" stroke-width="0.5" stroke-dasharray="4,4" points="10,689 1389,689 "/>
<polyline fill="none" opacity="0.4" stroke="#C8C8C8" stroke-width="0.5" stroke-dasharray="4,4" points="10,647 1389,647 "/>
<polyline fill="none" opacity="0.4" stroke="#C8C8C8" stroke-width="0.5" stroke-dasharray="4,4" points="10,605 1389,605 "/>
<polyline fill="none" opacity="0.4" stroke="#C8C8C8" stroke-width="0.5" stroke-dasharray="4,4" points="10,562 1389,562 "/>
<polyline fill="none" opacity="0.4" stroke="#C8C8C8" stroke-width="0.5" stroke-dasharray="4,4" points="10,520 1389,520 "/>
<polyline fill="none" opacity="0.4" stroke="#C8C8C8" stroke-width="0.5" stroke-dasharray="4,4" points="10,477 1389,477 "/>
<polyline fill="none" opacity="0.4" stroke="#C8C8C8" stroke-width="0.5" stroke-dasharray="4,4" points="10,435 1389,435 "/>
<polyline fill="none" opacity="0.4" stroke="#C8C8C8" stroke-width="0.5" stroke-dasharray="4,4" points="10,392 1389,392 "/>
<polyline fill="none" opacity="0.4" stroke="#C8C8C8" stroke-width="0.5" stroke-dasharray="4,4" points="10,350 1389,350 "/>
<polyline fill="none" opacity="0.4" stroke="#C8C8C8" stroke-width="0.5" stroke-dasharray="4,4" points="10,308 1389,308 "/>
<polyline fill="none" opacity="0.4" stroke="#C8C8C8" stroke-width="0.5" stroke-dasharray="4,4" points="10,265 1389,265 "/>
<polyline fill="none" opacity="0.4" stroke="#C8C8C8" stroke-width="0.5" stroke-dasharray="4,4" points="10,223 1389,223 "/>
<polyline fill="none" opacity="0.4" stroke="#C8C8C8" stroke-width="0.5" stroke-dasharray="4,4" points="10,180 1389,180 "/>
<polyline fill="none" opacity="0.4" stroke="#C8C8C8" stroke-width="0.5" stroke-dasharray="4,4" points="10,138 1389,138 "/>
<polyline fill="none" opacity="0.4" stroke="#C8C8C8" stroke-width="0.5" stroke-dasharray="4,4" points="10,95 1389,95 "/>
<polyline fill="none" opacity="0.4" stroke="#C8C8C8" stroke-width="0.5" stroke-dasharray="4,4" points="10,53 1389,53 "/>
<polyline fill="none" opacity="0.4" stroke="#C8C8C8" stroke-width="0.5" stroke-dasharray="4,4" points="10,10 1389,10 "/>
<polyline fill="none" opacity="1" stroke="#475569" stroke-width="1" points="10,689 1389,689 "/>
<polyline fill="none" opacity="1" stroke="#1E90FF" stroke-width="2" points="10,42 15,52 19,63 24,73 28,83 33,93 38,103 42,112 47,121 52,131 56,140 61,149 65,157 70,166 75,175 79,183 84,191 88,199 93,207 98,215 102,223 107,230 112,238 116,245 121,252 125,259 130,266 135,273 139,280 144,286 148,293 153,299 158,305 162,312 167,318 172,324 176,330 181,335 185,341 190,347 195,352 199,357 204,363 208,368 213,373 218,378 222,383 227,388 232,393 236,398 241,402 245,407 250,411 255,416 259,420 264,424 268,429 273,433 278,437 282,441 287,445 292,449 296,453 301,456 305,460 310,464 315,467 319,471 324,474 328,478 333,481 338,484 342,487 347,491 352,494 356,497 361,500 365,503 370,506 375,509 379,511 384,514 388,517 393,520 398,522 402,525 407,527 412,530 416,532 421,535 425,537 430,539 435,542 439,544 444,546 448,549 453,551 458,553 462,555 467,557 472,559 476,561 481,563 485,565 490,567 495,569 499,570 504,572 508,574 513,576 518,577 522,579 527,581 532,582 536,584 541,586 545,587 550,589 555,590 559,592 564,593 568,595 573,596 578,597 582,599 587,600 592,601 596,603 601,604 605,605 610,606 615,608 619,609 624,610 628,611 633,612 638,613 642,614 647,615 652,617 656,618 661,619 665,620 670,621 675,622 679,622 684,623 688,624 693,625 698,626 702,627 707,628 712,629 716,630 721,630 725,631 730,632 735,633 739,634 744,634 748,635 753,636 758,637 762,637 767,638 772,639 776,639 781,640 785,641 790,641 795,642 799,642 804,643 808,644 813,644 818,645 822,645 827,646 832,647 836,647 841,648 845,648 850,649 855,649 859,650 864,650 868,651 873,651 878,652 882,652 887,653 892,653 896,653 901,654 905,654 910,655 915,655 919,655 924,656 928,656 933,657 938,657 942,657 947,658 952,658 956,658 961,659 965,659 970,659 975,660 979,660 984,660 988,661 993,661 998,661 1002,662 1007,662 1012,662 1016,663 1021,663 1025,663 1030,663 1035,664 1039,664 1044,664 1048,664 1053,665 1058,665 1062,665 1067,665 1072,666 1076,666 1081,666 1085,666 1090,666 1095,667 1099,667 1104,667 1108,667 1113,668 1118,668 1122,668 1127,668 1132,668 1136,668 1141,669 1145,669 1150,669 1155,669 1159,669 1164,669 1168,670 1173,670 1178,670 1182,670 1187,670 1192,670 1196,671 1201,671 1205,671 1210,671 1215,671 1219,671 1224,671 1228,672 1233,672 1238,672 1242,672 1247,672 1252,672 1256,672 1261,672 1265,673 1270,673 1275,673 1279,673 1284,673 1288,673 1293,673 1298,673 1302,673 1307,673 1312,674 1316,674 1321,674 1325,674 1330,674 1335,674 1339,674 1344,674 1348,674 1353,674 1358,674 1362,675 1367,675 1372,675 1376,675 1381,675 1385,675 1390,675 "/>
<polyline fill="none" opacity="1" stroke="#FF0000" stroke-width="2" points="10,42 15,52 19,63 24,73 28,83 33,93 38,103 42,112 47,121 52,131 56,140 61,149 65,157 70,166 75,175 79,183 84,191 88,199 93,207 98,215 102,223 107,230 112,238 116,245 121,252 125,259 130,266 135,273 139,280 144,286 148,293 153,299 158,305 162,312 167,318 172,324 176,330 181,335 185,341 190,347 195,352 199,357 204,363 208,368 213,373 218,378 222,383 227,388 232,393 236,398 241,402 245,407 250,411 255,416 259,420 264,424 268,429 273,433 278,437 282,441 287,445 292,449 296,453 301,456 305,460 310,464 315,467 319,471 324,474 328,478 333,481 338,484 342,487 347,491 352,494 356,497 361,500 365,503 370,506 375,509 379,511 384,514 388,517 393,520 398,522 402,525 407,527 412,530 416,532 421,535 425,537 430,539 435,542 439,544 444,546 448,549 453,551 458,553 462,555 467,557 472,559 476,561 481,563 485,565 490,567 495,569 499,570 504,572 508,574 513,576 518,577 522,579 527,581 532,582 536,584 541,586 545,587 550,589 555,590 559,592 564,593 568,595 573,596 578,597 582,599 587,600 592,601 596,603 601,604 605,605 610,606 615,608 619,609 624,610 628,611 633,612 638,613 642,614 647,615 652,617 656,618 661,619 665,620 670,621 675,622 679,622 684,623 688,624 693,625 698,626 702,627 707,628 712,629 716,630 721,630 725,631 730,632 735,633 739,634 744,634 748,635 753,636 758,637 762,637 767,638 772,639 776,639 781,640 785,641 790,641 795,642 799,642 804,643 808,644 813,644 818,645 822,645 827,646 832,647 836,647 841,648 845,648 850,649 855,649 859,650 864,650 868,651 873,651 878,652 882,652 887,653 892,653 896,653 901,654 905,654 910,655 915,655 919,655 924,656 928,656 933,657 938,657 942,657 947,658 952,658 956,658 961,659 965,659 970,659 975,660 979,660 984,660 988,661 993,661 998,661 1002,662 1007,662 1012,662 1016,663 1021,663 1025,663 1030,663 1035,664 1039,664 1044,664 1048,664 1053,665 1058,665 1062,665 1067,665 1072,666 1076,666 1081,666 1085,666 1090,666 1095,667 1099,667 1104,667 1108,667 1113,668 1118,668 1122,668 1127,668 1132,668 1136,668 1141,669 1145,669 1150,669 1155,669 1159,669 1164,669 1168,670 1173,670 1178,670 1182,670 1187,670 1192,670 1196,671 1201,671 1205,671 1210,671 1215,671 1219,671 1224,671 1228,672 1233,672 1238,672 1242,672 1247,672 1252,672 1256,672 1261,672 1265,673 1270,673 1275,673 1279,673 1284,673 1288,673 1293,673 1298,673 1302,673 1307,673 1312,674 1316,674 1321,674 1325,674 1330,674 1335,674 1339,674 1344,674 1348,674 1353,674 1358,674 1362,675 1367,675 1372,675 1376,675 1381,675 1385,675 1390,675 "/>
<polyline fill="none" opacity="1" stroke="#008000" stroke-width="2" points="10,42 15,52 19,63 24,73 28,83 33,93 38,103 42,112 47,121 52,131 56,140 61,149 65,157 70,166 75,175 79,183 84,191 88,199 93,207 98,215 102,223 107,230 112,238 116,245 121,252 125,259 130,266 135,273 139,280 144,286 148,293 153,299 158,305 162,312 167,318 172,324 176,330 181,335 185,341 190,347 195,352 199,357 204,363 208,368 213,373 218,378 222,383 227,388 232,393 236,398 241,402 245,407 250,411 255,416 259,420 264,424 268,429 273,433 278,437 282,441 287,445 292,449 296,453 301,456 305,460 310,464 315,467 319,471 324,474 328,478 333,481 338,484 342,487 347,491 352,494 356,497 361,500 365,503 370,506 375,509 379,511 384,514 388,517 393,520 398,522 402,525 407,527 412,530 416,532 421,535 425,537 430,539 435,542 439,544 444,546 448,549 453,551 458,553 462,555 467,557 472,559 476,561 481,563 485,565 490,567 495,569 499,570 504,572 508,574 513,576 518,577 522,579 527,581 532,582 536,584 541,586 545,587 550,589 555,590 559,592 564,593 568,595 573,596 578,597 582,599 587,600 592,601 596,603 601,604 605,605 610,606 615,608 619,609 624,610 628,611 633,612 638,613 642,614 647,615 652,617 656,618 661,619 665,620 670,621 675,622 679,622 684,623 688,624 693,625 698,626 702,627 707,628 712,629 716,630 721,630 725,631 730,632 735,633 739,634 744,634 748,635 753,636 758,637 762,637 767,638 772,639 776,639 781,640 785,641 790,641 795,642 799,642 804,643 808,644 813,644 818,645 822,645 827,646 832,647 836,647 841,648 845,648 850,649 855,649 859,650 864,650 868,651 873,651 878,652 882,652 887,653 892,653 896,653 901,654 905,654 910,655 915,655 919,655 924,656 928,656 933,657 938,657 942,657 947,658 952,658 956,658 961,659 965,659 970,659 975,660 979,660 984,660 988,661 993,661 998,661 1002,662 1007,662 1012,662 1016,663 1021,663 1025,663 1030,663 1035,664 1039,664 1044,664 1048,664 1053,665 1058,665 1062,665 1067,665 1072,666 1076,666 1081,666 1085,666 1090,666 1095,667 1099,667 1104,667 1108,667 1113,668 1118,668 1122,668 1127,668 1132,668 1136,668 1141,669 1145,669 1150,669 1155,669 1159,669 1164,669 1168,670 1173,670 1178,670 1182,670 1187,670 1192,670 1196,671 1201,671 1205,671 1210,671 1215,671 1219,671 1224,671 1228,672 1233,672 1238,672 1242,672 1247,672 1252,672 1256,672 1261,672 1265,673 1270,673 1275,673 1279,673 1284,673 1288,673 1293,673 1298,673 1302,673 1307,673 1312,674 1316,674 1321,674 1325,674 1330,674 1335,674 1339,674 1344,674 1348,674 1353,674 1358,674 1362,675 1367,675 1372,675 1376,675 1381,675 1385,675 1390,675 "/>
<polyline fill="none" opacity="1" stroke="#800080" stroke-width="2" points="10,42 15,52 19,63 24,73 28,83 33,93 38,103 42,112 47,121 52,131 56,140 61,149 65,157 70,166 75,175 79,183 84,191 88,199 93,207 98,215 102,223 107,230 112,238 116,245 121,252 125,259 130,266 135,273 139,280 144,286 148,293 153,299 158,305 162,312 167,318 172,324 176,330 181,335 185,341 190,347 195,352 199,357 204,363 208,368 213,373 218,378 222,383 227,388 232,393 236,398 241,402 245,407 250,411 255,416 259,420 264,424 268,429 273,433 278,437 282,441 287,445 292,449 296,453 301,456 305,460 310,464 315,467 319,471 324,474 328,478 333,481 338,484 342,487 347,491 352,494 356,497 361,500 365,503 370,506 375,509 379,511 384,514 388,517 393,520 398,522 402,525 407,527 412,530 416,532 421,535 425,537 430,539 435,542 439,544 444,546 448,549 453,551 458,553 462,555 467,557 472,559 476,561 481,563 485,565 490,567 495,569 499,570 504,572 508,574 513,576 518,577 522,579 527,581 532,582 536,584 541,586 545,587 550,589 555,590 559,592 564,593 568,595 573,596 578,597 582,599 587,600 592,601 596,603 601,604 605,605 610,606 615,608 619,609 624,610 628,611 633,612 638,613 642,614 647,615 652,617 656,618 661,619 665,620 670,621 675,622 679,622 684,623 688,624 693,625 698,626 702,627 707,628 712,629 716,630 721,630 725,631 730,632 735,633 739,634 744,634 748,635 753,636 758,637 762,637 767,638 772,639 776,639 781,640 785,641 790,641 795,642 799,642 804,643 808,644 813,644 818,645 822,645 827,646 832,647 836,647 841,648 845,648 850,649 855,649 859,650 864,650 868,651 873,651 878,652 882,652 887,653 892,653 896,653 901,654 905,654 910,655 915,655 919,655 924,656 928,656 933,657 938,657 942,657 947,658 952,658 956,658 961,659 965,659 970,659 975,660 979,660 984,660 988,661 993,661 998,661 1002,662 1007,662 1012,662 1016,663 1021,663 1025,663 1030,663 1035,664 1039,664 1044,664 1048,664 1053,665 1058,665 1062,665 1067,665 1072,666 1076,666 1081,666 1085,666 1090,666 1095,667 1099,667 1104,667 1108,667 1113,668 1118,668 1122,668 1127,668 1132,668 1136,668 1141,669 1145,669 1150,669 1155,669 1159,669 1164,669 1168,670 1173,670 1178,670 1182,670 1187,670 1192,670 1196,671 1201,671 1205,671 1210,671 1215,671 1219,671 1224,671 1228,672 1233,672 1238,672 1242,672 1247,672 1252,672 1256,672 1261,672 1265,673 1270,673 1275,673 1279,673 1284,673 1288,673 1293,673 1298,673 1302,673 1307,673 1312,674 1316,674 1321,674 1325,674 1330,674 1335,674 1339,674 1344,674 1348,674 1353,674 1358,674 1362,675 1367,675 1372,675 1376,675 1381,675 1385,675 1390,675 "/>
<polyline fill="none" opacity="1" stroke="#3B82F6" stroke-width="1" points="10,10 10,690 "/>
<polyline fill="none" opacity="1" stroke="#3B82F6" stroke-width="1" points="10,690 4,690 "/>
<polyline fill="none" opacity="1" stroke="#3B82F6" stroke-width="1" points="10,679 7,679 "/>
<polyline fill="none" opacity="1" stroke="#3B82F6" stroke-width="1" points="10,669 7,669 "/>
<polyline fill="none" opacity="1" stroke="#3B82F6" stroke-width="1" points="10,658 7,658 "/>
<polyline fill="none" opacity="1" stroke="#3B82F6" stroke-width="1" points="10,648 4,648 "/>
<polyline fill="none" opacity="1" stroke="#3B82F6" stroke-width="1" points="10,637 7,637 "/>
<polyline fill="none" opacity="1" stroke="#3B82F6" stroke-width="1" points="10,626 7,626 "/>
<polyline fill="none" opacity="1" stroke="#3B82F6" stroke-width="1" points="10,616 7,616 "/>
<polyline fill="none" opacity="1" stroke="#3B82F6" stroke-width="1" points="10,605 4,605 "/>
<polyline fill="none" opacity="1" stroke="#3B82F6" stroke-width="1" points="10,594 7,594 "/>
<polyline fill="none" opacity="1" stroke="#3B82F6" stroke-width="1" points="10,584 7,584 "/>
<polyline fill="none" opacity="1" stroke="#3B82F6" stroke-width="1" points="10,573 7,573 "/>
<polyline fill="none" opacity="1" stroke="#3B82F6" stroke-width="1" points="10,563 4,563 "/>
<polyline fill="none" opacity="1" stroke="#3B82F6" stroke-width="1" points="10,552 7,552 "/>
<polyline fill="none" opacity="1" stroke="#3B82F6" stroke-width="1" points="10,541 7,541 "/>
<polyline fill="none" opacity="1" stroke="#3B82F6" stroke-width="1" points="10,531 7,531 "/>
<polyline fill="none" opacity="1" stroke="#3B82F6" stroke-width="1" points="10,520 4,520 "/>
<polyline fill="none" opacity="1" stroke="#3B82F6" stroke-width="1" points="10,509 7,509 "/>
<polyline fill="none" opacity="1" stroke="#3B82F6" stroke-width="1" points="10,499 7,499 "/>
<polyline fill="none" opacity="1" stroke="#3B82F6" stroke-width="1" points="10,488 7,488 "/>
<polyline fill="none" opacity="1" stroke="#3B82F6" stroke-width="1" points="10,478 4,478 "/>
<polyline fill="none" opacity="1" stroke="#3B82F6" stroke-width="1" points="10,467 7,467 "/>
<polyline fill="none" opacity="1" stroke="#3B82F6" stroke-width="1" points="10,456 7,456 "/>
<polyline fill="none" opacity="1" stroke="#3B82F6" stroke-width="1" points="10,446 7,446 "/>
<polyline fill="none" opacity="1" stroke="#3B82F6" stroke-width="1" points="10,435 4,435 "/>
<polyline fill="none" opacity="1" stroke="#3B82F6" stroke-width="1" points="10,424 7,424 "/>
<polyline fill="none" opacity="1" stroke="#3B82F6" stroke-width="1" points="10,414 7,414 "/>
<polyline fill="none" opacity="1" stroke="#3B82F6" stroke-width="1" points="10,403 7,403 "/>
<polyline fill="none" opacity="1" stroke="#3B82F6" stroke-width="1" points="10,393 4,393 "/>
<polyline fill="none" opacity="1" stroke="#3B82F6" stroke-width="1" points="10,382 7,382 "/>
<polyline fill="none" opacity="1" stroke="#3B82F6" stroke-width="1" points="10,371 7,371 "/>
<polyline fill="none" opacity="1" stroke="#3B82F6" stroke-width="1" points="10,361 7,361 "/>
<polyline fill="none" opacity="1" stroke="#3B82F6" stroke-width="1" points="10,350 4,350 "/>
<polyline fill="none" opacity="1" stroke="#3B82F6" stroke-width="1" points="10,339 7,339 "/>
<polyline fill="none" opacity="1" stroke="#3B82F6" stroke-width="1" points="10,329 7,329 "/>
<polyline fill="none" opacity="1" stroke="#3B82F6" stroke-width="1" points="10,318 7,318 "/>
<polyline fill="none" opacity="1" stroke="#3B82F6" stroke-width="1" points="10,308 4,308 "/>
<polyline fill="none" opacity="1" stroke="#3B82F6" stroke-width="1" points="10,297 7,297 "/>
<polyline fill="none" opacity="1" stroke="#3B82F6" stroke-width="1" points="10,286 7,286 "/>
<polyline fill="none" opacity="1" stroke="#3B82F6" stroke-width="1" points="10,276 7,276 "/>
<polyline fill="none" opacity="1" stroke="#3B82F6" stroke-width="1" points="10,265 4,265 "/>
<polyline fill="none" opacity="1" stroke="#3B82F6" stroke-width="1" points="10,254 7,254 "/>
<polyline fill="none" opacity="1" stroke="#3B82F6" stroke-width="1" points="10,244 7,244 "/>
<polyline fill="none" opacity="1" stroke="#3B82F6" stroke-width="1" points="10,233 7,233 "/>
<polyline fill="none" opacity="1" stroke="#3B82F6" stroke-width="1" points="10,223 4,223 "/>
<polyline fill="none" opacity="1" stroke="#3B82F6" stroke-width="1" points="10,212 7,212 "/>
<polyline fill="none" opacity="1" stroke="#3B82F6" stroke-width="1" points="10,201 7,201 "/>
<polyline fill="none" opacity="1" stroke="#3B82F6" stroke-width="1" points="10,191 7,191 "/>
<polyline fill="none" opacity="1" stroke="#3B82F6" stroke-width="1" points="10,180 4,180 "/>
<polyline fill="none" opacity="1" stroke="#3B82F6" stroke-width="1" points="10,169 7,169 "/>
<polyline fill="none" opacity="1" stroke="#3B82F6" stroke-width="1" points="10,159 7,159 "/>
<polyline fill="none" opacity="1" stroke="#3B82F6" stroke-width="1" points="10,148 7,148 "/>
<polyline fill="none" opacity="1" stroke="#3B82F6" stroke-width="1" points="10,138 4,138 "/>
<polyline fill="none" opacity="1" stroke="#3B82F6" stroke-width="1" points="10,127 7,127 "/>
<polyline fill="none" opacity="1" stroke="#3B82F6" stroke-width="1" points="10,116 7,116 "/>
<polyline fill="none" opacity="1" stroke="#3B82F6" stroke-width="1" points="10,106 7,106 "/>
<polyline fill="none" opacity="1" stroke="#3B82F6" stroke-width="1" points="10,95 4,95 "/>
<polyline fill="none" opacity="1" stroke="#3B82F6" stroke-width="1" points="10,84 7,84 "/>
<polyline fill="none" opacity="1" stroke="#3B82F6" stroke-width="1" points="10,74 7,74 "/>
<polyline fill="none" opacity="1" stroke="#3B82F6" stroke-width="1" points="10,63 7,63 "/>
<polyline fill="none" opacity="1" stroke="#3B82F6" stroke-width="1" points="10,53 4,53 "/>
<polyline fill="none" opacity="1" stroke="#3B82F6" stroke-width="1" points="10,42 7,42 "/>
<polyline fill="none" opacity="1" stroke="#3B82F6" stroke-width="1" points="10,31 7,31 "/>
<polyline fill="none" opacity="1" stroke="#3B82F6" stroke-width="1" points="10,21 7,21 "/>
<polyline fill="none" opacity="1" stroke="#3B82F6" stroke-width="1" points="10,10 4,10 "/>
<polyline fill="none" opacity="1" stroke="#475569" stroke-width="1" points="10,690 10,696 "/>
<polyline fill="none" opacity="1" stroke="#475569" stroke-width="1" points="56,690 56,693 "/>
<polyline fill="none" opacity="1" stroke="#475569" stroke-width="1" points="102,690 102,693 "/>
<polyline fill="none" opacity="1" stroke="#475569" stroke-width="1" points="148,690 148,693 "/>
<polyline fill="none" opacity="1" stroke="#475569" stroke-width="1" points="195,690 195,696 "/>
<polyline fill="none" opacity="1" stroke="#475569" stroke-width="1" points="241,690 241,693 "/>
<polyline fill="none" opacity="1" stroke="#475569" stroke-width="1" points="287,690 287,693 "/>
<polyline fill="none" opacity="1" stroke="#475569" stroke-width="1" points="333,690 333,693 "/>
<polyline fill="none" opacity="1" stroke="#475569" stroke-width="1" points="379,690 379,696 "/>
<polyline fill="none" opacity="1" stroke="#475569" stroke-width="1" points="425,690 425,693 "/>
<polyline fill="none" opacity="1" stroke="#475569" stroke-width="1" points="472,690 472,693 "/>
<polyline fill="none" opacity="1" stroke="#475569" stroke-width="1" points="518,690 518,693 "/>
<polyline fill="none" opacity="1" stroke="#475569" stroke-width="1" points="564,690 564,696 "/>
<polyline fill="none" opacity="1" stroke="#475569" stroke-width="1" points="610,690 610,693 "/>
<polyline fill="none" opacity="1" stroke="#475569" stroke-width="1" points="656,690 656,693 "/>
<polyline fill="none" opacity="1" stroke="#475569" stroke-width="1" points="702,690 702,693 "/>
<polyline fill="none" opacity="1" stroke="#475569" stroke-width="1" points="748,690 748,696 "/>
<polyline fill="none" opacity="1" stroke="#475569" stroke-width="1" points="795,690 795,693 "/>
<polyline fill="none" opacity="1" stroke="#475569" stroke-width="1" points="841,690 841,693 "/>
<polyline fill="none" opacity="1" stroke="#475569" stroke-width="1" points="887,690 887,693 "/>
<polyline fill="none" opacity="1" stroke="#475569" stroke-width="1" points="933,690 933,696 "/>
<polyline fill="none" opacity="1" stroke="#475569" stroke-width="1" points="979,690 979,693 "/>
<polyline fill="none" opacity="1" stroke="#475569" stroke-width="1" points="1025,690 1025,693 "/>
<polyline fill="none" opacity="1" stroke="#475569" stroke-width="1" points="1072,690 1072,693 "/>
<polyline fill="none" opacity="1" stroke="#475569" stroke-width="1" points="1118,690 1118,696 "/>
<polyline fill="none" opacity="1" stroke="#475569" stroke-width="1" points="1164,690 1164,693 "/>
<polyline fill="none" opacity="1" stroke="#475569" stroke-width="1" points="1210,690 1210,693 "/>
<polyline fill="none" opacity="1" stroke="#475569" stroke-width="1" points="1256,690 1256,693 "/>
<polyline fill="none" opacity="1" stroke="#475569" stroke-width="1" points="1302,690 1302,696 "/>
<polyline fill="none" opacity="1" stroke="#475569" stroke-width="1" points="1348,690 1348,693 "/>
</svg>
