<svg width="1400" height="700" viewBox="0 0 1400 700" xmlns="http://www.w3.org/2000/svg">
<rect x="0" y="0" width="1400" height="700" opacity="1" fill="#FFFFFF" stroke="none"/>
<polyline fill="none" opacity="0.4" stroke="#C8C8C8" stroke-width="0.5" stroke-dasharray="4,4" points="70,689 70,10 "/>
<polyline fill="none" opacity="0.4" stroke="#C8C8C8" stroke-width="0.5" stroke-dasharray="4,4" points="238,689 238,10 "/>
<polyline fill="none" opacity="0.4" stroke="#C8C8C8" stroke-width="0.5" stroke-dasharray="4,4" points="406,689 406,10 "/>
<polyline fill="none" opacity="0.4" stroke="#C8C8C8" stroke-width="0.5" stroke-dasharray="4,4" points="575,689 575,10 "/>
<polyline fill="none" opacity="0.4" stroke="#C8C8C8" stroke-width="0.5" stroke-dasharray="4,4" points="743,689 743,10 "/>
<polyline fill="none" opacity="0.4" stroke="#C8C8C8" stroke-width="0.5" stroke-dasharray="4,4" points="912,689 912,10 "/>
<polyline fill="none" opacity="0.4" stroke="#C8C8C8" stroke-width="0.5" stroke-dasharray="4,4" points="1080,689 1080,10 "/>
<polyline fill="none" opacity="0.4" stroke="#C8C8C8" stroke-width="0.5" stroke-dasharray="4,4" points="1248,689 1248,10 "/>
<polyline fill="none" opacity="0.4" stroke="#C8C8C8" stroke-width="0.5" stroke-dasharray="4,4" points="70,689 1329,689 "/>
<polyline fill="none" opacity="0.4" stroke="#C8C8C8" stroke-width="0.5" stroke-dasharray="4,4" points="70,647 1329,647 "/>
<polyline fill="none" opacity="0.4" stroke="#C8C8C8" stroke-width="0.5" stroke-dasharray="4,4" points="70,605 1329,605 "/>
<polyline fill="none" opacity="0.4" stroke="#C8C8C8" stroke-width="0.5" stroke-dasharray="4,4" points="70,562 1329,562 "/>
<polyline fill="none" opacity="0.4" stroke="#C8C8C8" stroke-width="0.5" stroke-dasharray="4,4" points="70,520 1329,520 "/>
<polyline fill="none" opacity="0.4" stroke="#C8C8C8" stroke-width="0.5" stroke-dasharray="4,4" points="70,477 1329,477 "/>
<polyline fill="none" opacity="0.4" stroke="#C8C8C8" stroke-width="0.5" stroke-dasharray="4,4" points="70,435 1329,435 "/>
<polyline fill="none" opacity="0.4" stroke="#C8C8C8" stroke-width="0.5" stroke-dasharray="4,4" points="70,392 1329,392 "/>
<polyline fill="none" opacity="0.4" stroke="#C8C8C8" stroke-width="0.5" stroke-dasharray="4,4" points="70,350 1329,350 "/>
<polyline fill="none" opacity="0.4" stroke="#C8C8C8" stroke-width="0.5" stroke-dasharray="4,4" points="70,308 1329,308 "/>
<polyline fill="none" opacity="0.4" stroke="#C8C8C8" stroke-width="0.5" stroke-dasharray="4,4" points="70,265 1329,265 "/>
<polyline fill="none" opacity="0.4" stroke="#C8C8C8" stroke-width="0.5" stroke-dasharray="4,4" points="70,223 1329,223 "/>
<polyline fill="none" opacity="0.4" stroke="#C8C8C8" stroke-width="0.5" stroke-dasharray="4,4" points="70,180 1329,180 "/>
<polyline fill="none" opacity="0.4" stroke="#C8C8C8" stroke-width="0.5" stroke-dasharray="4,4" points="70,138 1329,138 "/>
<polyline fill="none" opacity="0.4" stroke="#C8C8C8" stroke-width="0.5" stroke-dasharray="4,4" points="70,95 1329,95 "/>
<polyline fill="none" opacity="0.4" stroke="#C8C8C8" stroke-width="0.5" stroke-dasharray="4,4" points="70,53 1329,53 "/>
<polyline fill="none" opacity="0.4" stroke="#C8C8C8" stroke-width="0.5" stroke-dasharray="4,4" points="70,10 1329,10 "/>
<polyline fill="none" opacity="1" stroke="#475569" stroke-width="1" points="70,689 1329,689 "/>
<polyline fill="none" opacity="1" stroke="#1E90FF" stroke-width="2" points="70,42 74,52 78,63 83,73 87,83 91,93 95,103 99,112 104,121 108,131 112,140 116,149 121,157 125,166 129,175 133,183 137,191 142,199 146,207 150,215 154,223 158,230 163,238 167,245 171,252 175,259 180,266 184,273 188,280 192,286 196,293 201,299 205,305 209,312 213,318 217,324 222,330 226,335 230,341 234,347 239,352 243,357 247,363 251,368 255,373 260,378 264,383 268,388 272,393 276,398 281,402 285,407 289,411 293,416 298,420 302,424 306,429 310,433 314,437 319,441 323,445 327,449 331,453 335,456 340,460 344,464 348,467 352,471 357,474 361,478 365,481 369,484 373,487 378,491 382,494 386,497 390,500 394,503 399,506 403,509 407,511 411,514 416,517 420,520 424,522 428,525 432,527 437,530 441,532 445,535 449,537 453,539 458,542 462,544 466,546 470,549 475,551 479,553 483,555 487,557 491,559 496,561 500,563 504,565 508,567 512,569 517,570 521,572 525,574 529,576 534,577 538,579 542,581 546,582 550,584 555,586 559,587 563,589 567,590 571,592 576,593 580,595 584,596 588,597 593,599 597,600 601,601 605,603 609,604 614,605 618,606 622,608 626,609 630,610 635,611 639,612 643,613 647,614 652,615 656,617 660,618 664,619 668,620 673,621 677,622 681,622 685,623 689,624 694,625 698,626 702,627 706,628 711,629 715,630 719,630 723,631 727,632 732,633 736,634 740,634 744,635 748,636 753,637 757,637 761,638 765,639 770,639 774,640 778,641 782,641 786,642 791,642 795,643 799,644 803,644 807,645 812,645 816,646 820,647 824,647 829,648 833,648 837,649 841,649 845,650 850,650 854,651 858,651 862,652 866,652 871,653 875,653 879,653 883,654 888,654 892,655 896,655 900,655 904,656 909,656 913,657 917,657 921,657 925,658 930,658 934,658 938,659 942,659 947,659 951,660 955,660 959,660 963,661 968,661 972,661 976,662 980,662 984,662 989,663 993,663 997,663 1001,663 1006,664 1010,664 1014,664 1018,664 1022,665 1027,665 1031,665 1035,665 1039,666 1043,666 1048,666 1052,666 1056,666 1060,667 1065,667 1069,667 1073,667 1077,668 1081,668 1086,668 1090,668 1094,668 1098,668 1102,669 1107,669 1111,669 1115,669 1119,669 1124,669 1128,670 1132,670 1136,670 1140,670 1145,670 1149,670 1153,671 1157,671 1161,671 1166,671 1170,671 1174,671 1178,671 1183,672 1187,672 1191,672 1195,672 1199,672 1204,672 1208,672 1212,672 1216,673 1220,673 1225,673 1229,673 1233,673 1237,673 1242,673 1246,673 1250,673 1254,673 1258,674 1263,674 1267,674 1271,674 1275,674 1279,674 1284,674 1288,674 1292,674 1296,674 1301,674 1305,675 1309,675 1313,675 1317,675 1322,675 1326,675 1330,675 "/>
<polyline fill="none" opacity="1" stroke="#1E90FF" stroke-width="2" points="70,350 74,336 78,322 83,308 87,294 91,280 95,266 99,253 104,240 108,227 112,214 116,202 121,190 125,179 129,167 133,157 137,147 142,137 146,128 150,120 154,112 158,104 163,97 167,91 171,86 175,81 180,77 184,74 188,71 192,69 196,67 201,67 205,67 209,68 213,69 217,71 222,74 226,78 230,82 234,87 239,92 243,99 247,105 251,113 255,121 260,130 264,139 268,148 272,159 276,169 281,180 285,192 289,204 293,216 298,229 302,242 306,255 310,269 314,282 319,296 323,310 327,324 331,338 335,352 340,367 344,381 348,395 352,409 357,422 361,436 365,449 369,463 373,475 378,488 382,500 386,512 390,523 394,534 399,545 403,555 407,564 411,573 416,582 420,590 424,597 428,604 432,610 437,615 441,620 445,624 449,627 453,630 458,632 462,633 466,633 470,633 475,632 479,631 483,628 487,625 491,622 496,617 500,612 504,607 508,600 512,593 517,586 521,578 525,569 529,560 534,550 538,540 542,529 546,518 550,506 555,494 559,482 563,469 567,456 571,443 576,429 580,415 584,402 588,388 593,374 597,359 601,345 605,331 609,317 614,303 618,289 622,275 626,262 630,248 635,235 639,222 643,210 647,198 652,186 656,175 660,164 664,153 668,143 673,134 677,125 681,117 685,109 689,102 694,95 698,89 702,84 706,80 711,76 715,73 719,70 723,68 727,67 732,67 736,67 740,68 744,70 748,72 753,75 757,79 761,83 765,89 770,94 774,101 778,108 782,116 786,124 791,133 795,142 799,152 803,162 807,173 812,184 816,196 820,208 824,220 829,233 833,246 837,260 841,273 845,287 850,301 854,315 858,329 862,343 866,357 871,371 875,385 879,399 883,413 888,427 892,441 896,454 900,467 904,480 909,492 913,504 917,516 921,527 925,538 930,548 934,558 938,568 942,576 947,585 951,592 955,599 959,606 963,611 968,617 972,621 976,625 980,628 984,630 989,632 993,633 997,633 1001,633 1006,632 1010,630 1014,627 1018,624 1022,620 1027,616 1031,610 1035,605 1039,598 1043,591 1048,583 1052,575 1056,566 1060,556 1065,546 1069,536 1073,525 1077,514 1081,502 1086,490 1090,477 1094,465 1098,451 1102,438 1107,425 1111,411 1115,397 1119,383 1124,369 1128,355 1132,340 1136,326 1140,312 1145,298 1149,284 1153,271 1157,257 1161,244 1166,231 1170,218 1174,206 1178,194 1183,182 1187,171 1191,160 1195,150 1199,140 1204,131 1208,122 1212,114 1216,107 1220,100 1225,93 1229,88 1233,83 1237,78 1242,75 1246,72 1250,69 1254,68 1258,67 1263,67 1267,67 1271,68 1275,70 1279,73 1284,76 1288,80 1292,85 1296,90 1301,96 1305,103 1309,110 1313,118 1317,127 1322,136 1326,145 1330,155 "/>
<polyline fill="none" opacity="1" stroke="#1E90FF" stroke-width="2" points="70,67 74,67 78,67 83,67 87,68 91,69 95,70 99,71 104,72 108,74 112,75 116,77 121,79 125,81 129,84 133,86 137,89 142,92 146,95 150,98 154,101 158,105 163,108 167,112 171,116 175,120 180,124 184,129 188,133 192,138 196,143 201,148 205,153 209,158 213,163 217,168 222,174 226,179 230,185 234,191 239,197 243,203 247,209 251,215 255,221 260,228 264,234 268,241 272,247 276,254 281,261 285,267 289,274 293,281 298,288 302,295 306,302 310,309 314,316 319,323 323,330 327,337 331,344 335,351 340,358 344,365 348,372 352,379 357,387 361,394 365,401 369,407 373,414 378,421 382,428 386,435 390,442 394,448 399,455 403,461 407,468 411,474 416,481 420,487 424,493 428,499 432,505 437,511 441,517 445,522 449,528 453,533 458,539 462,544 466,549 470,554 475,559 479,564 483,568 487,573 491,577 496,581 500,585 504,589 508,593 512,596 517,600 521,603 525,606 529,609 534,612 538,615 542,617 546,619 550,621 555,623 559,625 563,627 567,628 571,629 576,630 580,631 584,632 588,633 593,633 597,633 601,633 605,633 609,633 614,632 618,632 622,631 626,630 630,629 635,627 639,626 643,624 647,622 652,620 656,618 660,615 664,613 668,610 673,607 677,604 681,601 685,597 689,594 694,590 698,586 702,582 706,578 711,574 715,570 719,565 723,560 727,556 732,551 736,546 740,541 744,535 748,530 753,524 757,519 761,513 765,507 770,501 774,495 778,489 782,483 786,476 791,470 795,464 799,457 803,450 807,444 812,437 816,430 820,423 824,417 829,410 833,403 837,396 841,389 845,382 850,375 854,368 858,361 862,354 866,346 871,339 875,332 879,325 883,318 888,311 892,304 896,297 900,290 904,283 909,276 913,270 917,263 921,256 925,249 930,243 934,236 938,230 942,224 947,217 951,211 955,205 959,199 963,193 968,187 972,181 976,176 980,170 984,165 989,159 993,154 997,149 1001,144 1006,139 1010,135 1014,130 1018,126 1022,122 1027,117 1031,113 1035,110 1039,106 1043,102 1048,99 1052,96 1056,93 1060,90 1065,87 1069,85 1073,82 1077,80 1081,78 1086,76 1090,74 1094,73 1098,71 1102,70 1107,69 1111,68 1115,68 1119,67 1124,67 1128,67 1132,67 1136,67 1140,67 1145,68 1149,69 1153,70 1157,71 1161,72 1166,73 1170,75 1174,77 1178,79 1183,81 1187,83 1191,86 1195,88 1199,91 1204,94 1208,97 1212,100 1216,104 1220,107 1225,111 1229,115 1233,119 1237,123 1242,127 1246,132 1250,136 1254,141 1258,146 1263,151 1267,156 1271,161 1275,167 1279,172 1284,178 1288,183 1292,189 1296,195 1301,201 1305,207 1309,213 1313,219 1317,226 1322,232 1326,239 1330,245 "/>
<polyline fill="none" opacity="1" stroke="#FF0000" stroke-width="2" points="70,42 74,52 78,63 83,73 87,83 91,93 95,103 99,112 104,121 108,131 112,140 116,149 121,157 125,166 129,175 133,183 137,191 142,199 146,207 150,215 154,223 158,230 163,238 167,245 171,252 175,259 180,266 184,273 188,280 192,286 196,293 201,299 205,305 209,312 213,318 217,324 222,330 226,335 230,341 234,347 239,352 243,357 247,363 251,368 255,373 260,378 264,383 268,388 272,393 276,398 281,402 285,407 289,411 293,416 298,420 302,424 306,429 310,433 314,437 319,441 323,445 327,449 331,453 335,456 340,460 344,464 348,467 352,471 357,474 361,478 365,481 369,484 373,487 378,491 382,494 386,497 390,500 394,503 399,506 403,509 407,511 411,514 416,517 420,520 424,522 428,525 432,527 437,530 441,532 445,535 449,537 453,539 458,542 462,544 466,546 470,549 475,551 479,553 483,555 487,557 491,559 496,561 500,563 504,565 508,567 512,569 517,570 521,572 525,574 529,576 534,577 538,579 542,581 546,582 550,584 555,586 559,587 563,589 567,590 571,592 576,593 580,595 584,596 588,597 593,599 597,600 601,601 605,603 609,604 614,605 618,606 622,608 626,609 630,610 635,611 639,612 643,613 647,614 652,615 656,617 660,618 664,619 668,620 673,621 677,622 681,622 685,623 689,624 694,625 698,626 702,627 706,628 711,629 715,630 719,630 723,631 727,632 732,633 736,634 740,634 744,635 748,636 753,637 757,637 761,638 765,639 770,639 774,640 778,641 782,641 786,642 791,642 795,643 799,644 803,644 807,645 812,645 816,646 820,647 824,647 829,648 833,648 837,649 841,649 845,650 850,650 854,651 858,651 862,652 866,652 871,653 875,653 879,653 883,654 888,654 892,655 896,655 900,655 904,656 909,656 913,657 917,657 921,657 925,658 930,658 934,658 938,659 942,659 947,659 951,660 955,660 959,660 963,661 968,661 972,661 976,662 980,662 984,662 989,663 993,663 997,663 1001,663 1006,664 1010,664 1014,664 1018,664 1022,665 1027,665 1031,665 1035,665 1039,666 1043,666 1048,666 1052,666 1056,666 1060,667 1065,667 1069,667 1073,667 1077,668 1081,668 1086,668 1090,668 1094,668 1098,668 1102,669 1107,669 1111,669 1115,669 1119,669 1124,669 1128,670 1132,670 1136,670 1140,670 1145,670 1149,670 1153,671 1157,671 1161,671 1166,671 1170,671 1174,671 1178,671 1183,672 1187,672 1191,672 1195,672 1199,672 1204,672 1208,672 1212,672 1216,673 1220,673 1225,673 1229,673 1233,673 1237,673 1242,673 1246,673 1250,673 1254,673 1258,674 1263,674 1267,674 1271,674 1275,674 1279,674 1284,674 1288,674 1292,674 1296,674 1301,674 1305,675 1309,675 1313,675 1317,675 1322,675 1326,675 1330,675 "/>
<polyline fill="none" opacity="1" stroke="#FF0000" stroke-width="2" points="70,350 74,336 78,322 83,308 87,294 91,280 95,266 99,253 104,240 108,227 112,214 116,202 121,190 125,179 129,167 133,157 137,147 142,137 146,128 150,120 154,112 158,104 163,97 167,91 171,86 175,81 180,77 184,74 188,71 192,69 196,67 201,67 205,67 209,68 213,69 217,71 222,74 226,78 230,82 234,87 239,92 243,99 247,105 251,113 255,121 260,130 264,139 268,148 272,159 276,169 281,180 285,192 289,204 293,216 298,229 302,242 306,255 310,269 314,282 319,296 323,310 327,324 331,338 335,352 340,367 344,381 348,395 352,409 357,422 361,436 365,449 369,463 373,475 378,488 382,500 386,512 390,523 394,534 399,545 403,555 407,564 411,573 416,582 420,590 424,597 428,604 432,610 437,615 441,620 445,624 449,627 453,630 458,632 462,633 466,633 470,633 475,632 479,631 483,628 487,625 491,622 496,617 500,612 504,607 508,600 512,593 517,586 521,578 525,569 529,560 534,550 538,540 542,529 546,518 550,506 555,494 559,482 563,469 567,456 571,443 576,429 580,415 584,402 588,388 593,374 597,359 601,345 605,331 609,317 614,303 618,289 622,275 626,262 630,248 635,235 639,222 643,210 647,198 652,186 656,175 660,164 664,153 668,143 673,134 677,125 681,117 685,109 689,102 694,95 698,89 702,84 706,80 711,76 715,73 719,70 723,68 727,67 732,67 736,67 740,68 744,70 748,72 753,75 757,79 761,83 765,89 770,94 774,101 778,108 782,116 786,124 791,133 795,142 799,152 803,162 807,173 812,184 816,196 820,208 824,220 829,233 833,246 837,260 841,273 845,287 850,301 854,315 858,329 862,343 866,357 871,371 875,385 879,399 883,413 888,427 892,441 896,454 900,467 904,480 909,492 913,504 917,516 921,527 925,538 930,548 934,558 938,568 942,576 947,585 951,592 955,599 959,606 963,611 968,617 972,621 976,625 980,628 984,630 989,632 993,633 997,633 1001,633 1006,632 1010,630 1014,627 1018,624 1022,620 1027,616 1031,610 1035,605 1039,598 1043,591 1048,583 1052,575 1056,566 1060,556 1065,546 1069,536 1073,525 1077,514 1081,502 1086,490 1090,477 1094,465 1098,451 1102,438 1107,425 1111,411 1115,397 1119,383 1124,369 1128,355 1132,340 1136,326 1140,312 1145,298 1149,284 1153,271 1157,257 1161,244 1166,231 1170,218 1174,206 1178,194 1183,182 1187,171 1191,160 1195,150 1199,140 1204,131 1208,122 1212,114 1216,107 1220,100 1225,93 1229,88 1233,83 1237,78 1242,75 1246,72 1250,69 1254,68 1258,67 1263,67 1267,67 1271,68 1275,70 1279,73 1284,76 1288,80 1292,85 1296,90 1301,96 1305,103 1309,110 1313,118 1317,127 1322,136 1326,145 1330,155 "/>
<polyline fill="none" opacity="1" stroke="#FF0000" stroke-width="2" points="70,67 74,67 78,67 83,67 87,68 91,69 95,70 99,71 104,72 108,74 112,75 116,77 121,79 125,81 129,84 133,86 137,89 142,92 146,95 150,98 154,101 158,105 163,108 167,112 171,116 175,120 180,124 184,129 188,133 192,138 196,143 201,148 205,153 209,158 213,163 217,168 222,174 226,179 230,185 234,191 239,197 243,203 247,209 251,215 255,221 260,228 264,234 268,241 272,247 276,254 281,261 285,267 289,274 293,281 298,288 302,295 306,302 310,309 314,316 319,323 323,330 327,337 331,344 335,351 340,358 344,365 348,372 352,379 357,387 361,394 365,401 369,407 373,414 378,421 382,428 386,435 390,442 394,448 399,455 403,461 407,468 411,474 416,481 420,487 424,493 428,499 432,505 437,511 441,517 445,522 449,528 453,533 458,539 462,544 466,549 470,554 475,559 479,564 483,568 487,573 491,577 496,581 500,585 504,589 508,593 512,596 517,600 521,603 525,606 529,609 534,612 538,615 542,617 546,619 550,621 555,623 559,625 563,627 567,628 571,629 576,630 580,631 584,632 588,633 593,633 597,633 601,633 605,633 609,633 614,632 618,632 622,631 626,630 630,629 635,627 639,626 643,624 647,622 652,620 656,618 660,615 664,613 668,610 673,607 677,604 681,601 685,597 689,594 694,590 698,586 702,582 706,578 711,574 715,570 719,565 723,560 727,556 732,551 736,546 740,541 744,535 748,530 753,524 757,519 761,513 765,507 770,501 774,495 778,489 782,483 786,476 791,470 795,464 799,457 803,450 807,444 812,437 816,430 820,423 824,417 829,410 833,403 837,396 841,389 845,382 850,375 854,368 858,361 862,354 866,346 871,339 875,332 879,325 883,318 888,311 892,304 896,297 900,290 904,283 909,276 913,270 917,263 921,256 925,249 930,243 934,236 938,230 942,224 947,217 951,211 955,205 959,199 963,193 968,187 972,181 976,176 980,170 984,165 989,159 993,154 997,149 1001,144 1006,139 1010,135 1014,130 1018,126 1022,122 1027,117 1031,113 1035,110 1039,106 1043,102 1048,99 1052,96 1056,93 1060,90 1065,87 1069,85 1073,82 1077,80 1081,78 1086,76 1090,74 1094,73 1098,71 1102,70 1107,69 1111,68 1115,68 1119,67 1124,67 1128,67 1132,67 1136,67 1140,67 1145,68 1149,69 1153,70 1157,71 1161,72 1166,73 1170,75 1174,77 1178,79 1183,81 1187,83 1191,86 1195,88 1199,91 1204,94 1208,97 1212,100 1216,104 1220,107 1225,111 1229,115 1233,119 1237,123 1242,127 1246,132 1250,136 1254,141 1258,146 1263,151 1267,156 1271,161 1275,167 1279,172 1284,178 1288,183 1292,189 1296,195 1301,201 1305,207 1309,213 1313,219 1317,226 1322,232 1326,239 1330,245 "/>
<polyline fill="none" opacity="1" stroke="#008000" stroke-width="2" points="70,42 74,52 78,63 83,73 87,83 91,93 95,103 99,112 104,121 108,131 112,140 116,149 121,157 125,166 129,175 133,183 137,191 142,199 146,207 150,215 154,223 158,230 163,238 167,245 171,252 175,259 180,266 184,273 188,280 192,286 196,293 201,299 205,305 209,312 213,318 217,324 222,330 226,335 230,341 234,347 239,352 243,357 247,363 251,368 255,373 260,378 264,383 268,388 272,393 276,398 281,402 285,407 289,411 293,416 298,420 302,424 306,429 310,433 314,437 319,441 323,445 327,449 331,453 335,456 340,460 344,464 348,467 352,471 357,474 361,478 365,481 369,484 373,487 378,491 382,494 386,497 390,500 394,503 399,506 403,509 407,511 411,514 416,517 420,520 424,522 428,525 432,527 437,530 441,532 445,535 449,537 453,539 458,542 462,544 466,546 470,549 475,551 479,553 483,555 487,557 491,559 496,561 500,563 504,565 508,567 512,569 517,570 521,572 525,574 529,576 534,577 538,579 542,581 546,582 550,584 555,586 559,587 563,589 567,590 571,592 576,593 580,595 584,596 588,597 593,599 597,600 601,601 605,603 609,604 614,605 618,606 622,608 626,609 630,610 635,611 639,612 643,613 647,614 652,615 656,617 660,618 664,619 668,620 673,621 677,622 681,622 685,623 689,624 694,625 698,626 702,627 706,628 711,629 715,630 719,630 723,631 727,632 732,633 736,634 740,634 744,635 748,636 753,637 757,637 761,638 765,639 770,639 774,640 778,641 782,641 786,642 791,642 795,643 799,644 803,644 807,645 812,645 816,646 820,647 824,647 829,648 833,648 837,649 841,649 845,650 850,650 854,651 858,651 862,652 866,652 871,653 875,653 879,653 883,654 888,654 892,655 896,655 900,655 904,656 909,656 913,657 917,657 921,657 925,658 930,658 934,658 938,659 942,659 947,659 951,660 955,660 959,660 963,661 968,661 972,661 976,662 980,662 984,662 989,663 993,663 997,663 1001,663 1006,664 1010,664 1014,664 1018,664 1022,665 1027,665 1031,665 1035,665 1039,666 1043,666 1048,666 1052,666 1056,666 1060,667 1065,667 1069,667 1073,667 1077,668 1081,668 1086,668 1090,668 1094,668 1098,668 1102,669 1107,669 1111,669 1115,669 1119,669 1124,669 1128,670 1132,670 1136,670 1140,670 1145,670 1149,670 1153,671 1157,671 1161,671 1166,671 1170,671 1174,671 1178,671 1183,672 1187,672 1191,672 1195,672 1199,672 1204,672 1208,672 1212,672 1216,673 1220,673 1225,673 1229,673 1233,673 1237,673 1242,673 1246,673 1250,673 1254,673 1258,674 1263,674 1267,674 1271,674 1275,674 1279,674 1284,674 1288,674 1292,674 1296,674 1301,674 1305,675 1309,675 1313,675 1317,675 1322,675 1326,675 1330,675 "/>
<polyline fill="none" opacity="1" stroke="#008000" stroke-width="2" points="70,350 74,336 78,322 83,308 87,294 91,280 95,266 99,253 104,240 108,227 112,214 116,202 121,190 125,179 129,167 133,157 137,147 142,137 146,128 150,120 154,112 158,104 163,97 167,91 171,86 175,81 180,77 184,74 188,71 192,69 196,67 201,67 205,67 209,68 213,69 217,71 222,74 226,78 230,82 234,87 239,92 243,99 247,105 251,113 255,121 260,130 264,139 268,148 272,159 276,169 281,180 285,192 289,204 293,216 298,229 302,242 306,255 310,269 314,282 319,296 323,310 327,324 331,338 335,352 340,367 344,381 348,395 352,409 357,422 361,436 365,449 369,463 373,475 378,488 382,500 386,512 390,523 394,534 399,545 403,555 407,564 411,573 416,582 420,590 424,597 428,604 432,610 437,615 441,620 445,624 449,627 453,630 458,632 462,633 466,633 470,633 475,632 479,631 483,628 487,625 491,622 496,617 500,612 504,607 508,600 512,593 517,586 521,578 525,569 529,560 534,550 538,540 542,529 546,518 550,506 555,494 559,482 563,469 567,456 571,443 576,429 580,415 584,402 588,388 593,374 597,359 601,345 605,331 609,317 614,303 618,289 622,275 626,262 630,248 635,235 639,222 643,210 647,198 652,186 656,175 660,164 664,153 668,143 673,134 677,125 681,117 685,109 689,102 694,95 698,89 702,84 706,80 711,76 715,73 719,70 723,68 727,67 732,67 736,67 740,68 744,70 748,72 753,75 757,79 761,83 765,89 770,94 774,101 778,108 782,116 786,124 791,133 795,142 799,152 803,162 807,173 812,184 816,196 820,208 824,220 829,233 833,246 837,260 841,273 845,287 850,301 854,315 858,329 862,343 866,357 871,371 875,385 879,399 883,413 888,427 892,441 896,454 900,467 904,480 909,492 913,504 917,516 921,527 925,538 930,548 934,558 938,568 942,576 947,585 951,592 955,599 959,606 963,611 968,617 972,621 976,625 980,628 984,630 989,632 993,633 997,633 1001,633 1006,632 1010,630 1014,627 1018,624 1022,620 1027,616 1031,610 1035,605 1039,598 1043,591 1048,583 1052,575 1056,566 1060,556 1065,546 1069,536 1073,525 1077,514 1081,502 1086,490 1090,477 1094,465 1098,451 1102,438 1107,425 1111,411 1115,397 1119,383 1124,369 1128,355 1132,340 1136,326 1140,312 1145,298 1149,284 1153,271 1157,257 1161,244 1166,231 1170,218 1174,206 1178,194 1183,182 1187,171 1191,160 1195,150 1199,140 1204,131 1208,122 1212,114 1216,107 1220,100 1225,93 1229,88 1233,83 1237,78 1242,75 1246,72 1250,69 1254,68 1258,67 1263,67 1267,67 1271,68 1275,70 1279,73 1284,76 1288,80 1292,85 1296,90 1301,96 1305,103 1309,110 1313,118 1317,127 1322,136 1326,145 1330,155 "/>
<polyline fill="none" opacity="1" stroke="#008000" stroke-width="2" points="70,67 74,67 78,67 83,67 87,68 91,69 95,70 99,71 104,72 108,74 112,75 116,77 121,79 125,81 129,84 133,86 137,89 142,92 146,95 150,98 154,101 158,105 163,108 167,112 171,116 175,120 180,124 184,129 188,133 192,138 196,143 201,148 205,153 209,158 213,163 217,168 222,174 226,179 230,185 234,191 239,197 243,203 247,209 251,215 255,221 260,228 264,234 268,241 272,247 276,254 281,261 285,267 289,274 293,281 298,288 302,295 306,302 310,309 314,316 319,323 323,330 327,337 331,344 335,351 340,358 344,365 348,372 352,379 357,387 361,394 365,401 369,407 373,414 378,421 382,428 386,435 390,442 394,448 399,455 403,461 407,468 411,474 416,481 420,487 424,493 428,499 432,505 437,511 441,517 445,522 449,528 453,533 458,539 462,544 466,549 470,554 475,559 479,564 483,568 487,573 491,577 496,581 500,585 504,589 508,593 512,596 517,600 521,603 525,606 529,609 534,612 538,615 542,617 546,619 550,621 555,623 559,625 563,627 567,628 571,629 576,630 580,631 584,632 588,633 593,633 597,633 601,633 605,633 609,633 614,632 618,632 622,631 626,630 630,629 635,627 639,626 643,624 647,622 652,620 656,618 660,615 664,613 668,610 673,607 677,604 681,601 685,597 689,594 694,590 698,586 702,582 706,578 711,574 715,570 719,565 723,560 727,556 732,551 736,546 740,541 744,535 748,530 753,524 757,519 761,513 765,507 770,501 774,495 778,489 782,483 786,476 791,470 795,464 799,457 803,450 807,444 812,437 816,430 820,423 824,417 829,410 833,403 837,396 841,389 845,382 850,375 854,368 858,361 862,354 866,346 871,339 875,332 879,325 883,318 888,311 892,304 896,297 900,290 904,283 909,276 913,270 917,263 921,256 925,249 930,243 934,236 938,230 942,224 947,217 951,211 955,205 959,199 963,193 968,187 972,181 976,176 980,170 984,165 989,159 993,154 997,149 1001,144 1006,139 1010,135 1014,130 1018,126 1022,122 1027,117 1031,113 1035,110 1039,106 1043,102 1048,99 1052,96 1056,93 1060,90 1065,87 1069,85 1073,82 1077,80 1081,78 1086,76 1090,74 1094,73 1098,71 1102,70 1107,69 1111,68 1115,68 1119,67 1124,67 1128,67 1132,67 1136,67 1140,67 1145,68 1149,69 1153,70 1157,71 1161,72 1166,73 1170,75 1174,77 1178,79 1183,81 1187,83 1191,86 1195,88 1199,91 1204,94 1208,97 1212,100 1216,104 1220,107 1225,111 1229,115 1233,119 1237,123 1242,127 1246,132 1250,136 1254,141 1258,146 1263,151 1267,156 1271,161 1275,167 1279,172 1284,178 1288,183 1292,189 1296,195 1301,201 1305,207 1309,213 1313,219 1317,226 1322,232 1326,239 1330,245 "/>
<polyline fill="none" opacity="1" stroke="#800080" stroke-width="2" points="70,42 74,52 78,63 83,73 87,83 91,93 95,103 99,112 104,121 108,131 112,140 116,149 121,157 125,166 129,175 133,183 137,191 142,199 146,207 150,215 154,223 158,230 163,238 167,245 171,252 175,259 180,266 184,273 188,280 192,286 196,293 201,299 205,305 209,312 213,318 217,324 222,330 226,335 230,341 234,347 239,352 243,357 247,363 251,368 255,373 260,378 264,383 268,388 272,393 276,398 281,402 285,407 289,411 293,416 298,420 302,424 306,429 310,433 314,437 319,441 323,445 327,449 331,453 335,456 340,460 344,464 348,467 352,471 357,474 361,478 365,481 369,484 373,487 378,491 382,494 386,497 390,500 394,503 399,506 403,509 407,511 411,514 416,517 420,520 424,522 428,525 432,527 437,530 441,532 445,535 449,537 453,539 458,542 462,544 466,546 470,549 475,551 479,553 483,555 487,557 491,559 496,561 500,563 504,565 508,567 512,569 517,570 521,572 525,574 529,576 534,577 538,579 542,581 546,582 550,584 555,586 559,587 563,589 567,590 571,592 576,593 580,595 584,596 588,597 593,599 597,600 601,601 605,603 609,604 614,605 618,606 622,608 626,609 630,610 635,611 639,612 643,613 647,614 652,615 656,617 660,618 664,619 668,620 673,621 677,622 681,622 685,623 689,624 694,625 698,626 702,627 706,628 711,629 715,630 719,630 723,631 727,632 732,633 736,634 740,634 744,635 748,636 753,637 757,637 761,638 765,639 770,639 774,640 778,641 782,641 786,642 791,642 795,643 799,644 803,644 807,645 812,645 816,646 820,647 824,647 829,648 833,648 837,649 841,649 845,650 850,650 854,651 858,651 862,652 866,652 871,653 875,653 879,653 883,654 888,654 892,655 896,655 900,655 904,656 909,656 913,657 917,657 921,657 925,658 930,658 934,658 938,659 942,659 947,659 951,660 955,660 959,660 963,661 968,661 972,661 976,662 980,662 984,662 989,663 993,663 997,663 1001,663 1006,664 1010,664 1014,664 1018,664 1022,665 1027,665 1031,665 1035,665 1039,666 1043,666 1048,666 1052,666 1056,666 1060,667 1065,667 1069,667 1073,667 1077,668 1081,668 1086,668 1090,668 1094,668 1098,668 1102,669 1107,669 1111,669 1115,669 1119,669 1124,669 1128,670 1132,670 1136,670 1140,670 1145,670 1149,670 1153,671 1157,671 1161,671 1166,671 1170,671 1174,671 1178,671 1183,672 1187,672 1191,672 1195,672 1199,672 1204,672 1208,672 1212,672 1216,673 1220,673 1225,673 1229,673 1233,673 1237,673 1242,673 1246,673 1250,673 1254,673 1258,674 1263,674 1267,674 1271,674 1275,674 1279,674 1284,674 1288,674 1292,674 1296,674 1301,674 1305,675 1309,675 1313,675 1317,675 1322,675 1326,675 1330,675 "/>
<polyline fill="none" opacity="1" stroke="#800080" stroke-width="2" points="70,350 74,336 78,322 83,308 87,294 91,280 95,266 99,253 104,240 108,227 112,214 116,202 121,190 125,179 129,167 133,157 137,147 142,137 146,128 150,120 154,112 158,104 163,97 167,91 171,86 175,81 180,77 184,74 188,71 192,69 196,67 201,67 205,67 209,68 213,69 217,71 222,74 226,78 230,82 234,87 239,92 243,99 247,105 251,113 255,121 260,130 264,139 268,148 272,159 276,169 281,180 285,192 289,204 293,216 298,229 302,242 306,255 310,269 314,282 319,296 323,310 327,324 331,338 335,352 340,367 344,381 348,395 352,409 357,422 361,436 365,449 369,463 373,475 378,488 382,500 386,512 390,523 394,534 399,545 403,555 407,564 411,573 416,582 420,590 424,597 428,604 432,610 437,615 441,620 445,624 449,627 453,630 458,632 462,633 466,633 470,633 475,632 479,631 483,628 487,625 491,622 496,617 500,612 504,607 508,600 512,593 517,586 521,578 525,569 529,560 534,550 538,540 542,529 546,518 550,506 555,494 559,482 563,469 567,456 571,443 576,429 580,415 584,402 588,388 593,374 597,359 601,345 605,331 609,317 614,303 618,289 622,275 626,262 630,248 635,235 639,222 643,210 647,198 652,186 656,175 660,164 664,153 668,143 673,134 677,125 681,117 685,109 689,102 694,95 698,89 702,84 706,80 711,76 715,73 719,70 723,68 727,67 732,67 736,67 740,68 744,70 748,72 753,75 757,79 761,83 765,89 770,94 774,101 778,108 782,116 786,124 791,133 795,142 799,152 803,162 807,173 812,184 816,196 820,208 824,220 829,233 833,246 837,260 841,273 845,287 850,301 854,315 858,329 862,343 866,357 871,371 875,385 879,399 883,413 888,427 892,441 896,454 900,467 904,480 909,492 913,504 917,516 921,527 925,538 930,548 934,558 938,568 942,576 947,585 951,592 955,599 959,606 963,611 968,617 972,621 976,625 980,628 984,630 989,632 993,633 997,633 1001,633 1006,632 1010,630 1014,627 1018,624 1022,620 1027,616 1031,610 1035,605 1039,598 1043,591 1048,583 1052,575 1056,566 1060,556 1065,546 1069,536 1073,525 1077,514 1081,502 1086,490 1090,477 1094,465 1098,451 1102,438 1107,425 1111,411 1115,397 1119,383 1124,369 1128,355 1132,340 1136,326 1140,312 1145,298 1149,284 1153,271 1157,257 1161,244 1166,231 1170,218 1174,206 1178,194 1183,182 1187,171 1191,160 1195,150 1199,140 1204,131 1208,122 1212,114 1216,107 1220,100 1225,93 1229,88 1233,83 1237,78 1242,75 1246,72 1250,69 1254,68 1258,67 1263,67 1267,67 1271,68 1275,70 1279,73 1284,76 1288,80 1292,85 1296,90 1301,96 1305,103 1309,110 1313,118 1317,127 1322,136 1326,145 1330,155 "/>
<polyline fill="none" opacity="1" stroke="#800080" stroke-width="2" points="70,67 74,67 78,67 83,67 87,68 91,69 95,70 99,71 104,72 108,74 112,75 116,77 121,79 125,81 129,84 133,86 137,89 142,92 146,95 150,98 154,101 158,105 163,108 167,112 171,116 175,120 180,124 184,129 188,133 192,138 196,143 201,148 205,153 209,158 213,163 217,168 222,174 226,179 230,185 234,191 239,197 243,203 247,209 251,215 255,221 260,228 264,234 268,241 272,247 276,254 281,261 285,267 289,274 293,281 298,288 302,295 306,302 310,309 314,316 319,323 323,330 327,337 331,344 335,351 340,358 344,365 348,372 352,379 357,387 361,394 365,401 369,407 373,414 378,421 382,428 386,435 390,442 394,448 399,455 403,461 407,468 411,474 416,481 420,487 424,493 428,499 432,505 437,511 441,517 445,522 449,528 453,533 458,539 462,544 466,549 470,554 475,559 479,564 483,568 487,573 491,577 496,581 500,585 504,589 508,593 512,596 517,600 521,603 525,606 529,609 534,612 538,615 542,617 546,619 550,621 555,623 559,625 563,627 567,628 571,629 576,630 580,631 584,632 588,633 593,633 597,633 601,633 605,633 609,633 614,632 618,632 622,631 626,630 630,629 635,627 639,626 643,624 647,622 652,620 656,618 660,615 664,613 668,610 673,607 677,604 681,601 685,597 689,594 694,590 698,586 702,582 706,578 711,574 715,570 719,565 723,560 727,556 732,551 736,546 740,541 744,535 748,530 753,524 757,519 761,513 765,507 770,501 774,495 778,489 782,483 786,476 791,470 795,464 799,457 803,450 807,444 812,437 816,430 820,423 824,417 829,410 833,403 837,396 841,389 845,382 850,375 854,368 858,361 862,354 866,346 871,339 875,332 879,325 883,318 888,311 892,304 896,297 900,290 904,283 909,276 913,270 917,263 921,256 925,249 930,243 934,236 938,230 942,224 947,217 951,211 955,205 959,199 963,193 968,187 972,181 976,176 980,170 984,165 989,159 993,154 997,149 1001,144 1006,139 1010,135 1014,130 1018,126 1022,122 1027,117 1031,113 1035,110 1039,106 1043,102 1048,99 1052,96 1056,93 1060,90 1065,87 1069,85 1073,82 1077,80 1081,78 1086,76 1090,74 1094,73 1098,71 1102,70 1107,69 1111,68 1115,68 1119,67 1124,67 1128,67 1132,67 1136,67 1140,67 1145,68 1149,69 1153,70 1157,71 1161,72 1166,73 1170,75 1174,77 1178,79 1183,81 1187,83 1191,86 1195,88 1199,91 1204,94 1208,97 1212,100 1216,104 1220,107 1225,111 1229,115 1233,119 1237,123 1242,127 1246,132 1250,136 1254,141 1258,146 1263,151 1267,156 1271,161 1275,167 1279,172 1284,178 1288,183 1292,189 1296,195 1301,201 1305,207 1309,213 1313,219 1317,226 1322,232 1326,239 1330,245 "/>
<polyline fill="none" opacity="1" stroke="#3B82F6" stroke-width="1" points="70,10 70,690 "/>
<polyline fill="none" opacity="1" stroke="#3B82F6" stroke-width="1" points="70,690 64,690 "/>
<polyline fill="none" opacity="1" stroke="#3B82F6" stroke-width="1" points="70,679 67,679 "/>
<polyline fill="none" opacity="1" stroke="#3B82F6" stroke-width="1" points="70,669 67,669 "/>
<polyline fill="none" opacity="1" stroke="#3B82F6" stroke-width="1" points="70,658 67,658 "/>
<polyline fill="none" opacity="1" stroke="#3B82F6" stroke-width="1" points="70,648 64,648 "/>
<polyline fill="none" opacity="1" stroke="#3B82F6" stroke-width="1" points="70,637 67,637 "/>
<polyline fill="none" opacity="1" stroke="#3B82F6" stroke-width="1" points="70,626 67,626 "/>
<polyline fill="none" opacity="1" stroke="#3B82F6" stroke-width="1" points="70,616 67,616 "/>
<polyline fill="none" opacity="1" stroke="#3B82F6" stroke-width="1" points="70,605 64,605 "/>
<polyline fill="none" opacity="1" stroke="#3B82F6" stroke-width="1" points="70,594 67,594 "/>
<polyline fill="none" opacity="1" stroke="#3B82F6" stroke-width="1" points="70,584 67,584 "/>
<polyline fill="none" opacity="1" stroke="#3B82F6" stroke-width="1" points="70,573 67,573 "/>
<polyline fill="none" opacity="1" stroke="#3B82F6" stroke-width="1" points="70,563 64,563 "/>
<polyline fill="none" opacity="1" stroke="#3B82F6" stroke-width="1" points="70,552 67,552 "/>
<polyline fill="none" opacity="1" stroke="#3B82F6" stroke-width="1" points="70,541 67,541 "/>
<polyline fill="none" opacity="1" stroke="#3B82F6" stroke-width="1" points="70,531 67,531 "/>
<polyline fill="none" opacity="1" stroke="#3B82F6" stroke-width="1" points="70,520 64,520 "/>
<polyline fill="none" opacity="1" stroke="#3B82F6" stroke-width="1" points="70,509 67,509 "/>
<polyline fill="none" opacity="1" stroke="#3B82F6" stroke-width="1" points="70,499 67,499 "/>
<polyline fill="none" opacity="1" stroke="#3B82F6" stroke-width="1" points="70,488 67,488 "/>
<polyline fill="none" opacity="1" stroke="#3B82F6" stroke-width="1" points="70,478 64,478 "/>
<polyline fill="none" opacity="1" stroke="#3B82F6" stroke-width="1" points="70,467 67,467 "/>
<polyline fill="none" opacity="1" stroke="#3B82F6" stroke-width="1" points="70,456 67,456 "/>
<polyline fill="none" opacity="1" stroke="#3B82F6" stroke-width="1" points="70,446 67,446 "/>
<polyline fill="none" opacity="1" stroke="#3B82F6" stroke-width="1" points="70,435 64,435 "/>
<polyline fill="none" opacity="1" stroke="#3B82F6" stroke-width="1" points="70,424 67,424 "/>
<polyline fill="none" opacity="1" stroke="#3B82F6" stroke-width="1" points="70,414 67,414 "/>
<polyline fill="none" opacity="1" stroke="#3B82F6" stroke-width="1" points="70,403 67,403 "/>
<polyline fill="none" opacity="1" stroke="#3B82F6" stroke-width="1" points="70,393 64,393 "/>
<polyline fill="none" opacity="1" stroke="#3B82F6" stroke-width="1" points="70,382 67,382 "/>
<polyline fill="none" opacity="1" stroke="#3B82F6" stroke-width="1" points="70,371 67,371 "/>
<polyline fill="none" opacity="1" stroke="#3B82F6" stroke-width="1" points="70,361 67,361 "/>
<polyline fill="none" opacity="1" stroke="#3B82F6" stroke-width="1" points="70,350 64,350 "/>
<polyline fill="none" opacity="1" stroke="#3B82F6" stroke-width="1" points="70,339 67,339 "/>
<polyline fill="none" opacity="1" stroke="#3B82F6" stroke-width="1" points="70,329 67,329 "/>
<polyline fill="none" opacity="1" stroke="#3B82F6" stroke-width="1" points="70,318 67,318 "/>
<polyline fill="none" opacity="1" stroke="#3B82F6" stroke-width="1" points="70,308 64,308 "/>
<polyline fill="none" opacity="1" stroke="#3B82F6" stroke-width="1" points="70,297 67,297 "/>
<polyline fill="none" opacity="1" stroke="#3B82F6" stroke-width="1" points="70,286 67,286 "/>
<polyline fill="none" opacity="1" stroke="#3B82F6" stroke-width="1" points="70,276 67,276 "/>
<polyline fill="none" opacity="1" stroke="#3B82F6" stroke-width="1" points="70,265 64,265 "/>
<polyline fill="none" opacity="1" stroke="#3B82F6" stroke-width="1" points="70,254 67,254 "/>
<polyline fill="none" opacity="1" stroke="#3B82F6" stroke-width="1" points="70,244 67,244 "/>
<polyline fill="none" opacity="1" stroke="#3B82F6" stroke-width="1" points="70,233 67,233 "/>
<polyline fill="none" opacity="1" stroke="#3B82F6" stroke-width="1" points="70,223 64,223 "/>
<polyline fill="none" opacity="1" stroke="#3B82F6" stroke-width="1" points="70,212 67,212 "/>
<polyline fill="none" opacity="1" stroke="#3B82F6" stroke-width="1" points="70,201 67,201 "/>
<polyline fill="none" opacity="1" stroke="#3B82F6" stroke-width="1" points="70,191 67,191 "/>
<polyline fill="none" opacity="1" stroke="#3B82F6" stroke-width="1" points="70,180 64,180 "/>
<polyline fill="none" opacity="1" stroke="#3B82F6" stroke-width="1" points="70,169 67,169 "/>
<polyline fill="none" opacity="1" stroke="#3B82F6" stroke-width="1" points="70,159 67,159 "/>
<polyline fill="none" opacity="1" stroke="#3B82F6" stroke-width="1" points="70,148 67,148 "/>
<polyline fill="none" opacity="1" stroke="#3B82F6" stroke-width="1" points="70,138 64,138 "/>
<polyline fill="none" opacity="1" stroke="#3B82F6" stroke-width="1" points="70,127 67,127 "/>
<polyline fill="none" opacity="1" stroke="#3B82F6" stroke-width="1" points="70,116 67,116 "/>
<polyline fill="none" opacity="1" stroke="#3B82F6" stroke-width="1" points="70,106 67,106 "/>
<polyline fill="none" opacity="1" stroke="#3B82F6" stroke-width="1" points="70,95 64,95 "/>
<polyline fill="none" opacity="1" stroke="#3B82F6" stroke-width="1" points="70,84 67,84 "/>
<polyline fill="none" opacity="1" stroke="#3B82F6" stroke-width="1" points="70,74 67,74 "/>
<polyline fill="none" opacity="1" stroke="#3B82F6" stroke-width="1" points="70,63 67,63 "/>
<polyline fill="none" opacity="1" stroke="#3B82F6" stroke-width="1" points="70,53 64,53 "/>
<polyline fill="none" opacity="1" stroke="#3B82F6" stroke-width="1" points="70,42 67,42 "/>
<polyline fill="none" opacity="1" stroke="#3B82F6" stroke-width="1" points="70,31 67,31 "/>
<polyline fill="none" opacity="1" stroke="#3B82F6" stroke-width="1" points="70,21 67,21 "/>
<polyline fill="none" opacity="1" stroke="#3B82F6" stroke-width="1" points="70,10 64,10 "/>
<polyline fill="none" opacity="1" stroke="#A855F7" stroke-width="1" points="10,10 10,690 "/>
<polyline fill="none" opacity="1" stroke="#A855F7" stroke-width="1" points="10,690 4,690 "/>
<polyline fill="none" opacity="1" stroke="#A855F7" stroke-width="1" points="10,679 7,679 "/>
<polyline fill="none" opacity="1" stroke="#A855F7" stroke-width="1" points="10,667 7,667 "/>
<polyline fill="none" opacity="1" stroke="#A855F7" stroke-width="1" points="10,656 7,656 "/>
<polyline fill="none" opacity="1" stroke="#A855F7" stroke-width="1" points="10,645 7,645 "/>
<polyline fill="none" opacity="1" stroke="#A855F7" stroke-width="1" points="10,633 4,633 "/>
<polyline fill="none" opacity="1" stroke="#A855F7" stroke-width="1" points="10,622 7,622 "/>
<polyline fill="none" opacity="1" stroke="#A855F7" stroke-width="1" points="10,611 7,611 "/>
<polyline fill="none" opacity="1" stroke="#A855F7" stroke-width="1" points="10,599 7,599 "/>
<polyline fill="none" opacity="1" stroke="#A855F7" stroke-width="1" points="10,588 7,588 "/>
<polyline fill="none" opacity="1" stroke="#A855F7" stroke-width="1" points="10,577 4,577 "/>
<polyline fill="none" opacity="1" stroke="#A855F7" stroke-width="1" points="10,565 7,565 "/>
<polyline fill="none" opacity="1" stroke="#A855F7" stroke-width="1" points="10,554 7,554 "/>
<polyline fill="none" opacity="1" stroke="#A855F7" stroke-width="1" points="10,543 7,543 "/>
<polyline fill="none" opacity="1" stroke="#A855F7" stroke-width="1" points="10,531 7,531 "/>
<polyline fill="none" opacity="1" stroke="#A855F7" stroke-width="1" points="10,520 4,520 "/>
<polyline fill="none" opacity="1" stroke="#A855F7" stroke-width="1" points="10,509 7,509 "/>
<polyline fill="none" opacity="1" stroke="#A855F7" stroke-width="1" points="10,497 7,497 "/>
<polyline fill="none" opacity="1" stroke="#A855F7" stroke-width="1" points="10,486 7,486 "/>
<polyline fill="none" opacity="1" stroke="#A855F7" stroke-width="1" points="10,475 7,475 "/>
<polyline fill="none" opacity="1" stroke="#A855F7" stroke-width="1" points="10,463 4,463 "/>
<polyline fill="none" opacity="1" stroke="#A855F7" stroke-width="1" points="10,452 7,452 "/>
<polyline fill="none" opacity="1" stroke="#A855F7" stroke-width="1" points="10,441 7,441 "/>
<polyline fill="none" opacity="1" stroke="#A855F7" stroke-width="1" points="10,429 7,429 "/>
<polyline fill="none" opacity="1" stroke="#A855F7" stroke-width="1" points="10,418 7,418 "/>
<polyline fill="none" opacity="1" stroke="#A855F7" stroke-width="1" points="10,407 4,407 "/>
<polyline fill="none" opacity="1" stroke="#A855F7" stroke-width="1" points="10,395 7,395 "/>
<polyline fill="none" opacity="1" stroke="#A855F7" stroke-width="1" points="10,384 7,384 "/>
<polyline fill="none" opacity="1" stroke="#A855F7" stroke-width="1" points="10,373 7,373 "/>
<polyline fill="none" opacity="1" stroke="#A855F7" stroke-width="1" points="10,361 7,361 "/>
<polyline fill="none" opacity="1" stroke="#A855F7" stroke-width="1" points="10,350 4,350 "/>
<polyline fill="none" opacity="1" stroke="#A855F7" stroke-width="1" points="10,339 7,339 "/>
<polyline fill="none" opacity="1" stroke="#A855F7" stroke-width="1" points="10,327 7,327 "/>
<polyline fill="none" opacity="1" stroke="#A855F7" stroke-width="1" points="10,316 7,316 "/>
<polyline fill="none" opacity="1" stroke="#A855F7" stroke-width="1" points="10,305 7,305 "/>
<polyline fill="none" opacity="1" stroke="#A855F7" stroke-width="1" points="10,293 4,293 "/>
<polyline fill="none" opacity="1" stroke="#A855F7" stroke-width="1" points="10,282 7,282 "/>
<polyline fill="none" opacity="1" stroke="#A855F7" stroke-width="1" points="10,271 7,271 "/>
<polyline fill="none" opacity="1" stroke="#A855F7" stroke-width="1" points="10,259 7,259 "/>
<polyline fill="none" opacity="1" stroke="#A855F7" stroke-width="1" points="10,248 7,248 "/>
<polyline fill="none" opacity="1" stroke="#A855F7" stroke-width="1" points="10,237 4,237 "/>
<polyline fill="none" opacity="1" stroke="#A855F7" stroke-width="1" points="10,225 7,225 "/>
<polyline fill="none" opacity="1" stroke="#A855F7" stroke-width="1" points="10,214 7,214 "/>
<polyline fill="none" opacity="1" stroke="#A855F7" stroke-width="1" points="10,203 7,203 "/>
<polyline fill="none" opacity="1" stroke="#A855F7" stroke-width="1" points="10,191 7,191 "/>
<polyline fill="none" opacity="1" stroke="#A855F7" stroke-width="1" points="10,180 4,180 "/>
<polyline fill="none" opacity="1" stroke="#A855F7" stroke-width="1" points="10,169 7,169 "/>
<polyline fill="none" opacity="1" stroke="#A855F7" stroke-width="1" points="10,157 7,157 "/>
<polyline fill="none" opacity="1" stroke="#A855F7" stroke-width="1" points="10,146 7,146 "/>
<polyline fill="none" opacity="1" stroke="#A855F7" stroke-width="1" points="10,135 7,135 "/>
<polyline fill="none" opacity="1" stroke="#A855F7" stroke-width="1" points="10,123 4,123 "/>
<polyline fill="none" opacity="1" stroke="#A855F7" stroke-width="1" points="10,112 7,112 "/>
<polyline fill="none" opacity="1" stroke="#A855F7" stroke-width="1" points="10,101 7,101 "/>
<polyline fill="none" opacity="1" stroke="#A855F7" stroke-width="1" points="10,89 7,89 "/>
<polyline fill="none" opacity="1" stroke="#A855F7" stroke-width="1" points="10,78 7,78 "/>
<polyline fill="none" opacity="1" stroke="#A855F7" stroke-width="1" points="10,67 4,67 "/>
<polyline fill="none" opacity="1" stroke="#A855F7" stroke-width="1" points="10,55 7,55 "/>
<polyline fill="none" opacity="1" stroke="#A855F7" stroke-width="1" points="10,44 7,44 "/>
<polyline fill="none" opacity="1" stroke="#A855F7" stroke-width="1" points="10,33 7,33 "/>
<polyline fill="none" opacity="1" stroke="#A855F7" stroke-width="1" points="10,21 7,21 "/>
<polyline fill="none" opacity="1" stroke="#A855F7" stroke-width="1" points="10,10 4,10 "/>
<polyline fill="none" opacity="1" stroke="#DC2626" stroke-width="1" points="1330,10 1330,690 "/>
<polyline fill="none" opacity="1" stroke="#DC2626" stroke-width="1" points="1330,690 1336,690 "/>
<polyline fill="none" opacity="1" stroke="#DC2626" stroke-width="1" points="1330,676 1333,676 "/>
<polyline fill="none" opacity="1" stroke="#DC2626" stroke-width="1" points="1330,662 1333,662 "/>
<polyline fill="none" opacity="1" stroke="#DC2626" stroke-width="1" points="1330,647 1333,647 "/>
<polyline fill="none" opacity="1" stroke="#DC2626" stroke-width="1" points="1330,633 1336,633 "/>
<polyline fill="none" opacity="1" stroke="#DC2626" stroke-width="1" points="1330,619 1333,619 "/>
<polyline fill="none" opacity="1" stroke="#DC2626" stroke-width="1" points="1330,605 1333,605 "/>
<polyline fill="none" opacity="1" stroke="#DC2626" stroke-width="1" points="1330,591 1333,591 "/>
<polyline fill="none" opacity="1" stroke="#DC2626" stroke-width="1" points="1330,577 1336,577 "/>
<polyline fill="none" opacity="1" stroke="#DC2626" stroke-width="1" points="1330,563 1333,563 "/>
<polyline fill="none" opacity="1" stroke="#DC2626" stroke-width="1" points="1330,548 1333,548 "/>
<polyline fill="none" opacity="1" stroke="#DC2626" stroke-width="1" points="1330,534 1333,534 "/>
<polyline fill="none" opacity="1" stroke="#DC2626" stroke-width="1" points="1330,520 1336,520 "/>
<polyline fill="none" opacity="1" stroke="#DC2626" stroke-width="1" points="1330,506 1333,506 "/>
<polyline fill="none" opacity="1" stroke="#DC2626" stroke-width="1" points="1330,492 1333,492 "/>
<polyline fill="none" opacity="1" stroke="#DC2626" stroke-width="1" points="1330,478 1333,478 "/>
<polyline fill="none" opacity="1" stroke="#DC2626" stroke-width="1" points="1330,463 1336,463 "/>
<polyline fill="none" opacity="1" stroke="#DC2626" stroke-width="1" points="1330,449 1333,449 "/>
<polyline fill="none" opacity="1" stroke="#DC2626" stroke-width="1" points="1330,435 1333,435 "/>
<polyline fill="none" opacity="1" stroke="#DC2626" stroke-width="1" points="1330,421 1333,421 "/>
<polyline fill="none" opacity="1" stroke="#DC2626" stroke-width="1" points="1330,407 1336,407 "/>
<polyline fill="none" opacity="1" stroke="#DC2626" stroke-width="1" points="1330,393 1333,393 "/>
<polyline fill="none" opacity="1" stroke="#DC2626" stroke-width="1" points="1330,378 1333,378 "/>
<polyline fill="none" opacity="1" stroke="#DC2626" stroke-width="1" points="1330,364 1333,364 "/>
<polyline fill="none" opacity="1" stroke="#DC2626" stroke-width="1" points="1330,350 1336,350 "/>
<polyline fill="none" opacity="1" stroke="#DC2626" stroke-width="1" points="1330,336 1333,336 "/>
<polyline fill="none" opacity="1" stroke="#DC2626" stroke-width="1" points="1330,322 1333,322 "/>
<polyline fill="none" opacity="1" stroke="#DC2626" stroke-width="1" points="1330,308 1333,308 "/>
<polyline fill="none" opacity="1" stroke="#DC2626" stroke-width="1" points="1330,293 1336,293 "/>
<polyline fill="none" opacity="1" stroke="#DC2626" stroke-width="1" points="1330,279 1333,279 "/>
<polyline fill="none" opacity="1" stroke="#DC2626" stroke-width="1" points="1330,265 1333,265 "/>
<polyline fill="none" opacity="1" stroke="#DC2626" stroke-width="1" points="1330,251 1333,251 "/>
<polyline fill="none" opacity="1" stroke="#DC2626" stroke-width="1" points="1330,237 1336,237 "/>
<polyline fill="none" opacity="1" stroke="#DC2626" stroke-width="1" points="1330,223 1333,223 "/>
<polyline fill="none" opacity="1" stroke="#DC2626" stroke-width="1" points="1330,208 1333,208 "/>
<polyline fill="none" opacity="1" stroke="#DC2626" stroke-width="1" points="1330,194 1333,194 "/>
<polyline fill="none" opacity="1" stroke="#DC2626" stroke-width="1" points="1330,180 1336,180 "/>
<polyline fill="none" opacity="1" stroke="#DC2626" stroke-width="1" points="1330,166 1333,166 "/>
<polyline fill="none" opacity="1" stroke="#DC2626" stroke-width="1" points="1330,152 1333,152 "/>
<polyline fill="none" opacity="1" stroke="#DC2626" stroke-width="1" points="1330,138 1333,138 "/>
<polyline fill="none" opacity="1" stroke="#DC2626" stroke-width="1" points="1330,123 1336,123 "/>
<polyline fill="none" opacity="1" stroke="#DC2626" stroke-width="1" points="1330,109 1333,109 "/>
<polyline fill="none" opacity="1" stroke="#DC2626" stroke-width="1" points="1330,95 1333,95 "/>
<polyline fill="none" opacity="1" stroke="#DC2626" stroke-width="1" points="1330,81 1333,81 "/>
<polyline fill="none" opacity="1" stroke="#DC2626" stroke-width="1" points="1330,67 1336,67 "/>
<polyline fill="none" opacity="1" stroke="#DC2626" stroke-width="1" points="1330,53 1333,53 "/>
<polyline fill="none" opacity="1" stroke="#DC2626" stroke-width="1" points="1330,38 1333,38 "/>
<polyline fill="none" opacity="1" stroke="#DC2626" stroke-width="1" points="1330,24 1333,24 "/>
<polyline fill="none" opacity="1" stroke="#DC2626" stroke-width="1" points="1330,10 1336,10 "/>
<polyline fill="none" opacity="1" stroke="#475569" stroke-width="1" points="70,690 70,696 "/>
<polyline fill="none" opacity="1" stroke="#475569" stroke-width="1" points="112,690 112,693 "/>
<polyline fill="none" opacity="1" stroke="#475569" stroke-width="1" points="154,690 154,693 "/>
<polyline fill="none" opacity="1" stroke="#475569" stroke-width="1" points="196,690 196,693 "/>
<polyline fill="none" opacity="1" stroke="#475569" stroke-width="1" points="239,690 239,696 "/>
<polyline fill="none" opacity="1" stroke="#475569" stroke-width="1" points="281,690 281,693 "/>
<polyline fill="none" opacity="1" stroke="#475569" stroke-width="1" points="323,690 323,693 "/>
<polyline fill="none" opacity="1" stroke="#475569" stroke-width="1" points="365,690 365,693 "/>
<polyline fill="none" opacity="1" stroke="#475569" stroke-width="1" points="407,690 407,696 "/>
<polyline fill="none" opacity="1" stroke="#475569" stroke-width="1" points="449,690 449,693 "/>
<polyline fill="none" opacity="1" stroke="#475569" stroke-width="1" points="491,690 491,693 "/>
<polyline fill="none" opacity="1" stroke="#475569" stroke-width="1" points="534,690 534,693 "/>
<polyline fill="none" opacity="1" stroke="#475569" stroke-width="1" points="576,690 576,696 "/>
<polyline fill="none" opacity="1" stroke="#475569" stroke-width="1" points="618,690 618,693 "/>
<polyline fill="none" opacity="1" stroke="#475569" stroke-width="1" points="660,690 660,693 "/>
<polyline fill="none" opacity="1" stroke="#475569" stroke-width="1" points="702,690 702,693 "/>
<polyline fill="none" opacity="1" stroke="#475569" stroke-width="1" points="744,690 744,696 "/>
<polyline fill="none" opacity="1" stroke="#475569" stroke-width="1" points="786,690 786,693 "/>
<polyline fill="none" opacity="1" stroke="#475569" stroke-width="1" points="829,690 829,693 "/>
<polyline fill="none" opacity="1" stroke="#475569" stroke-width="1" points="871,690 871,693 "/>
<polyline fill="none" opacity="1" stroke="#475569" stroke-width="1" points="913,690 913,696 "/>
<polyline fill="none" opacity="1" stroke="#475569" stroke-width="1" points="955,690 955,693 "/>
<polyline fill="none" opacity="1" stroke="#475569" stroke-width="1" points="997,690 997,693 "/>
<polyline fill="none" opacity="1" stroke="#475569" stroke-width="1" points="1039,690 1039,693 "/>
<polyline fill="none" opacity="1" stroke="#475569" stroke-width="1" points="1081,690 1081,696 "/>
<polyline fill="none" opacity="1" stroke="#475569" stroke-width="1" points="1124,690 1124,693 "/>
<polyline fill="none" opacity="1" stroke="#475569" stroke-width="1" points="1166,690 1166,693 "/>
<polyline fill="none" opacity="1" stroke="#475569" stroke-width="1" points="1208,690 1208,693 "/>
<polyline fill="none" opacity="1" stroke="#475569" stroke-width="1" points="1250,690 1250,696 "/>
<polyline fill="none" opacity="1" stroke="#475569" stroke-width="1" points="1292,690 1292,693 "/>
</svg>
