<svg width="1400" height="700" viewBox="0 0 1400 700" xmlns="http://www.w3.org/2000/svg">
<rect x="0" y="0" width="1400" height="700" opacity="1" fill="#FFFFFF" stroke="none"/>
<polyline fill="none" opacity="0.4" stroke="#C8C8C8" stroke-width="0.5" stroke-dasharray="4,4" points="10,689 10,10 "/>
<polyline fill="none" opacity="0.4" stroke="#C8C8C8" stroke-width="0.5" stroke-dasharray="4,4" points="194,689 194,10 "/>
<polyline fill="none" opacity="0.4" stroke="#C8C8C8" stroke-width="0.5" stroke-dasharray="4,4" points="378,689 378,10 "/>
<polyline fill="none" opacity="0.4" stroke="#C8C8C8" stroke-width="0.5" stroke-dasharray="4,4" points="563,689 563,10 "/>
<polyline fill="none" opacity="0.4" stroke="#C8C8C8" stroke-width="0.5" stroke-dasharray="4,4" points="747,689 747,10 "/>
<polyline fill="none" opacity="0.4" stroke="#C8C8C8" stroke-width="0.5" stroke-dasharray="4,4" points="932,689 932,10 "/>
<polyline fill="none" opacity="0.4" stroke="#C8C8C8" stroke-width="0.5" stroke-dasharray="4,4" points="1116,689 1116,10 "/>
<polyline fill="none" opacity="0.4" stroke="#C8C8C8" stroke-width="0.5" stroke-dasharray="4,4" points="1301,689 1301,10 "/>
<polyline fill="none" opacity="0.4" stroke="#C8C8C8" stroke-width="0.5" stroke-dasharray="4,4" points="10,689 1389,689 "/>
<polyline fill="none" opacity="0.4" stroke="#C8C8C8" stroke-width="0.5" stroke-dasharray="4,4" points="10,647 1389,647 "/>
<polyline fill="none" opacity="0.4" stroke="#C8C8C8" stroke-width="0.5" stroke-dasharray="4,4" points="10,605 1389,605 "/>
<polyline fill="none" opacity="0.4" stroke="#C8C8C8" stroke-width="0.5" stroke-dasharray="4,4" points="10,562 1389,562 "/>
<polyline fill="none" opacity="0.4" stroke="#C8C8C8" stroke-width="0.5" stroke-dasharray="4,4" points="10,520 1389,520 "/>
<polyline fill="none" opacity="0.4" stroke="#C8C8C8" stroke-width="0.5" stroke-dasharray="4,4" points="10,477 1389,477 "/>
<polyline fill="none" opacity="0.4" stroke="#C8C8C8" stroke-width="0.5" stroke-dasharray="4,4" points="10,435 1389,435 "/>
<polyline fill="none" opacity="0.4" stroke="#C8C8C8" stroke-width="0.5" stroke-dasharray="4,4" points="10,392 1389,392 "/>
<polyline fill="none" opacity="0.4" stroke="#C8C8C8" stroke-width="0.5" stroke-dasharray="4,4" points="10,350 1389,350 "/>
<polyline fill="none" opacity="0.4" stroke="#C8C8C8" stroke-width="0.5" stroke-dasharray="4,4" points="10,308 1389,308 "/>
<polyline fill="none" opacity="0.4" stroke="#C8C8C8" stroke-width="0.5" stroke-dasharray="4,4" points="10,265 1389,265 "/>
<polyline fill="none" opacity="0.4" stroke="#C8C8C8" stroke-width="0.5" stroke-dasharray="4,4" points="10,223 1389,223 "/>
<polyline fill="none" opacity="0.4" stroke="#C8C8C8" stroke-width="0.5" stroke-dasharray="4,4" points="10,180 1389,180 "/>
<polyline fill="none" opacity="0.4" stroke="#C8C8C8" stroke-width="0.5" stroke-dasharray="4,4" points="10,138 1389,138 "/>
<polyline fill="none" opacity="0.4" stroke="#C8C8C8" stroke-width="0.5" stroke-dasharray="4,4" points="10,95 1389,95 "/>
<polyline fill="none" opacity="0.4" stroke="#C8C8C8" stroke-width="0.5" stroke-dasharray="4,4" points="10,53 1389,53 "/>
<polyline fill="none" opacity="0.4" stroke="#C8C8C8" stroke-width="0.5" stroke-dasharray="4,4" points="10,10 1389,10 "/>
<polyline fill="none" opacity="1" stroke="#475569" stroke-width="1" points="10,689 1389,689 "/>
<polyline fill="none" opacity="1" stroke="#1E90FF" stroke-width="2" points="10,42 15,52 19,63 24,73 28,83 33,93 38,103 42,112 47,121 52,131 56,140 61,149 65,157 70,166 75,175 79,183 84,191 88,199 93,207 98,215 102,223 107,230 112,238 116,245 121,252 125,259 130,266 135,273 139,280 144,286 148,293 153,299 158,305 162,312 167,318 172,324 176,330 181,335 185,341 190,347 195,352 199,357 204,363 208,368 213,373 218,378 222,383 227,388 232,393 236,398 241,402 245,407 250,411 255,416 259,420 264,424 268,429 273,433 278,437 282,441 287,445 292,449 296,453 301,456 305,460 310,464 315,467 319,471 324,474 328,478 333,481 338,484 342,487 347,491 352,494 356,497 361,500 365,503 370,506 375,509 379,511 384,514 388,517 393,520 398,522 402,525 407,527 412,530 416,532 421,535 425,537 430,539 435,542 439,544 444,546 448,549 453,551 458,553 462,555 467,557 472,559 476,561 481,563 485,565 490,567 495,569 499,570 504,572 508,574 513,576 518,577 522,579 527,581 532,582 536,584 541,586 545,587 550,589 555,590 559,592 564,593 568,595 573,596 578,597 582,599 587,600 592,601 596,603 601,604 605,605 610,606 615,608 619,609 624,610 628,611 633,612 638,613 642,614 647,615 652,617 656,618 661,619 665,620 670,621 675,622 679,622 684,623 688,624 693,625 698,626 702,627 707,628 712,629 716,630 721,630 725,631 730,632 735,633 739,634 744,634 748,635 753,636 758,637 762,637 767,638 772,639 776,639 781,640 785,641 790,641 795,642 799,642 804,643 808,644 813,644 818,645 822,645 827,646 832,647 836,647 841,648 845,648 850,649 855,649 859,650 864,650 868,651 873,651 878,652 882,652 887,653 892,653 896,653 901,654 905,654 910,655 915,655 919,655 924,656 928,656 933,657 938,657 942,657 947,658 952,658 956,658 961,659 965,659 970,659 975,660 979,660 984,660 988,661 993,661 998,661 1002,662 1007,662 1012,662 1016,663 1021,663 1025,663 1030,663 1035,664 1039,664 1044,664 1048,664 1053,665 1058,665 1062,665 1067,665 1072,666 1076,666 1081,666 1085,666 1090,666 1095,667 1099,667 1104,667 1108,667 1113,668 1118,668 1122,668 1127,668 1132,668 1136,668 1141,669 1145,669 1150,669 1155,669 1159,669 1164,669 1168,670 1173,670 1178,670 1182,670 1187,670 1192,670 1196,671 1201,671 1205,671 1210,671 1215,671 1219,671 1224,671 1228,672 1233,672 1238,672 1242,672 1247,672 1252,672 1256,672 1261,672 1265,673 1270,673 1275,673 1279,673 1284,673 1288,673 1293,673 1298,673 1302,673 1307,673 1312,674 1316,674 1321,674 1325,674 1330,674 1335,674 1339,674 1344,674 1348,674 1353,674 1358,674 1362,675 1367,675 1372,675 1376,675 1381,675 1385,675 1390,675 "/>
<polyline fill="none" opacity="1" stroke="#1E90FF" stroke-width="2" points="10,566 15,563 19,560 24,557 28,554 33,551 38,548 42,545 47,542 52,539 56,537 61,534 65,531 70,529 75,527 79,524 84,522 88,520 93,518 98,516 102,514 107,513 112,511 116,510 121,509 125,508 130,507 135,506 139,505 144,505 148,505 153,505 158,505 162,505 167,505 172,506 176,506 181,507 185,508 190,509 195,510 199,512 204,513 208,515 213,516 218,518 222,520 227,522 232,525 236,527 241,529 245,532 250,534 255,537 259,540 264,543 268,546 273,549 278,552 282,555 287,558 292,561 296,564 301,567 305,570 310,573 315,576 319,579 324,582 328,585 333,588 338,591 342,594 347,596 352,599 356,602 361,604 365,607 370,609 375,611 379,613 384,615 388,617 393,619 398,620 402,622 407,623 412,624 416,625 421,626 425,627 430,627 435,628 439,628 444,628 448,628 453,628 458,628 462,627 467,626 472,626 476,625 481,624 485,622 490,621 495,619 499,618 504,616 508,614 513,612 518,610 522,608 527,605 532,603 536,600 541,598 545,595 550,592 555,589 559,587 564,584 568,581 573,578 578,575 582,572 587,568 592,565 596,562 601,559 605,556 610,553 615,550 619,547 624,544 628,541 633,539 638,536 642,533 647,531 652,528 656,526 661,523 665,521 670,519 675,517 679,515 684,514 688,512 693,511 698,510 702,508 707,507 712,507 716,506 721,505 725,505 730,505 735,505 739,505 744,505 748,505 753,506 758,506 762,507 767,508 772,509 776,511 781,512 785,514 790,515 795,517 799,519 804,521 808,523 813,525 818,528 822,530 827,533 832,535 836,538 841,541 845,544 850,547 855,550 859,553 864,556 868,559 873,562 878,565 882,568 887,571 892,574 896,577 901,580 905,583 910,586 915,589 919,592 924,595 928,597 933,600 938,603 942,605 947,607 952,610 956,612 961,614 965,616 970,618 975,619 979,621 984,622 988,623 993,625 998,626 1002,626 1007,627 1012,628 1016,628 1021,628 1025,628 1030,628 1035,628 1039,627 1044,627 1048,626 1053,625 1058,624 1062,623 1067,622 1072,620 1076,619 1081,617 1085,615 1090,613 1095,611 1099,609 1104,607 1108,605 1113,602 1118,600 1122,597 1127,594 1132,591 1136,589 1141,586 1145,583 1150,580 1155,577 1159,574 1164,570 1168,567 1173,564 1178,561 1182,558 1187,555 1192,552 1196,549 1201,546 1205,543 1210,540 1215,538 1219,535 1224,532 1228,530 1233,527 1238,525 1242,523 1247,521 1252,519 1256,517 1261,515 1265,513 1270,512 1275,510 1279,509 1284,508 1288,507 1293,506 1298,506 1302,505 1307,505 1312,505 1316,505 1321,505 1325,505 1330,505 1335,506 1339,507 1344,508 1348,509 1353,510 1358,511 1362,512 1367,514 1372,516 1376,518 1381,520 1385,522 1390,524 "/>
<polyline fill="none" opacity="1" stroke="#1E90FF" stroke-width="2" points="10,72 15,72 19,72 24,72 28,72 33,72 38,72 42,72 47,72 52,72 56,72 61,72 65,72 70,72 75,72 79,72 84,72 88,72 93,72 98,72 102,72 107,72 112,72 116,72 121,72 125,72 130,72 135,72 139,72 144,72 148,72 153,72 158,72 162,72 167,72 172,72 176,72 181,72 185,72 190,72 195,72 199,72 204,72 208,72 213,72 218,72 222,72 227,72 232,72 236,72 241,72 245,72 250,72 255,72 259,72 264,72 268,72 273,72 278,72 282,72 287,72 292,72 296,72 301,72 305,72 310,72 315,72 319,72 324,72 328,72 333,72 338,72 342,72 347,72 352,72 356,72 361,72 365,72 370,72 375,72 379,72 384,72 388,72 393,72 398,72 402,72 407,72 412,72 416,72 421,72 425,72 430,72 435,72 439,72 444,72 448,72 453,72 458,72 462,72 467,72 472,72 476,72 481,72 485,72 490,72 495,72 499,72 504,72 508,72 513,72 518,72 522,72 527,72 532,72 536,72 541,72 545,72 550,72 555,72 559,72 564,72 568,72 573,72 578,72 582,72 587,72 592,72 596,72 601,72 605,72 610,72 615,72 619,72 624,72 628,72 633,72 638,72 642,72 647,72 652,72 656,72 661,72 665,72 670,72 675,72 679,72 684,72 688,72 693,72 698,72 702,72 707,72 712,72 716,72 721,72 725,72 730,72 735,72 739,72 744,72 748,72 753,72 758,72 762,72 767,72 772,72 776,72 781,72 785,72 790,72 795,72 799,72 804,72 808,72 813,72 818,72 822,72 827,72 832,72 836,72 841,72 845,72 850,72 855,72 859,72 864,72 868,72 873,72 878,72 882,72 887,72 892,72 896,72 901,72 905,72 910,72 915,72 919,72 924,72 928,72 933,72 938,72 942,72 947,72 952,72 956,72 961,72 965,72 970,72 975,72 979,72 984,72 988,72 993,72 998,72 1002,72 1007,72 1012,72 1016,72 1021,72 1025,72 1030,72 1035,72 1039,72 1044,72 1048,72 1053,72 1058,72 1062,72 1067,72 1072,72 1076,72 1081,72 1085,72 1090,72 1095,72 1099,72 1104,72 1108,72 1113,72 1118,72 1122,72 1127,72 1132,72 1136,72 1141,72 1145,72 1150,72 1155,72 1159,72 1164,72 1168,72 1173,72 1178,72 1182,72 1187,72 1192,72 1196,72 1201,72 1205,72 1210,72 1215,72 1219,72 1224,72 1228,72 1233,72 1238,72 1242,72 1247,72 1252,72 1256,72 1261,72 1265,72 1270,72 1275,72 1279,72 1284,72 1288,72 1293,72 1298,72 1302,72 1307,72 1312,72 1316,72 1321,72 1325,72 1330,72 1335,72 1339,72 1344,72 1348,72 1353,72 1358,72 1362,72 1367,72 1372,72 1376,72 1381,72 1385,72 1390,72 " stroke-dasharray="8,4"/>
<polyline fill="none" opacity="1" stroke="#FF0000" stroke-width="2" points="10,42 15,52 19,63 24,73 28,83 33,93 38,103 42,112 47,121 52,131 56,140 61,149 65,157 70,166 75,175 79,183 84,191 88,199 93,207 98,215 102,223 107,230 112,238 116,245 121,252 125,259 130,266 135,273 139,280 144,286 148,293 153,299 158,305 162,312 167,318 172,324 176,330 181,335 185,341 190,347 195,352 199,357 204,363 208,368 213,373 218,378 222,383 227,388 232,393 236,398 241,402 245,407 250,411 255,416 259,420 264,424 268,429 273,433 278,437 282,441 287,445 292,449 296,453 301,456 305,460 310,464 315,467 319,471 324,474 328,478 333,481 338,484 342,487 347,491 352,494 356,497 361,500 365,503 370,506 375,509 379,511 384,514 388,517 393,520 398,522 402,525 407,527 412,530 416,532 421,535 425,537 430,539 435,542 439,544 444,546 448,549 453,551 458,553 462,555 467,557 472,559 476,561 481,563 485,565 490,567 495,569 499,570 504,572 508,574 513,576 518,577 522,579 527,581 532,582 536,584 541,586 545,587 550,589 555,590 559,592 564,593 568,595 573,596 578,597 582,599 587,600 592,601 596,603 601,604 605,605 610,606 615,608 619,609 624,610 628,611 633,612 638,613 642,614 647,615 652,617 656,618 661,619 665,620 670,621 675,622 679,622 684,623 688,624 693,625 698,626 702,627 707,628 712,629 716,630 721,630 725,631 730,632 735,633 739,634 744,634 748,635 753,636 758,637 762,637 767,638 772,639 776,639 781,640 785,641 790,641 795,642 799,642 804,643 808,644 813,644 818,645 822,645 827,646 832,647 836,647 841,648 845,648 850,649 855,649 859,650 864,650 868,651 873,651 878,652 882,652 887,653 892,653 896,653 901,654 905,654 910,655 915,655 919,655 924,656 928,656 933,657 938,657 942,657 947,658 952,658 956,658 961,659 965,659 970,659 975,660 979,660 984,660 988,661 993,661 998,661 1002,662 1007,662 1012,662 1016,663 1021,663 1025,663 1030,663 1035,664 1039,664 1044,664 1048,664 1053,665 1058,665 1062,665 1067,665 1072,666 1076,666 1081,666 1085,666 1090,666 1095,667 1099,667 1104,667 1108,667 1113,668 1118,668 1122,668 1127,668 1132,668 1136,668 1141,669 1145,669 1150,669 1155,669 1159,669 1164,669 1168,670 1173,670 1178,670 1182,670 1187,670 1192,670 1196,671 1201,671 1205,671 1210,671 1215,671 1219,671 1224,671 1228,672 1233,672 1238,672 1242,672 1247,672 1252,672 1256,672 1261,672 1265,673 1270,673 1275,673 1279,673 1284,673 1288,673 1293,673 1298,673 1302,673 1307,673 1312,674 1316,674 1321,674 1325,674 1330,674 1335,674 1339,674 1344,674 1348,674 1353,674 1358,674 1362,675 1367,675 1372,675 1376,675 1381,675 1385,675 1390,675 "/>
<polyline fill="none" opacity="1" stroke="#FF0000" stroke-width="2" points="10,566 15,563 19,560 24,557 28,554 33,551 38,548 42,545 47,542 52,539 56,537 61,534 65,531 70,529 75,527 79,524 84,522 88,520 93,518 98,516 102,514 107,513 112,511 116,510 121,509 125,508 130,507 135,506 139,505 144,505 148,505 153,505 158,505 162,505 167,505 172,506 176,506 181,507 185,508 190,509 195,510 199,512 204,513 208,515 213,516 218,518 222,520 227,522 232,525 236,527 241,529 245,532 250,534 255,537 259,540 264,543 268,546 273,549 278,552 282,555 287,558 292,561 296,564 301,567 305,570 310,573 315,576 319,579 324,582 328,585 333,588 338,591 342,594 347,596 352,599 356,602 361,604 365,607 370,609 375,611 379,613 384,615 388,617 393,619 398,620 402,622 407,623 412,624 416,625 421,626 425,627 430,627 435,628 439,628 444,628 448,628 453,628 458,628 462,627 467,626 472,626 476,625 481,624 485,622 490,621 495,619 499,618 504,616 508,614 513,612 518,610 522,608 527,605 532,603 536,600 541,598 545,595 550,592 555,589 559,587 564,584 568,581 573,578 578,575 582,572 587,568 592,565 596,562 601,559 605,556 610,553 615,550 619,547 624,544 628,541 633,539 638,536 642,533 647,531 652,528 656,526 661,523 665,521 670,519 675,517 679,515 684,514 688,512 693,511 698,510 702,508 707,507 712,507 716,506 721,505 725,505 730,505 735,505 739,505 744,505 748,505 753,506 758,506 762,507 767,508 772,509 776,511 781,512 785,514 790,515 795,517 799,519 804,521 808,523 813,525 818,528 822,530 827,533 832,535 836,538 841,541 845,544 850,547 855,550 859,553 864,556 868,559 873,562 878,565 882,568 887,571 892,574 896,577 901,580 905,583 910,586 915,589 919,592 924,595 928,597 933,600 938,603 942,605 947,607 952,610 956,612 961,614 965,616 970,618 975,619 979,621 984,622 988,623 993,625 998,626 1002,626 1007,627 1012,628 1016,628 1021,628 1025,628 1030,628 1035,628 1039,627 1044,627 1048,626 1053,625 1058,624 1062,623 1067,622 1072,620 1076,619 1081,617 1085,615 1090,613 1095,611 1099,609 1104,607 1108,605 1113,602 1118,600 1122,597 1127,594 1132,591 1136,589 1141,586 1145,583 1150,580 1155,577 1159,574 1164,570 1168,567 1173,564 1178,561 1182,558 1187,555 1192,552 1196,549 1201,546 1205,543 1210,540 1215,538 1219,535 1224,532 1228,530 1233,527 1238,525 1242,523 1247,521 1252,519 1256,517 1261,515 1265,513 1270,512 1275,510 1279,509 1284,508 1288,507 1293,506 1298,506 1302,505 1307,505 1312,505 1316,505 1321,505 1325,505 1330,505 1335,506 1339,507 1344,508 1348,509 1353,510 1358,511 1362,512 1367,514 1372,516 1376,518 1381,520 1385,522 1390,524 "/>
<polyline fill="none" opacity="1" stroke="#FF0000" stroke-width="2" points="10,72 15,72 19,72 24,72 28,72 33,72 38,72 42,72 47,72 52,72 56,72 61,72 65,72 70,72 75,72 79,72 84,72 88,72 93,72 98,72 102,72 107,72 112,72 116,72 121,72 125,72 130,72 135,72 139,72 144,72 148,72 153,72 158,72 162,72 167,72 172,72 176,72 181,72 185,72 190,72 195,72 199,72 204,72 208,72 213,72 218,72 222,72 227,72 232,72 236,72 241,72 245,72 250,72 255,72 259,72 264,72 268,72 273,72 278,72 282,72 287,72 292,72 296,72 301,72 305,72 310,72 315,72 319,72 324,72 328,72 333,72 338,72 342,72 347,72 352,72 356,72 361,72 365,72 370,72 375,72 379,72 384,72 388,72 393,72 398,72 402,72 407,72 412,72 416,72 421,72 425,72 430,72 435,72 439,72 444,72 448,72 453,72 458,72 462,72 467,72 472,72 476,72 481,72 485,72 490,72 495,72 499,72 504,72 508,72 513,72 518,72 522,72 527,72 532,72 536,72 541,72 545,72 550,72 555,72 559,72 564,72 568,72 573,72 578,72 582,72 587,72 592,72 596,72 601,72 605,72 610,72 615,72 619,72 624,72 628,72 633,72 638,72 642,72 647,72 652,72 656,72 661,72 665,72 670,72 675,72 679,72 684,72 688,72 693,72 698,72 702,72 707,72 712,72 716,72 721,72 725,72 730,72 735,72 739,72 744,72 748,72 753,72 758,72 762,72 767,72 772,72 776,72 781,72 785,72 790,72 795,72 799,72 804,72 808,72 813,72 818,72 822,72 827,72 832,72 836,72 841,72 845,72 850,72 855,72 859,72 864,72 868,72 873,72 878,72 882,72 887,72 892,72 896,72 901,72 905,72 910,72 915,72 919,72 924,72 928,72 933,72 938,72 942,72 947,72 952,72 956,72 961,72 965,72 970,72 975,72 979,72 984,72 988,72 993,72 998,72 1002,72 1007,72 1012,72 1016,72 1021,72 1025,72 1030,72 1035,72 1039,72 1044,72 1048,72 1053,72 1058,72 1062,72 1067,72 1072,72 1076,72 1081,72 1085,72 1090,72 1095,72 1099,72 1104,72 1108,72 1113,72 1118,72 1122,72 1127,72 1132,72 1136,72 1141,72 1145,72 1150,72 1155,72 1159,72 1164,72 1168,72 1173,72 1178,72 1182,72 1187,72 1192,72 1196,72 1201,72 1205,72 1210,72 1215,72 1219,72 1224,72 1228,72 1233,72 1238,72 1242,72 1247,72 1252,72 1256,72 1261,72 1265,72 1270,72 1275,72 1279,72 1284,72 1288,72 1293,72 1298,72 1302,72 1307,72 1312,72 1316,72 1321,72 1325,72 1330,72 1335,72 1339,72 1344,72 1348,72 1353,72 1358,72 1362,72 1367,72 1372,72 1376,72 1381,72 1385,72 1390,72 " stroke-dasharray="8,4"/>
<polyline fill="none" opacity="1" stroke="#008000" stroke-width="2" points="10,42 15,52 19,63 24,73 28,83 33,93 38,103 42,112 47,121 52,131 56,140 61,149 65,157 70,166 75,175 79,183 84,191 88,199 93,207 98,215 102,223 107,230 112,238 116,245 121,252 125,259 130,266 135,273 139,280 144,286 148,293 153,299 158,305 162,312 167,318 172,324 176,330 181,335 185,341 190,347 195,352 199,357 204,363 208,368 213,373 218,378 222,383 227,388 232,393 236,398 241,402 245,407 250,411 255,416 259,420 264,424 268,429 273,433 278,437 282,441 287,445 292,449 296,453 301,456 305,460 310,464 315,467 319,471 324,474 328,478 333,481 338,484 342,487 347,491 352,494 356,497 361,500 365,503 370,506 375,509 379,511 384,514 388,517 393,520 398,522 402,525 407,527 412,530 416,532 421,535 425,537 430,539 435,542 439,544 444,546 448,549 453,551 458,553 462,555 467,557 472,559 476,561 481,563 485,565 490,567 495,569 499,570 504,572 508,574 513,576 518,577 522,579 527,581 532,582 536,584 541,586 545,587 550,589 555,590 559,592 564,593 568,595 573,596 578,597 582,599 587,600 592,601 596,603 601,604 605,605 610,606 615,608 619,609 624,610 628,611 633,612 638,613 642,614 647,615 652,617 656,618 661,619 665,620 670,621 675,622 679,622 684,623 688,624 693,625 698,626 702,627 707,628 712,629 716,630 721,630 725,631 730,632 735,633 739,634 744,634 748,635 753,636 758,637 762,637 767,638 772,639 776,639 781,640 785,641 790,641 795,642 799,642 804,643 808,644 813,644 818,645 822,645 827,646 832,647 836,647 841,648 845,648 850,649 855,649 859,650 864,650 868,651 873,651 878,652 882,652 887,653 892,653 896,653 901,654 905,654 910,655 915,655 919,655 924,656 928,656 933,657 938,657 942,657 947,658 952,658 956,658 961,659 965,659 970,659 975,660 979,660 984,660 988,661 993,661 998,661 1002,662 1007,662 1012,662 1016,663 1021,663 1025,663 1030,663 1035,664 1039,664 1044,664 1048,664 1053,665 1058,665 1062,665 1067,665 1072,666 1076,666 1081,666 1085,666 1090,666 1095,667 1099,667 1104,667 1108,667 1113,668 1118,668 1122,668 1127,668 1132,668 1136,668 1141,669 1145,669 1150,669 1155,669 1159,669 1164,669 1168,670 1173,670 1178,670 1182,670 1187,670 1192,670 1196,671 1201,671 1205,671 1210,671 1215,671 1219,671 1224,671 1228,672 1233,672 1238,672 1242,672 1247,672 1252,672 1256,672 1261,672 1265,673 1270,673 1275,673 1279,673 1284,673 1288,673 1293,673 1298,673 1302,673 1307,673 1312,674 1316,674 1321,674 1325,674 1330,674 1335,674 1339,674 1344,674 1348,674 1353,674 1358,674 1362,675 1367,675 1372,675 1376,675 1381,675 1385,675 1390,675 "/>
<polyline fill="none" opacity="1" stroke="#008000" stroke-width="2" points="10,566 15,563 19,560 24,557 28,554 33,551 38,548 42,545 47,542 52,539 56,537 61,534 65,531 70,529 75,527 79,524 84,522 88,520 93,518 98,516 102,514 107,513 112,511 116,510 121,509 125,508 130,507 135,506 139,505 144,505 148,505 153,505 158,505 162,505 167,505 172,506 176,506 181,507 185,508 190,509 195,510 199,512 204,513 208,515 213,516 218,518 222,520 227,522 232,525 236,527 241,529 245,532 250,534 255,537 259,540 264,543 268,546 273,549 278,552 282,555 287,558 292,561 296,564 301,567 305,570 310,573 315,576 319,579 324,582 328,585 333,588 338,591 342,594 347,596 352,599 356,602 361,604 365,607 370,609 375,611 379,613 384,615 388,617 393,619 398,620 402,622 407,623 412,624 416,625 421,626 425,627 430,627 435,628 439,628 444,628 448,628 453,628 458,628 462,627 467,626 472,626 476,625 481,624 485,622 490,621 495,619 499,618 504,616 508,614 513,612 518,610 522,608 527,605 532,603 536,600 541,598 545,595 550,592 555,589 559,587 564,584 568,581 573,578 578,575 582,572 587,568 592,565 596,562 601,559 605,556 610,553 615,550 619,547 624,544 628,541 633,539 638,536 642,533 647,531 652,528 656,526 661,523 665,521 670,519 675,517 679,515 684,514 688,512 693,511 698,510 702,508 707,507 712,507 716,506 721,505 725,505 730,505 735,505 739,505 744,505 748,505 753,506 758,506 762,507 767,508 772,509 776,511 781,512 785,514 790,515 795,517 799,519 804,521 808,523 813,525 818,528 822,530 827,533 832,535 836,538 841,541 845,544 850,547 855,550 859,553 864,556 868,559 873,562 878,565 882,568 887,571 892,574 896,577 901,580 905,583 910,586 915,589 919,592 924,595 928,597 933,600 938,603 942,605 947,607 952,610 956,612 961,614 965,616 970,618 975,619 979,621 984,622 988,623 993,625 998,626 1002,626 1007,627 1012,628 1016,628 1021,628 1025,628 1030,628 1035,628 1039,627 1044,627 1048,626 1053,625 1058,624 1062,623 1067,622 1072,620 1076,619 1081,617 1085,615 1090,613 1095,611 1099,609 1104,607 1108,605 1113,602 1118,600 1122,597 1127,594 1132,591 1136,589 1141,586 1145,583 1150,580 1155,577 1159,574 1164,570 1168,567 1173,564 1178,561 1182,558 1187,555 1192,552 1196,549 1201,546 1205,543 1210,540 1215,538 1219,535 1224,532 1228,530 1233,527 1238,525 1242,523 1247,521 1252,519 1256,517 1261,515 1265,513 1270,512 1275,510 1279,509 1284,508 1288,507 1293,506 1298,506 1302,505 1307,505 1312,505 1316,505 1321,505 1325,505 1330,505 1335,506 1339,507 1344,508 1348,509 1353,510 1358,511 1362,512 1367,514 1372,516 1376,518 1381,520 1385,522 1390,524 "/>
<polyline fill="none" opacity="1" stroke="#008000" stroke-width="2" points="10,72 15,72 19,72 24,72 28,72 33,72 38,72 42,72 47,72 52,72 56,72 61,72 65,72 70,72 75,72 79,72 84,72 88,72 93,72 98,72 102,72 107,72 112,72 116,72 121,72 125,72 130,72 135,72 139,72 144,72 148,72 153,72 158,72 162,72 167,72 172,72 176,72 181,72 185,72 190,72 195,72 199,72 204,72 208,72 213,72 218,72 222,72 227,72 232,72 236,72 241,72 245,72 250,72 255,72 259,72 264,72 268,72 273,72 278,72 282,72 287,72 292,72 296,72 301,72 305,72 310,72 315,72 319,72 324,72 328,72 333,72 338,72 342,72 347,72 352,72 356,72 361,72 365,72 370,72 375,72 379,72 384,72 388,72 393,72 398,72 402,72 407,72 412,72 416,72 421,72 425,72 430,72 435,72 439,72 444,72 448,72 453,72 458,72 462,72 467,72 472,72 476,72 481,72 485,72 490,72 495,72 499,72 504,72 508,72 513,72 518,72 522,72 527,72 532,72 536,72 541,72 545,72 550,72 555,72 559,72 564,72 568,72 573,72 578,72 582,72 587,72 592,72 596,72 601,72 605,72 610,72 615,72 619,72 624,72 628,72 633,72 638,72 642,72 647,72 652,72 656,72 661,72 665,72 670,72 675,72 679,72 684,72 688,72 693,72 698,72 702,72 707,72 712,72 716,72 721,72 725,72 730,72 735,72 739,72 744,72 748,72 753,72 758,72 762,72 767,72 772,72 776,72 781,72 785,72 790,72 795,72 799,72 804,72 808,72 813,72 818,72 822,72 827,72 832,72 836,72 841,72 845,72 850,72 855,72 859,72 864,72 868,72 873,72 878,72 882,72 887,72 892,72 896,72 901,72 905,72 910,72 915,72 919,72 924,72 928,72 933,72 938,72 942,72 947,72 952,72 956,72 961,72 965,72 970,72 975,72 979,72 984,72 988,72 993,72 998,72 1002,72 1007,72 1012,72 1016,72 1021,72 1025,72 1030,72 1035,72 1039,72 1044,72 1048,72 1053,72 1058,72 1062,72 1067,72 1072,72 1076,72 1081,72 1085,72 1090,72 1095,72 1099,72 1104,72 1108,72 1113,72 1118,72 1122,72 1127,72 1132,72 1136,72 1141,72 1145,72 1150,72 1155,72 1159,72 1164,72 1168,72 1173,72 1178,72 1182,72 1187,72 1192,72 1196,72 1201,72 1205,72 1210,72 1215,72 1219,72 1224,72 1228,72 1233,72 1238,72 1242,72 1247,72 1252,72 1256,72 1261,72 1265,72 1270,72 1275,72 1279,72 1284,72 1288,72 1293,72 1298,72 1302,72 1307,72 1312,72 1316,72 1321,72 1325,72 1330,72 1335,72 1339,72 1344,72 1348,72 1353,72 1358,72 1362,72 1367,72 1372,72 1376,72 1381,72 1385,72 1390,72 " stroke-dasharray="8,4"/>
<polyline fill="none" opacity="1" stroke="#800080" stroke-width="2" points="10,42 15,52 19,63 24,73 28,83 33,93 38,103 42,112 47,121 52,131 56,140 61,149 65,157 70,166 75,175 79,183 84,191 88,199 93,207 98,215 102,223 107,230 112,238 116,245 121,252 125,259 130,266 135,273 139,280 144,286 148,293 153,299 158,305 162,312 167,318 172,324 176,330 181,335 185,341 190,347 195,352 199,357 204,363 208,368 213,373 218,378 222,383 227,388 232,393 236,398 241,402 245,407 250,411 255,416 259,420 264,424 268,429 273,433 278,437 282,441 287,445 292,449 296,453 301,456 305,460 310,464 315,467 319,471 324,474 328,478 333,481 338,484 342,487 347,491 352,494 356,497 361,500 365,503 370,506 375,509 379,511 384,514 388,517 393,520 398,522 402,525 407,527 412,530 416,532 421,535 425,537 430,539 435,542 439,544 444,546 448,549 453,551 458,553 462,555 467,557 472,559 476,561 481,563 485,565 490,567 495,569 499,570 504,572 508,574 513,576 518,577 522,579 527,581 532,582 536,584 541,586 545,587 550,589 555,590 559,592 564,593 568,595 573,596 578,597 582,599 587,600 592,601 596,603 601,604 605,605 610,606 615,608 619,609 624,610 628,611 633,612 638,613 642,614 647,615 652,617 656,618 661,619 665,620 670,621 675,622 679,622 684,623 688,624 693,625 698,626 702,627 707,628 712,629 716,630 721,630 725,631 730,632 735,633 739,634 744,634 748,635 753,636 758,637 762,637 767,638 772,639 776,639 781,640 785,641 790,641 795,642 799,642 804,643 808,644 813,644 818,645 822,645 827,646 832,647 836,647 841,648 845,648 850,649 855,649 859,650 864,650 868,651 873,651 878,652 882,652 887,653 892,653 896,653 901,654 905,654 910,655 915,655 919,655 924,656 928,656 933,657 938,657 942,657 947,658 952,658 956,658 961,659 965,659 970,659 975,660 979,660 984,660 988,661 993,661 998,661 1002,662 1007,662 1012,662 1016,663 1021,663 1025,663 1030,663 1035,664 1039,664 1044,664 1048,664 1053,665 1058,665 1062,665 1067,665 1072,666 1076,666 1081,666 1085,666 1090,666 1095,667 1099,667 1104,667 1108,667 1113,668 1118,668 1122,668 1127,668 1132,668 1136,668 1141,669 1145,669 1150,669 1155,669 1159,669 1164,669 1168,670 1173,670 1178,670 1182,670 1187,670 1192,670 1196,671 1201,671 1205,671 1210,671 1215,671 1219,671 1224,671 1228,672 1233,672 1238,672 1242,672 1247,672 1252,672 1256,672 1261,672 1265,673 1270,673 1275,673 1279,673 1284,673 1288,673 1293,673 1298,673 1302,673 1307,673 1312,674 1316,674 1321,674 1325,674 1330,674 1335,674 1339,674 1344,674 1348,674 1353,674 1358,674 1362,675 1367,675 1372,675 1376,675 1381,675 1385,675 1390,675 "/>
<polyline fill="none" opacity="1" stroke="#800080" stroke-width="2" points="10,566 15,563 19,560 24,557 28,554 33,551 38,548 42,545 47,542 52,539 56,537 61,534 65,531 70,529 75,527 79,524 84,522 88,520 93,518 98,516 102,514 107,513 112,511 116,510 121,509 125,508 130,507 135,506 139,505 144,505 148,505 153,505 158,505 162,505 167,505 172,506 176,506 181,507 185,508 190,509 195,510 199,512 204,513 208,515 213,516 218,518 222,520 227,522 232,525 236,527 241,529 245,532 250,534 255,537 259,540 264,543 268,546 273,549 278,552 282,555 287,558 292,561 296,564 301,567 305,570 310,573 315,576 319,579 324,582 328,585 333,588 338,591 342,594 347,596 352,599 356,602 361,604 365,607 370,609 375,611 379,613 384,615 388,617 393,619 398,620 402,622 407,623 412,624 416,625 421,626 425,627 430,627 435,628 439,628 444,628 448,628 453,628 458,628 462,627 467,626 472,626 476,625 481,624 485,622 490,621 495,619 499,618 504,616 508,614 513,612 518,610 522,608 527,605 532,603 536,600 541,598 545,595 550,592 555,589 559,587 564,584 568,581 573,578 578,575 582,572 587,568 592,565 596,562 601,559 605,556 610,553 615,550 619,547 624,544 628,541 633,539 638,536 642,533 647,531 652,528 656,526 661,523 665,521 670,519 675,517 679,515 684,514 688,512 693,511 698,510 702,508 707,507 712,507 716,506 721,505 725,505 730,505 735,505 739,505 744,505 748,505 753,506 758,506 762,507 767,508 772,509 776,511 781,512 785,514 790,515 795,517 799,519 804,521 808,523 813,525 818,528 822,530 827,533 832,535 836,538 841,541 845,544 850,547 855,550 859,553 864,556 868,559 873,562 878,565 882,568 887,571 892,574 896,577 901,580 905,583 910,586 915,589 919,592 924,595 928,597 933,600 938,603 942,605 947,607 952,610 956,612 961,614 965,616 970,618 975,619 979,621 984,622 988,623 993,625 998,626 1002,626 1007,627 1012,628 1016,628 1021,628 1025,628 1030,628 1035,628 1039,627 1044,627 1048,626 1053,625 1058,624 1062,623 1067,622 1072,620 1076,619 1081,617 1085,615 1090,613 1095,611 1099,609 1104,607 1108,605 1113,602 1118,600 1122,597 1127,594 1132,591 1136,589 1141,586 1145,583 1150,580 1155,577 1159,574 1164,570 1168,567 1173,564 1178,561 1182,558 1187,555 1192,552 1196,549 1201,546 1205,543 1210,540 1215,538 1219,535 1224,532 1228,530 1233,527 1238,525 1242,523 1247,521 1252,519 1256,517 1261,515 1265,513 1270,512 1275,510 1279,509 1284,508 1288,507 1293,506 1298,506 1302,505 1307,505 1312,505 1316,505 1321,505 1325,505 1330,505 1335,506 1339,507 1344,508 1348,509 1353,510 1358,511 1362,512 1367,514 1372,516 1376,518 1381,520 1385,522 1390,524 "/>
<polyline fill="none" opacity="1" stroke="#800080" stroke-width="2" points="10,72 15,72 19,72 24,72 28,72 33,72 38,72 42,72 47,72 52,72 56,72 61,72 65,72 70,72 75,72 79,72 84,72 88,72 93,72 98,72 102,72 107,72 112,72 116,72 121,72 125,72 130,72 135,72 139,72 144,72 148,72 153,72 158,72 162,72 167,72 172,72 176,72 181,72 185,72 190,72 195,72 199,72 204,72 208,72 213,72 218,72 222,72 227,72 232,72 236,72 241,72 245,72 250,72 255,72 259,72 264,72 268,72 273,72 278,72 282,72 287,72 292,72 296,72 301,72 305,72 310,72 315,72 319,72 324,72 328,72 333,72 338,72 342,72 347,72 352,72 356,72 361,72 365,72 370,72 375,72 379,72 384,72 388,72 393,72 398,72 402,72 407,72 412,72 416,72 421,72 425,72 430,72 435,72 439,72 444,72 448,72 453,72 458,72 462,72 467,72 472,72 476,72 481,72 485,72 490,72 495,72 499,72 504,72 508,72 513,72 518,72 522,72 527,72 532,72 536,72 541,72 545,72 550,72 555,72 559,72 564,72 568,72 573,72 578,72 582,72 587,72 592,72 596,72 601,72 605,72 610,72 615,72 619,72 624,72 628,72 633,72 638,72 642,72 647,72 652,72 656,72 661,72 665,72 670,72 675,72 679,72 684,72 688,72 693,72 698,72 702,72 707,72 712,72 716,72 721,72 725,72 730,72 735,72 739,72 744,72 748,72 753,72 758,72 762,72 767,72 772,72 776,72 781,72 785,72 790,72 795,72 799,72 804,72 808,72 813,72 818,72 822,72 827,72 832,72 836,72 841,72 845,72 850,72 855,72 859,72 864,72 868,72 873,72 878,72 882,72 887,72 892,72 896,72 901,72 905,72 910,72 915,72 919,72 924,72 928,72 933,72 938,72 942,72 947,72 952,72 956,72 961,72 965,72 970,72 975,72 979,72 984,72 988,72 993,72 998,72 1002,72 1007,72 1012,72 1016,72 1021,72 1025,72 1030,72 1035,72 1039,72 1044,72 1048,72 1053,72 1058,72 1062,72 1067,72 1072,72 1076,72 1081,72 1085,72 1090,72 1095,72 1099,72 1104,72 1108,72 1113,72 1118,72 1122,72 1127,72 1132,72 1136,72 1141,72 1145,72 1150,72 1155,72 1159,72 1164,72 1168,72 1173,72 1178,72 1182,72 1187,72 1192,72 1196,72 1201,72 1205,72 1210,72 1215,72 1219,72 1224,72 1228,72 1233,72 1238,72 1242,72 1247,72 1252,72 1256,72 1261,72 1265,72 1270,72 1275,72 1279,72 1284,72 1288,72 1293,72 1298,72 1302,72 1307,72 1312,72 1316,72 1321,72 1325,72 1330,72 1335,72 1339,72 1344,72 1348,72 1353,72 1358,72 1362,72 1367,72 1372,72 1376,72 1381,72 1385,72 1390,72 " stroke-dasharray="8,4"/>
<polyline fill="none" opacity="1" stroke="#3B82F6" stroke-width="1" points="10,10 10,690 "/>
<polyline fill="none" opacity="1" stroke="#3B82F6" stroke-width="1" points="10,690 4,690 "/>
<polyline fill="none" opacity="1" stroke="#3B82F6" stroke-width="1" points="10,679 7,679 "/>
<polyline fill="none" opacity="1" stroke="#3B82F6" stroke-width="1" points="10,669 7,669 "/>
<polyline fill="none" opacity="1" stroke="#3B82F6" stroke-width="1" points="10,658 7,658 "/>
<polyline fill="none" opacity="1" stroke="#3B82F6" stroke-width="1" points="10,648 4,648 "/>
<polyline fill="none" opacity="1" stroke="#3B82F6" stroke-width="1" points="10,637 7,637 "/>
<polyline fill="none" opacity="1" stroke="#3B82F6" stroke-width="1" points="10,626 7,626 "/>
<polyline fill="none" opacity="1" stroke="#3B82F6" stroke-width="1" points="10,616 7,616 "/>
<polyline fill="none" opacity="1" stroke="#3B82F6" stroke-width="1" points="10,605 4,605 "/>
<polyline fill="none" opacity="1" stroke="#3B82F6" stroke-width="1" points="10,594 7,594 "/>
<polyline fill="none" opacity="1" stroke="#3B82F6" stroke-width="1" points="10,584 7,584 "/>
<polyline fill="none" opacity="1" stroke="#3B82F6" stroke-width="1" points="10,573 7,573 "/>
<polyline fill="none" opacity="1" stroke="#3B82F6" stroke-width="1" points="10,563 4,563 "/>
<polyline fill="none" opacity="1" stroke="#3B82F6" stroke-width="1" points="10,552 7,552 "/>
<polyline fill="none" opacity="1" stroke="#3B82F6" stroke-width="1" points="10,541 7,541 "/>
<polyline fill="none" opacity="1" stroke="#3B82F6" stroke-width="1" points="10,531 7,531 "/>
<polyline fill="none" opacity="1" stroke="#3B82F6" stroke-width="1" points="10,520 4,520 "/>
<polyline fill="none" opacity="1" stroke="#3B82F6" stroke-width="1" points="10,509 7,509 "/>
<polyline fill="none" opacity="1" stroke="#3B82F6" stroke-width="1" points="10,499 7,499 "/>
<polyline fill="none" opacity="1" stroke="#3B82F6" stroke-width="1" points="10,488 7,488 "/>
<polyline fill="none" opacity="1" stroke="#3B82F6" stroke-width="1" points="10,478 4,478 "/>
<polyline fill="none" opacity="1" stroke="#3B82F6" stroke-width="1" points="10,467 7,467 "/>
<polyline fill="none" opacity="1" stroke="#3B82F6" stroke-width="1" points="10,456 7,456 "/>
<polyline fill="none" opacity="1" stroke="#3B82F6" stroke-width="1" points="10,446 7,446 "/>
<polyline fill="none" opacity="1" stroke="#3B82F6" stroke-width="1" points="10,435 4,435 "/>
<polyline fill="none" opacity="1" stroke="#3B82F6" stroke-width="1" points="10,424 7,424 "/>
<polyline fill="none" opacity="1" stroke="#3B82F6" stroke-width="1" points="10,414 7,414 "/>
<polyline fill="none" opacity="1" stroke="#3B82F6" stroke-width="1" points="10,403 7,403 "/>
<polyline fill="none" opacity="1" stroke="#3B82F6" stroke-width="1" points="10,393 4,393 "/>
<polyline fill="none" opacity="1" stroke="#3B82F6" stroke-width="1" points="10,382 7,382 "/>
<polyline fill="none" opacity="1" stroke="#3B82F6" stroke-width="1" points="10,371 7,371 "/>
<polyline fill="none" opacity="1" stroke="#3B82F6" stroke-width="1" points="10,361 7,361 "/>
<polyline fill="none" opacity="1" stroke="#3B82F6" stroke-width="1" points="10,350 4,350 "/>
<polyline fill="none" opacity="1" stroke="#3B82F6" stroke-width="1" points="10,339 7,339 "/>
<polyline fill="none" opacity="1" stroke="#3B82F6" stroke-width="1" points="10,329 7,329 "/>
<polyline fill="none" opacity="1" stroke="#3B82F6" stroke-width="1" points="10,318 7,318 "/>
<polyline fill="none" opacity="1" stroke="#3B82F6" stroke-width="1" points="10,308 4,308 "/>
<polyline fill="none" opacity="1" stroke="#3B82F6" stroke-width="1" points="10,297 7,297 "/>
<polyline fill="none" opacity="1" stroke="#3B82F6" stroke-width="1" points="10,286 7,286 "/>
<polyline fill="none" opacity="1" stroke="#3B82F6" stroke-width="1" points="10,276 7,276 "/>
<polyline fill="none" opacity="1" stroke="#3B82F6" stroke-width="1" points="10,265 4,265 "/>
<polyline fill="none" opacity="1" stroke="#3B82F6" stroke-width="1" points="10,254 7,254 "/>
<polyline fill="none" opacity="1" stroke="#3B82F6" stroke-width="1" points="10,244 7,244 "/>
<polyline fill="none" opacity="1" stroke="#3B82F6" stroke-width="1" points="10,233 7,233 "/>
<polyline fill="none" opacity="1" stroke="#3B82F6" stroke-width="1" points="10,223 4,223 "/>
<polyline fill="none" opacity="1" stroke="#3B82F6" stroke-width="1" points="10,212 7,212 "/>
<polyline fill="none" opacity="1" stroke="#3B82F6" stroke-width="1" points="10,201 7,201 "/>
<polyline fill="none" opacity="1" stroke="#3B82F6" stroke-width="1" points="10,191 7,191 "/>
<polyline fill="none" opacity="1" stroke="#3B82F6" stroke-width="1" points="10,180 4,180 "/>
<polyline fill="none" opacity="1" stroke="#3B82F6" stroke-width="1" points="10,169 7,169 "/>
<polyline fill="none" opacity="1" stroke="#3B82F6" stroke-width="1" points="10,159 7,159 "/>
<polyline fill="none" opacity="1" stroke="#3B82F6" stroke-width="1" points="10,148 7,148 "/>
<polyline fill="none" opacity="1" stroke="#3B82F6" stroke-width="1" points="10,138 4,138 "/>
<polyline fill="none" opacity="1" stroke="#3B82F6" stroke-width="1" points="10,127 7,127 "/>
<polyline fill="none" opacity="1" stroke="#3B82F6" stroke-width="1" points="10,116 7,116 "/>
<polyline fill="none" opacity="1" stroke="#3B82F6" stroke-width="1" points="10,106 7,106 "/>
<polyline fill="none" opacity="1" stroke="#3B82F6" stroke-width="1" points="10,95 4,95 "/>
<polyline fill="none" opacity="1" stroke="#3B82F6" stroke-width="1" points="10,84 7,84 "/>
<polyline fill="none" opacity="1" stroke="#3B82F6" stroke-width="1" points="10,74 7,74 "/>
<polyline fill="none" opacity="1" stroke="#3B82F6" stroke-width="1" points="10,63 7,63 "/>
<polyline fill="none" opacity="1" stroke="#3B82F6" stroke-width="1" points="10,53 4,53 "/>
<polyline fill="none" opacity="1" stroke="#3B82F6" stroke-width="1" points="10,42 7,42 "/>
<polyline fill="none" opacity="1" stroke="#3B82F6" stroke-width="1" points="10,31 7,31 "/>
<polyline fill="none" opacity="1" stroke="#3B82F6" stroke-width="1" points="10,21 7,21 "/>
<polyline fill="none" opacity="1" stroke="#3B82F6" stroke-width="1" points="10,10 4,10 "/>
<polyline fill="none" opacity="1" stroke="#DC2626" stroke-width="1" points="1390,10 1390,690 "/>
<polyline fill="none" opacity="1" stroke="#DC2626" stroke-width="1" points="1390,690 1396,690 "/>
<polyline fill="none" opacity="1" stroke="#DC2626" stroke-width="1" points="1390,678 1393,678 "/>
<polyline fill="none" opacity="1" stroke="#DC2626" stroke-width="1" points="1390,665 1393,665 "/>
<polyline fill="none" opacity="1" stroke="#DC2626" stroke-width="1" points="1390,653 1393,653 "/>
<polyline fill="none" opacity="1" stroke="#DC2626" stroke-width="1" points="1390,641 1393,641 "/>
<polyline fill="none" opacity="1" stroke="#DC2626" stroke-width="1" points="1390,628 1396,628 "/>
<polyline fill="none" opacity="1" stroke="#DC2626" stroke-width="1" points="1390,616 1393,616 "/>
<polyline fill="none" opacity="1" stroke="#DC2626" stroke-width="1" points="1390,603 1393,603 "/>
<polyline fill="none" opacity="1" stroke="#DC2626" stroke-width="1" points="1390,591 1393,591 "/>
<polyline fill="none" opacity="1" stroke="#DC2626" stroke-width="1" points="1390,579 1393,579 "/>
<polyline fill="none" opacity="1" stroke="#DC2626" stroke-width="1" points="1390,566 1396,566 "/>
<polyline fill="none" opacity="1" stroke="#DC2626" stroke-width="1" points="1390,554 1393,554 "/>
<polyline fill="none" opacity="1" stroke="#DC2626" stroke-width="1" points="1390,542 1393,542 "/>
<polyline fill="none" opacity="1" stroke="#DC2626" stroke-width="1" points="1390,529 1393,529 "/>
<polyline fill="none" opacity="1" stroke="#DC2626" stroke-width="1" points="1390,517 1393,517 "/>
<polyline fill="none" opacity="1" stroke="#DC2626" stroke-width="1" points="1390,505 1396,505 "/>
<polyline fill="none" opacity="1" stroke="#DC2626" stroke-width="1" points="1390,492 1393,492 "/>
<polyline fill="none" opacity="1" stroke="#DC2626" stroke-width="1" points="1390,480 1393,480 "/>
<polyline fill="none" opacity="1" stroke="#DC2626" stroke-width="1" points="1390,467 1393,467 "/>
<polyline fill="none" opacity="1" stroke="#DC2626" stroke-width="1" points="1390,455 1393,455 "/>
<polyline fill="none" opacity="1" stroke="#DC2626" stroke-width="1" points="1390,443 1396,443 "/>
<polyline fill="none" opacity="1" stroke="#DC2626" stroke-width="1" points="1390,430 1393,430 "/>
<polyline fill="none" opacity="1" stroke="#DC2626" stroke-width="1" points="1390,418 1393,418 "/>
<polyline fill="none" opacity="1" stroke="#DC2626" stroke-width="1" points="1390,406 1393,406 "/>
<polyline fill="none" opacity="1" stroke="#DC2626" stroke-width="1" points="1390,393 1393,393 "/>
<polyline fill="none" opacity="1" stroke="#DC2626" stroke-width="1" points="1390,381 1396,381 "/>
<polyline fill="none" opacity="1" stroke="#DC2626" stroke-width="1" points="1390,369 1393,369 "/>
<polyline fill="none" opacity="1" stroke="#DC2626" stroke-width="1" points="1390,356 1393,356 "/>
<polyline fill="none" opacity="1" stroke="#DC2626" stroke-width="1" points="1390,344 1393,344 "/>
<polyline fill="none" opacity="1" stroke="#DC2626" stroke-width="1" points="1390,331 1393,331 "/>
<polyline fill="none" opacity="1" stroke="#DC2626" stroke-width="1" points="1390,319 1396,319 "/>
<polyline fill="none" opacity="1" stroke="#DC2626" stroke-width="1" points="1390,307 1393,307 "/>
<polyline fill="none" opacity="1" stroke="#DC2626" stroke-width="1" points="1390,294 1393,294 "/>
<polyline fill="none" opacity="1" stroke="#DC2626" stroke-width="1" points="1390,282 1393,282 "/>
<polyline fill="none" opacity="1" stroke="#DC2626" stroke-width="1" points="1390,270 1393,270 "/>
<polyline fill="none" opacity="1" stroke="#DC2626" stroke-width="1" points="1390,257 1396,257 "/>
<polyline fill="none" opacity="1" stroke="#DC2626" stroke-width="1" points="1390,245 1393,245 "/>
<polyline fill="none" opacity="1" stroke="#DC2626" stroke-width="1" points="1390,233 1393,233 "/>
<polyline fill="none" opacity="1" stroke="#DC2626" stroke-width="1" points="1390,220 1393,220 "/>
<polyline fill="none" opacity="1" stroke="#DC2626" stroke-width="1" points="1390,208 1393,208 "/>
<polyline fill="none" opacity="1" stroke="#DC2626" stroke-width="1" points="1390,195 1396,195 "/>
<polyline fill="none" opacity="1" stroke="#DC2626" stroke-width="1" points="1390,183 1393,183 "/>
<polyline fill="none" opacity="1" stroke="#DC2626" stroke-width="1" points="1390,171 1393,171 "/>
<polyline fill="none" opacity="1" stroke="#DC2626" stroke-width="1" points="1390,158 1393,158 "/>
<polyline fill="none" opacity="1" stroke="#DC2626" stroke-width="1" points="1390,146 1393,146 "/>
<polyline fill="none" opacity="1" stroke="#DC2626" stroke-width="1" points="1390,134 1396,134 "/>
<polyline fill="none" opacity="1" stroke="#DC2626" stroke-width="1" points="1390,121 1393,121 "/>
<polyline fill="none" opacity="1" stroke="#DC2626" stroke-width="1" points="1390,109 1393,109 "/>
<polyline fill="none" opacity="1" stroke="#DC2626" stroke-width="1" points="1390,97 1393,97 "/>
<polyline fill="none" opacity="1" stroke="#DC2626" stroke-width="1" points="1390,84 1393,84 "/>
<polyline fill="none" opacity="1" stroke="#DC2626" stroke-width="1" points="1390,72 1396,72 "/>
<polyline fill="none" opacity="1" stroke="#DC2626" stroke-width="1" points="1390,59 1393,59 "/>
<polyline fill="none" opacity="1" stroke="#DC2626" stroke-width="1" points="1390,47 1393,47 "/>
<polyline fill="none" opacity="1" stroke="#DC2626" stroke-width="1" points="1390,35 1393,35 "/>
<polyline fill="none" opacity="1" stroke="#DC2626" stroke-width="1" points="1390,22 1393,22 "/>
<polyline fill="none" opacity="1" stroke="#DC2626" stroke-width="1" points="1390,10 1396,10 "/>
<polyline fill="none" opacity="1" stroke="#475569" stroke-width="1" points="10,690 10,696 "/>
<polyline fill="none" opacity="1" stroke="#475569" stroke-width="1" points="56,690 56,693 "/>
<polyline fill="none" opacity="1" stroke="#475569" stroke-width="1" points="102,690 102,693 "/>
<polyline fill="none" opacity="1" stroke="#475569" stroke-width="1" points="148,690 148,693 "/>
<polyline fill="none" opacity="1" stroke="#475569" stroke-width="1" points="195,690 195,696 "/>
<polyline fill="none" opacity="1" stroke="#475569" stroke-width="1" points="241,690 241,693 "/>
<polyline fill="none" opacity="1" stroke="#475569" stroke-width="1" points="287,690 287,693 "/>
<polyline fill="none" opacity="1" stroke="#475569" stroke-width="1" points="333,690 333,693 "/>
<polyline fill="none" opacity="1" stroke="#475569" stroke-width="1" points="379,690 379,696 "/>
<polyline fill="none" opacity="1" stroke="#475569" stroke-width="1" points="425,690 425,693 "/>
<polyline fill="none" opacity="1" stroke="#475569" stroke-width="1" points="472,690 472,693 "/>
<polyline fill="none" opacity="1" stroke="#475569" stroke-width="1" points="518,690 518,693 "/>
<polyline fill="none" opacity="1" stroke="#475569" stroke-width="1" points="564,690 564,696 "/>
<polyline fill="none" opacity="1" stroke="#475569" stroke-width="1" points="610,690 610,693 "/>
<polyline fill="none" opacity="1" stroke="#475569" stroke-width="1" points="656,690 656,693 "/>
<polyline fill="none" opacity="1" stroke="#475569" stroke-width="1" points="702,690 702,693 "/>
<polyline fill="none" opacity="1" stroke="#475569" stroke-width="1" points="748,690 748,696 "/>
<polyline fill="none" opacity="1" stroke="#475569" stroke-width="1" points="795,690 795,693 "/>
<polyline fill="none" opacity="1" stroke="#475569" stroke-width="1" points="841,690 841,693 "/>
<polyline fill="none" opacity="1" stroke="#475569" stroke-width="1" points="887,690 887,693 "/>
<polyline fill="none" opacity="1" stroke="#475569" stroke-width="1" points="933,690 933,696 "/>
<polyline fill="none" opacity="1" stroke="#475569" stroke-width="1" points="979,690 979,693 "/>
<polyline fill="none" opacity="1" stroke="#475569" stroke-width="1" points="1025,690 1025,693 "/>
<polyline fill="none" opacity="1" stroke="#475569" stroke-width="1" points="1072,690 1072,693 "/>
<polyline fill="none" opacity="1" stroke="#475569" stroke-width="1" points="1118,690 1118,696 "/>
<polyline fill="none" opacity="1" stroke="#475569" stroke-width="1" points="1164,690 1164,693 "/>
<polyline fill="none" opacity="1" stroke="#475569" stroke-width="1" points="1210,690 1210,693 "/>
<polyline fill="none" opacity="1" stroke="#475569" stroke-width="1" points="1256,690 1256,693 "/>
<polyline fill="none" opacity="1" stroke="#475569" stroke-width="1" points="1302,690 1302,696 "/>
<polyline fill="none" opacity="1" stroke="#475569" stroke-width="1" points="1348,690 1348,693 "/>
</svg>
