<svg width="1400" height="700" viewBox="0 0 1400 700" xmlns="http://www.w3.org/2000/svg">
<rect x="0" y="0" width="1400" height="700" opacity="1" fill="#FFFFFF" stroke="none"/>
<polyline fill="none" opacity="0.4" stroke="#C8C8C8" stroke-width="0.5" stroke-dasharray="4,4" points="70,689 70,10 "/>
<polyline fill="none" opacity="0.4" stroke="#C8C8C8" stroke-width="0.5" stroke-dasharray="4,4" points="238,689 238,10 "/>
<polyline fill="none" opacity="0.4" stroke="#C8C8C8" stroke-width="0.5" stroke-dasharray="4,4" points="406,689 406,10 "/>
<polyline fill="none" opacity="0.4" stroke="#C8C8C8" stroke-width="0.5" stroke-dasharray="4,4" points="575,689 575,10 "/>
<polyline fill="none" opacity="0.4" stroke="#C8C8C8" stroke-width="0.5" stroke-dasharray="4,4" points="743,689 743,10 "/>
<polyline fill="none" opacity="0.4" stroke="#C8C8C8" stroke-width="0.5" stroke-dasharray="4,4" points="912,689 912,10 "/>
<polyline fill="none" opacity="0.4" stroke="#C8C8C8" stroke-width="0.5" stroke-dasharray="4,4" points="1080,689 1080,10 "/>
<polyline fill="none" opacity="0.4" stroke="#C8C8C8" stroke-width="0.5" stroke-dasharray="4,4" points="1248,689 1248,10 "/>
<polyline fill="none" opacity="0.4" stroke="#C8C8C8" stroke-width="0.5" stroke-dasharray="4,4" points="70,689 1329,689 "/>
<polyline fill="none" opacity="0.4" stroke="#C8C8C8" stroke-width="0.5" stroke-dasharray="4,4" points="70,647 1329,647 "/>
<polyline fill="none" opacity="0.4" stroke="#C8C8C8" stroke-width="0.5" stroke-dasharray="4,4" points="70,605 1329,605 "/>
<polyline fill="none" opacity="0.4" stroke="#C8C8C8" stroke-width="0.5" stroke-dasharray="4,4" points="70,562 1329,562 "/>
<polyline fill="none" opacity="0.4" stroke="#C8C8C8" stroke-width="0.5" stroke-dasharray="4,4" points="70,520 1329,520 "/>
<polyline fill="none" opacity="0.4" stroke="#C8C8C8" stroke-width="0.5" stroke-dasharray="4,4" points="70,477 1329,477 "/>
<polyline fill="none" opacity="0.4" stroke="#C8C8C8" stroke-width="0.5" stroke-dasharray="4,4" points="70,435 1329,435 "/>
<polyline fill="none" opacity="0.4" stroke="#C8C8C8" stroke-width="0.5" stroke-dasharray="4,4" points="70,392 1329,392 "/>
<polyline fill="none" opacity="0.4" stroke="#C8C8C8" stroke-width="0.5" stroke-dasharray="4,4" points="70,350 1329,350 "/>
<polyline fill="none" opacity="0.4" stroke="#C8C8C8" stroke-width="0.5" stroke-dasharray="4,4" points="70,308 1329,308 "/>
<polyline fill="none" opacity="0.4" stroke="#C8C8C8" stroke-width="0.5" stroke-dasharray="4,4" points="70,265 1329,265 "/>
<polyline fill="none" opacity="0.4" stroke="#C8C8C8" stroke-width="0.5" stroke-dasharray="4,4" points="70,223 1329,223 "/>
<polyline fill="none" opacity="0.4" stroke="#C8C8C8" stroke-width="0.5" stroke-dasharray="4,4" points="70,180 1329,180 "/>
<polyline fill="none" opacity="0.4" stroke="#C8C8C8" stroke-width="0.5" stroke-dasharray="4,4" points="70,138 1329,138 "/>
<polyline fill="none" opacity="0.4" stroke="#C8C8C8" stroke-width="0.5" stroke-dasharray="4,4" points="70,95 1329,95 "/>
<polyline fill="none" opacity="0.4" stroke="#C8C8C8" stroke-width="0.5" stroke-dasharray="4,4" points="70,53 1329,53 "/>
<polyline fill="none" opacity="0.4" stroke="#C8C8C8" stroke-width="0.5" stroke-dasharray="4,4" points="70,10 1329,10 "/>
<polyline fill="none" opacity="1" stroke="#475569" stroke-width="1" points="70,689 1329,689 "/>
<polyline fill="none" opacity="1" stroke="#1E90FF" stroke-width="2" points="70,42 74,52 78,63 83,73 87,83 91,93 95,103 99,112 104,121 108,131 112,140 116,149 121,157 125,166 129,175 133,183 137,191 142,199 146,207 150,215 154,223 158,230 163,238 167,245 171,252 175,259 180,266 184,273 188,280 192,286 196,293 201,299 205,305 209,312 213,318 217,324 222,330 226,335 230,341 234,347 239,352 243,357 247,363 251,368 255,373 260,378 264,383 268,388 272,393 276,398 281,402 285,407 289,411 293,416 298,420 302,424 306,429 310,433 314,437 319,441 323,445 327,449 331,453 335,456 340,460 344,464 348,467 352,471 357,474 361,478 365,481 369,484 373,487 378,491 382,494 386,497 390,500 394,503 399,506 403,509 407,511 411,514 416,517 420,520 424,522 428,525 432,527 437,530 441,532 445,535 449,537 453,539 458,542 462,544 466,546 470,549 475,551 479,553 483,555 487,557 491,559 496,561 500,563 504,565 508,567 512,569 517,570 521,572 525,574 529,576 534,577 538,579 542,581 546,582 550,584 555,586 559,587 563,589 567,590 571,592 576,593 580,595 584,596 588,597 593,599 597,600 601,601 605,603 609,604 614,605 618,606 622,608 626,609 630,610 635,611 639,612 643,613 647,614 652,615 656,617 660,618 664,619 668,620 673,621 677,622 681,622 685,623 689,624 694,625 698,626 702,627 706,628 711,629 715,630 719,630 723,631 727,632 732,633 736,634 740,634 744,635 748,636 753,637 757,637 761,638 765,639 770,639 774,640 778,641 782,641 786,642 791,642 795,643 799,644 803,644 807,645 812,645 816,646 820,647 824,647 829,648 833,648 837,649 841,649 845,650 850,650 854,651 858,651 862,652 866,652 871,653 875,653 879,653 883,654 888,654 892,655 896,655 900,655 904,656 909,656 913,657 917,657 921,657 925,658 930,658 934,658 938,659 942,659 947,659 951,660 955,660 959,660 963,661 968,661 972,661 976,662 980,662 984,662 989,663 993,663 997,663 1001,663 1006,664 1010,664 1014,664 1018,664 1022,665 1027,665 1031,665 1035,665 1039,666 1043,666 1048,666 1052,666 1056,666 1060,667 1065,667 1069,667 1073,667 1077,668 1081,668 1086,668 1090,668 1094,668 1098,668 1102,669 1107,669 1111,669 1115,669 1119,669 1124,669 1128,670 1132,670 1136,670 1140,670 1145,670 1149,670 1153,671 1157,671 1161,671 1166,671 1170,671 1174,671 1178,671 1183,672 1187,672 1191,672 1195,672 1199,672 1204,672 1208,672 1212,672 1216,673 1220,673 1225,673 1229,673 1233,673 1237,673 1242,673 1246,673 1250,673 1254,673 1258,674 1263,674 1267,674 1271,674 1275,674 1279,674 1284,674 1288,674 1292,674 1296,674 1301,674 1305,675 1309,675 1313,675 1317,675 1322,675 1326,675 1330,675 "/>
<polyline fill="none" opacity="1" stroke="#1E90FF" stroke-width="2" points="70,566 74,563 78,560 83,557 87,554 91,551 95,548 99,545 104,542 108,539 112,537 116,534 121,531 125,529 129,527 133,524 137,522 142,520 146,518 150,516 154,514 158,513 163,511 167,510 171,509 175,508 180,507 184,506 188,505 192,505 196,505 201,505 205,505 209,505 213,505 217,506 222,506 226,507 230,508 234,509 239,510 243,512 247,513 251,515 255,516 260,518 264,520 268,522 272,525 276,527 281,529 285,532 289,534 293,537 298,540 302,543 306,546 310,549 314,552 319,555 323,558 327,561 331,564 335,567 340,570 344,573 348,576 352,579 357,582 361,585 365,588 369,591 373,594 378,596 382,599 386,602 390,604 394,607 399,609 403,611 407,613 411,615 416,617 420,619 424,620 428,622 432,623 437,624 441,625 445,626 449,627 453,627 458,628 462,628 466,628 470,628 475,628 479,628 483,627 487,626 491,626 496,625 500,624 504,622 508,621 512,619 517,618 521,616 525,614 529,612 534,610 538,608 542,605 546,603 550,600 555,598 559,595 563,592 567,589 571,587 576,584 580,581 584,578 588,575 593,572 597,568 601,565 605,562 609,559 614,556 618,553 622,550 626,547 630,544 635,541 639,539 643,536 647,533 652,531 656,528 660,526 664,523 668,521 673,519 677,517 681,515 685,514 689,512 694,511 698,510 702,508 706,507 711,507 715,506 719,505 723,505 727,505 732,505 736,505 740,505 744,505 748,506 753,506 757,507 761,508 765,509 770,511 774,512 778,514 782,515 786,517 791,519 795,521 799,523 803,525 807,528 812,530 816,533 820,535 824,538 829,541 833,544 837,547 841,550 845,553 850,556 854,559 858,562 862,565 866,568 871,571 875,574 879,577 883,580 888,583 892,586 896,589 900,592 904,595 909,597 913,600 917,603 921,605 925,607 930,610 934,612 938,614 942,616 947,618 951,619 955,621 959,622 963,623 968,625 972,626 976,626 980,627 984,628 989,628 993,628 997,628 1001,628 1006,628 1010,627 1014,627 1018,626 1022,625 1027,624 1031,623 1035,622 1039,620 1043,619 1048,617 1052,615 1056,613 1060,611 1065,609 1069,607 1073,605 1077,602 1081,600 1086,597 1090,594 1094,591 1098,589 1102,586 1107,583 1111,580 1115,577 1119,574 1124,570 1128,567 1132,564 1136,561 1140,558 1145,555 1149,552 1153,549 1157,546 1161,543 1166,540 1170,538 1174,535 1178,532 1183,530 1187,527 1191,525 1195,523 1199,521 1204,519 1208,517 1212,515 1216,513 1220,512 1225,510 1229,509 1233,508 1237,507 1242,506 1246,506 1250,505 1254,505 1258,505 1263,505 1267,505 1271,505 1275,505 1279,506 1284,507 1288,508 1292,509 1296,510 1301,511 1305,512 1309,514 1313,516 1317,518 1322,520 1326,522 1330,524 "/>
<polyline fill="none" opacity="1" stroke="#1E90FF" stroke-width="2" points="70,67 74,67 78,67 83,67 87,68 91,69 95,70 99,71 104,72 108,74 112,75 116,77 121,79 125,81 129,84 133,86 137,89 142,92 146,95 150,98 154,101 158,105 163,108 167,112 171,116 175,120 180,124 184,129 188,133 192,138 196,143 201,148 205,153 209,158 213,163 217,168 222,174 226,179 230,185 234,191 239,197 243,203 247,209 251,215 255,221 260,228 264,234 268,241 272,247 276,254 281,261 285,267 289,274 293,281 298,288 302,295 306,302 310,309 314,316 319,323 323,330 327,337 331,344 335,351 340,358 344,365 348,372 352,379 357,387 361,394 365,401 369,407 373,414 378,421 382,428 386,435 390,442 394,448 399,455 403,461 407,468 411,474 416,481 420,487 424,493 428,499 432,505 437,511 441,517 445,522 449,528 453,533 458,539 462,544 466,549 470,554 475,559 479,564 483,568 487,573 491,577 496,581 500,585 504,589 508,593 512,596 517,600 521,603 525,606 529,609 534,612 538,615 542,617 546,619 550,621 555,623 559,625 563,627 567,628 571,629 576,630 580,631 584,632 588,633 593,633 597,633 601,633 605,633 609,633 614,632 618,632 622,631 626,630 630,629 635,627 639,626 643,624 647,622 652,620 656,618 660,615 664,613 668,610 673,607 677,604 681,601 685,597 689,594 694,590 698,586 702,582 706,578 711,574 715,570 719,565 723,560 727,556 732,551 736,546 740,541 744,535 748,530 753,524 757,519 761,513 765,507 770,501 774,495 778,489 782,483 786,476 791,470 795,464 799,457 803,450 807,444 812,437 816,430 820,423 824,417 829,410 833,403 837,396 841,389 845,382 850,375 854,368 858,361 862,354 866,346 871,339 875,332 879,325 883,318 888,311 892,304 896,297 900,290 904,283 909,276 913,270 917,263 921,256 925,249 930,243 934,236 938,230 942,224 947,217 951,211 955,205 959,199 963,193 968,187 972,181 976,176 980,170 984,165 989,159 993,154 997,149 1001,144 1006,139 1010,135 1014,130 1018,126 1022,122 1027,117 1031,113 1035,110 1039,106 1043,102 1048,99 1052,96 1056,93 1060,90 1065,87 1069,85 1073,82 1077,80 1081,78 1086,76 1090,74 1094,73 1098,71 1102,70 1107,69 1111,68 1115,68 1119,67 1124,67 1128,67 1132,67 1136,67 1140,67 1145,68 1149,69 1153,70 1157,71 1161,72 1166,73 1170,75 1174,77 1178,79 1183,81 1187,83 1191,86 1195,88 1199,91 1204,94 1208,97 1212,100 1216,104 1220,107 1225,111 1229,115 1233,119 1237,123 1242,127 1246,132 1250,136 1254,141 1258,146 1263,151 1267,156 1271,161 1275,167 1279,172 1284,178 1288,183 1292,189 1296,195 1301,201 1305,207 1309,213 1313,219 1317,226 1322,232 1326,239 1330,245 "/>
<polyline fill="none" opacity="1" stroke="#1E90FF" stroke-width="2" points="70,72 74,72 78,72 83,72 87,72 91,72 95,72 99,72 104,72 108,72 112,72 116,72 121,72 125,72 129,72 133,72 137,72 142,72 146,72 150,72 154,72 158,72 163,72 167,72 171,72 175,72 180,72 184,72 188,72 192,72 196,72 201,72 205,72 209,72 213,72 217,72 222,72 226,72 230,72 234,72 239,72 243,72 247,72 251,72 255,72 260,72 264,72 268,72 272,72 276,72 281,72 285,72 289,72 293,72 298,72 302,72 306,72 310,72 314,72 319,72 323,72 327,72 331,72 335,72 340,72 344,72 348,72 352,72 357,72 361,72 365,72 369,72 373,72 378,72 382,72 386,72 390,72 394,72 399,72 403,72 407,72 411,72 416,72 420,72 424,72 428,72 432,72 437,72 441,72 445,72 449,72 453,72 458,72 462,72 466,72 470,72 475,72 479,72 483,72 487,72 491,72 496,72 500,72 504,72 508,72 512,72 517,72 521,72 525,72 529,72 534,72 538,72 542,72 546,72 550,72 555,72 559,72 563,72 567,72 571,72 576,72 580,72 584,72 588,72 593,72 597,72 601,72 605,72 609,72 614,72 618,72 622,72 626,72 630,72 635,72 639,72 643,72 647,72 652,72 656,72 660,72 664,72 668,72 673,72 677,72 681,72 685,72 689,72 694,72 698,72 702,72 706,72 711,72 715,72 719,72 723,72 727,72 732,72 736,72 740,72 744,72 748,72 753,72 757,72 761,72 765,72 770,72 774,72 778,72 782,72 786,72 791,72 795,72 799,72 803,72 807,72 812,72 816,72 820,72 824,72 829,72 833,72 837,72 841,72 845,72 850,72 854,72 858,72 862,72 866,72 871,72 875,72 879,72 883,72 888,72 892,72 896,72 900,72 904,72 909,72 913,72 917,72 921,72 925,72 930,72 934,72 938,72 942,72 947,72 951,72 955,72 959,72 963,72 968,72 972,72 976,72 980,72 984,72 989,72 993,72 997,72 1001,72 1006,72 1010,72 1014,72 1018,72 1022,72 1027,72 1031,72 1035,72 1039,72 1043,72 1048,72 1052,72 1056,72 1060,72 1065,72 1069,72 1073,72 1077,72 1081,72 1086,72 1090,72 1094,72 1098,72 1102,72 1107,72 1111,72 1115,72 1119,72 1124,72 1128,72 1132,72 1136,72 1140,72 1145,72 1149,72 1153,72 1157,72 1161,72 1166,72 1170,72 1174,72 1178,72 1183,72 1187,72 1191,72 1195,72 1199,72 1204,72 1208,72 1212,72 1216,72 1220,72 1225,72 1229,72 1233,72 1237,72 1242,72 1246,72 1250,72 1254,72 1258,72 1263,72 1267,72 1271,72 1275,72 1279,72 1284,72 1288,72 1292,72 1296,72 1301,72 1305,72 1309,72 1313,72 1317,72 1322,72 1326,72 1330,72 " stroke-dasharray="8,4"/>
<polyline fill="none" opacity="1" stroke="#FF0000" stroke-width="2" points="70,42 74,52 78,63 83,73 87,83 91,93 95,103 99,112 104,121 108,131 112,140 116,149 121,157 125,166 129,175 133,183 137,191 142,199 146,207 150,215 154,223 158,230 163,238 167,245 171,252 175,259 180,266 184,273 188,280 192,286 196,293 201,299 205,305 209,312 213,318 217,324 222,330 226,335 230,341 234,347 239,352 243,357 247,363 251,368 255,373 260,378 264,383 268,388 272,393 276,398 281,402 285,407 289,411 293,416 298,420 302,424 306,429 310,433 314,437 319,441 323,445 327,449 331,453 335,456 340,460 344,464 348,467 352,471 357,474 361,478 365,481 369,484 373,487 378,491 382,494 386,497 390,500 394,503 399,506 403,509 407,511 411,514 416,517 420,520 424,522 428,525 432,527 437,530 441,532 445,535 449,537 453,539 458,542 462,544 466,546 470,549 475,551 479,553 483,555 487,557 491,559 496,561 500,563 504,565 508,567 512,569 517,570 521,572 525,574 529,576 534,577 538,579 542,581 546,582 550,584 555,586 559,587 563,589 567,590 571,592 576,593 580,595 584,596 588,597 593,599 597,600 601,601 605,603 609,604 614,605 618,606 622,608 626,609 630,610 635,611 639,612 643,613 647,614 652,615 656,617 660,618 664,619 668,620 673,621 677,622 681,622 685,623 689,624 694,625 698,626 702,627 706,628 711,629 715,630 719,630 723,631 727,632 732,633 736,634 740,634 744,635 748,636 753,637 757,637 761,638 765,639 770,639 774,640 778,641 782,641 786,642 791,642 795,643 799,644 803,644 807,645 812,645 816,646 820,647 824,647 829,648 833,648 837,649 841,649 845,650 850,650 854,651 858,651 862,652 866,652 871,653 875,653 879,653 883,654 888,654 892,655 896,655 900,655 904,656 909,656 913,657 917,657 921,657 925,658 930,658 934,658 938,659 942,659 947,659 951,660 955,660 959,660 963,661 968,661 972,661 976,662 980,662 984,662 989,663 993,663 997,663 1001,663 1006,664 1010,664 1014,664 1018,664 1022,665 1027,665 1031,665 1035,665 1039,666 1043,666 1048,666 1052,666 1056,666 1060,667 1065,667 1069,667 1073,667 1077,668 1081,668 1086,668 1090,668 1094,668 1098,668 1102,669 1107,669 1111,669 1115,669 1119,669 1124,669 1128,670 1132,670 1136,670 1140,670 1145,670 1149,670 1153,671 1157,671 1161,671 1166,671 1170,671 1174,671 1178,671 1183,672 1187,672 1191,672 1195,672 1199,672 1204,672 1208,672 1212,672 1216,673 1220,673 1225,673 1229,673 1233,673 1237,673 1242,673 1246,673 1250,673 1254,673 1258,674 1263,674 1267,674 1271,674 1275,674 1279,674 1284,674 1288,674 1292,674 1296,674 1301,674 1305,675 1309,675 1313,675 1317,675 1322,675 1326,675 1330,675 "/>
<polyline fill="none" opacity="1" stroke="#FF0000" stroke-width="2" points="70,566 74,563 78,560 83,557 87,554 91,551 95,548 99,545 104,542 108,539 112,537 116,534 121,531 125,529 129,527 133,524 137,522 142,520 146,518 150,516 154,514 158,513 163,511 167,510 171,509 175,508 180,507 184,506 188,505 192,505 196,505 201,505 205,505 209,505 213,505 217,506 222,506 226,507 230,508 234,509 239,510 243,512 247,513 251,515 255,516 260,518 264,520 268,522 272,525 276,527 281,529 285,532 289,534 293,537 298,540 302,543 306,546 310,549 314,552 319,555 323,558 327,561 331,564 335,567 340,570 344,573 348,576 352,579 357,582 361,585 365,588 369,591 373,594 378,596 382,599 386,602 390,604 394,607 399,609 403,611 407,613 411,615 416,617 420,619 424,620 428,622 432,623 437,624 441,625 445,626 449,627 453,627 458,628 462,628 466,628 470,628 475,628 479,628 483,627 487,626 491,626 496,625 500,624 504,622 508,621 512,619 517,618 521,616 525,614 529,612 534,610 538,608 542,605 546,603 550,600 555,598 559,595 563,592 567,589 571,587 576,584 580,581 584,578 588,575 593,572 597,568 601,565 605,562 609,559 614,556 618,553 622,550 626,547 630,544 635,541 639,539 643,536 647,533 652,531 656,528 660,526 664,523 668,521 673,519 677,517 681,515 685,514 689,512 694,511 698,510 702,508 706,507 711,507 715,506 719,505 723,505 727,505 732,505 736,505 740,505 744,505 748,506 753,506 757,507 761,508 765,509 770,511 774,512 778,514 782,515 786,517 791,519 795,521 799,523 803,525 807,528 812,530 816,533 820,535 824,538 829,541 833,544 837,547 841,550 845,553 850,556 854,559 858,562 862,565 866,568 871,571 875,574 879,577 883,580 888,583 892,586 896,589 900,592 904,595 909,597 913,600 917,603 921,605 925,607 930,610 934,612 938,614 942,616 947,618 951,619 955,621 959,622 963,623 968,625 972,626 976,626 980,627 984,628 989,628 993,628 997,628 1001,628 1006,628 1010,627 1014,627 1018,626 1022,625 1027,624 1031,623 1035,622 1039,620 1043,619 1048,617 1052,615 1056,613 1060,611 1065,609 1069,607 1073,605 1077,602 1081,600 1086,597 1090,594 1094,591 1098,589 1102,586 1107,583 1111,580 1115,577 1119,574 1124,570 1128,567 1132,564 1136,561 1140,558 1145,555 1149,552 1153,549 1157,546 1161,543 1166,540 1170,538 1174,535 1178,532 1183,530 1187,527 1191,525 1195,523 1199,521 1204,519 1208,517 1212,515 1216,513 1220,512 1225,510 1229,509 1233,508 1237,507 1242,506 1246,506 1250,505 1254,505 1258,505 1263,505 1267,505 1271,505 1275,505 1279,506 1284,507 1288,508 1292,509 1296,510 1301,511 1305,512 1309,514 1313,516 1317,518 1322,520 1326,522 1330,524 "/>
<polyline fill="none" opacity="1" stroke="#FF0000" stroke-width="2" points="70,67 74,67 78,67 83,67 87,68 91,69 95,70 99,71 104,72 108,74 112,75 116,77 121,79 125,81 129,84 133,86 137,89 142,92 146,95 150,98 154,101 158,105 163,108 167,112 171,116 175,120 180,124 184,129 188,133 192,138 196,143 201,148 205,153 209,158 213,163 217,168 222,174 226,179 230,185 234,191 239,197 243,203 247,209 251,215 255,221 260,228 264,234 268,241 272,247 276,254 281,261 285,267 289,274 293,281 298,288 302,295 306,302 310,309 314,316 319,323 323,330 327,337 331,344 335,351 340,358 344,365 348,372 352,379 357,387 361,394 365,401 369,407 373,414 378,421 382,428 386,435 390,442 394,448 399,455 403,461 407,468 411,474 416,481 420,487 424,493 428,499 432,505 437,511 441,517 445,522 449,528 453,533 458,539 462,544 466,549 470,554 475,559 479,564 483,568 487,573 491,577 496,581 500,585 504,589 508,593 512,596 517,600 521,603 525,606 529,609 534,612 538,615 542,617 546,619 550,621 555,623 559,625 563,627 567,628 571,629 576,630 580,631 584,632 588,633 593,633 597,633 601,633 605,633 609,633 614,632 618,632 622,631 626,630 630,629 635,627 639,626 643,624 647,622 652,620 656,618 660,615 664,613 668,610 673,607 677,604 681,601 685,597 689,594 694,590 698,586 702,582 706,578 711,574 715,570 719,565 723,560 727,556 732,551 736,546 740,541 744,535 748,530 753,524 757,519 761,513 765,507 770,501 774,495 778,489 782,483 786,476 791,470 795,464 799,457 803,450 807,444 812,437 816,430 820,423 824,417 829,410 833,403 837,396 841,389 845,382 850,375 854,368 858,361 862,354 866,346 871,339 875,332 879,325 883,318 888,311 892,304 896,297 900,290 904,283 909,276 913,270 917,263 921,256 925,249 930,243 934,236 938,230 942,224 947,217 951,211 955,205 959,199 963,193 968,187 972,181 976,176 980,170 984,165 989,159 993,154 997,149 1001,144 1006,139 1010,135 1014,130 1018,126 1022,122 1027,117 1031,113 1035,110 1039,106 1043,102 1048,99 1052,96 1056,93 1060,90 1065,87 1069,85 1073,82 1077,80 1081,78 1086,76 1090,74 1094,73 1098,71 1102,70 1107,69 1111,68 1115,68 1119,67 1124,67 1128,67 1132,67 1136,67 1140,67 1145,68 1149,69 1153,70 1157,71 1161,72 1166,73 1170,75 1174,77 1178,79 1183,81 1187,83 1191,86 1195,88 1199,91 1204,94 1208,97 1212,100 1216,104 1220,107 1225,111 1229,115 1233,119 1237,123 1242,127 1246,132 1250,136 1254,141 1258,146 1263,151 1267,156 1271,161 1275,167 1279,172 1284,178 1288,183 1292,189 1296,195 1301,201 1305,207 1309,213 1313,219 1317,226 1322,232 1326,239 1330,245 "/>
<polyline fill="none" opacity="1" stroke="#FF0000" stroke-width="2" points="70,72 74,72 78,72 83,72 87,72 91,72 95,72 99,72 104,72 108,72 112,72 116,72 121,72 125,72 129,72 133,72 137,72 142,72 146,72 150,72 154,72 158,72 163,72 167,72 171,72 175,72 180,72 184,72 188,72 192,72 196,72 201,72 205,72 209,72 213,72 217,72 222,72 226,72 230,72 234,72 239,72 243,72 247,72 251,72 255,72 260,72 264,72 268,72 272,72 276,72 281,72 285,72 289,72 293,72 298,72 302,72 306,72 310,72 314,72 319,72 323,72 327,72 331,72 335,72 340,72 344,72 348,72 352,72 357,72 361,72 365,72 369,72 373,72 378,72 382,72 386,72 390,72 394,72 399,72 403,72 407,72 411,72 416,72 420,72 424,72 428,72 432,72 437,72 441,72 445,72 449,72 453,72 458,72 462,72 466,72 470,72 475,72 479,72 483,72 487,72 491,72 496,72 500,72 504,72 508,72 512,72 517,72 521,72 525,72 529,72 534,72 538,72 542,72 546,72 550,72 555,72 559,72 563,72 567,72 571,72 576,72 580,72 584,72 588,72 593,72 597,72 601,72 605,72 609,72 614,72 618,72 622,72 626,72 630,72 635,72 639,72 643,72 647,72 652,72 656,72 660,72 664,72 668,72 673,72 677,72 681,72 685,72 689,72 694,72 698,72 702,72 706,72 711,72 715,72 719,72 723,72 727,72 732,72 736,72 740,72 744,72 748,72 753,72 757,72 761,72 765,72 770,72 774,72 778,72 782,72 786,72 791,72 795,72 799,72 803,72 807,72 812,72 816,72 820,72 824,72 829,72 833,72 837,72 841,72 845,72 850,72 854,72 858,72 862,72 866,72 871,72 875,72 879,72 883,72 888,72 892,72 896,72 900,72 904,72 909,72 913,72 917,72 921,72 925,72 930,72 934,72 938,72 942,72 947,72 951,72 955,72 959,72 963,72 968,72 972,72 976,72 980,72 984,72 989,72 993,72 997,72 1001,72 1006,72 1010,72 1014,72 1018,72 1022,72 1027,72 1031,72 1035,72 1039,72 1043,72 1048,72 1052,72 1056,72 1060,72 1065,72 1069,72 1073,72 1077,72 1081,72 1086,72 1090,72 1094,72 1098,72 1102,72 1107,72 1111,72 1115,72 1119,72 1124,72 1128,72 1132,72 1136,72 1140,72 1145,72 1149,72 1153,72 1157,72 1161,72 1166,72 1170,72 1174,72 1178,72 1183,72 1187,72 1191,72 1195,72 1199,72 1204,72 1208,72 1212,72 1216,72 1220,72 1225,72 1229,72 1233,72 1237,72 1242,72 1246,72 1250,72 1254,72 1258,72 1263,72 1267,72 1271,72 1275,72 1279,72 1284,72 1288,72 1292,72 1296,72 1301,72 1305,72 1309,72 1313,72 1317,72 1322,72 1326,72 1330,72 " stroke-dasharray="8,4"/>
<polyline fill="none" opacity="1" stroke="#008000" stroke-width="2" points="70,42 74,52 78,63 83,73 87,83 91,93 95,103 99,112 104,121 108,131 112,140 116,149 121,157 125,166 129,175 133,183 137,191 142,199 146,207 150,215 154,223 158,230 163,238 167,245 171,252 175,259 180,266 184,273 188,280 192,286 196,293 201,299 205,305 209,312 213,318 217,324 222,330 226,335 230,341 234,347 239,352 243,357 247,363 251,368 255,373 260,378 264,383 268,388 272,393 276,398 281,402 285,407 289,411 293,416 298,420 302,424 306,429 310,433 314,437 319,441 323,445 327,449 331,453 335,456 340,460 344,464 348,467 352,471 357,474 361,478 365,481 369,484 373,487 378,491 382,494 386,497 390,500 394,503 399,506 403,509 407,511 411,514 416,517 420,520 424,522 428,525 432,527 437,530 441,532 445,535 449,537 453,539 458,542 462,544 466,546 470,549 475,551 479,553 483,555 487,557 491,559 496,561 500,563 504,565 508,567 512,569 517,570 521,572 525,574 529,576 534,577 538,579 542,581 546,582 550,584 555,586 559,587 563,589 567,590 571,592 576,593 580,595 584,596 588,597 593,599 597,600 601,601 605,603 609,604 614,605 618,606 622,608 626,609 630,610 635,611 639,612 643,613 647,614 652,615 656,617 660,618 664,619 668,620 673,621 677,622 681,622 685,623 689,624 694,625 698,626 702,627 706,628 711,629 715,630 719,630 723,631 727,632 732,633 736,634 740,634 744,635 748,636 753,637 757,637 761,638 765,639 770,639 774,640 778,641 782,641 786,642 791,642 795,643 799,644 803,644 807,645 812,645 816,646 820,647 824,647 829,648 833,648 837,649 841,649 845,650 850,650 854,651 858,651 862,652 866,652 871,653 875,653 879,653 883,654 888,654 892,655 896,655 900,655 904,656 909,656 913,657 917,657 921,657 925,658 930,658 934,658 938,659 942,659 947,659 951,660 955,660 959,660 963,661 968,661 972,661 976,662 980,662 984,662 989,663 993,663 997,663 1001,663 1006,664 1010,664 1014,664 1018,664 1022,665 1027,665 1031,665 1035,665 1039,666 1043,666 1048,666 1052,666 1056,666 1060,667 1065,667 1069,667 1073,667 1077,668 1081,668 1086,668 1090,668 1094,668 1098,668 1102,669 1107,669 1111,669 1115,669 1119,669 1124,669 1128,670 1132,670 1136,670 1140,670 1145,670 1149,670 1153,671 1157,671 1161,671 1166,671 1170,671 1174,671 1178,671 1183,672 1187,672 1191,672 1195,672 1199,672 1204,672 1208,672 1212,672 1216,673 1220,673 1225,673 1229,673 1233,673 1237,673 1242,673 1246,673 1250,673 1254,673 1258,674 1263,674 1267,674 1271,674 1275,674 1279,674 1284,674 1288,674 1292,674 1296,674 1301,674 1305,675 1309,675 1313,675 1317,675 1322,675 1326,675 1330,675 "/>
<polyline fill="none" opacity="1" stroke="#008000" stroke-width="2" points="70,566 74,563 78,560 83,557 87,554 91,551 95,548 99,545 104,542 108,539 112,537 116,534 121,531 125,529 129,527 133,524 137,522 142,520 146,518 150,516 154,514 158,513 163,511 167,510 171,509 175,508 180,507 184,506 188,505 192,505 196,505 201,505 205,505 209,505 213,505 217,506 222,506 226,507 230,508 234,509 239,510 243,512 247,513 251,515 255,516 260,518 264,520 268,522 272,525 276,527 281,529 285,532 289,534 293,537 298,540 302,543 306,546 310,549 314,552 319,555 323,558 327,561 331,564 335,567 340,570 344,573 348,576 352,579 357,582 361,585 365,588 369,591 373,594 378,596 382,599 386,602 390,604 394,607 399,609 403,611 407,613 411,615 416,617 420,619 424,620 428,622 432,623 437,624 441,625 445,626 449,627 453,627 458,628 462,628 466,628 470,628 475,628 479,628 483,627 487,626 491,626 496,625 500,624 504,622 508,621 512,619 517,618 521,616 525,614 529,612 534,610 538,608 542,605 546,603 550,600 555,598 559,595 563,592 567,589 571,587 576,584 580,581 584,578 588,575 593,572 597,568 601,565 605,562 609,559 614,556 618,553 622,550 626,547 630,544 635,541 639,539 643,536 647,533 652,531 656,528 660,526 664,523 668,521 673,519 677,517 681,515 685,514 689,512 694,511 698,510 702,508 706,507 711,507 715,506 719,505 723,505 727,505 732,505 736,505 740,505 744,505 748,506 753,506 757,507 761,508 765,509 770,511 774,512 778,514 782,515 786,517 791,519 795,521 799,523 803,525 807,528 812,530 816,533 820,535 824,538 829,541 833,544 837,547 841,550 845,553 850,556 854,559 858,562 862,565 866,568 871,571 875,574 879,577 883,580 888,583 892,586 896,589 900,592 904,595 909,597 913,600 917,603 921,605 925,607 930,610 934,612 938,614 942,616 947,618 951,619 955,621 959,622 963,623 968,625 972,626 976,626 980,627 984,628 989,628 993,628 997,628 1001,628 1006,628 1010,627 1014,627 1018,626 1022,625 1027,624 1031,623 1035,622 1039,620 1043,619 1048,617 1052,615 1056,613 1060,611 1065,609 1069,607 1073,605 1077,602 1081,600 1086,597 1090,594 1094,591 1098,589 1102,586 1107,583 1111,580 1115,577 1119,574 1124,570 1128,567 1132,564 1136,561 1140,558 1145,555 1149,552 1153,549 1157,546 1161,543 1166,540 1170,538 1174,535 1178,532 1183,530 1187,527 1191,525 1195,523 1199,521 1204,519 1208,517 1212,515 1216,513 1220,512 1225,510 1229,509 1233,508 1237,507 1242,506 1246,506 1250,505 1254,505 1258,505 1263,505 1267,505 1271,505 1275,505 1279,506 1284,507 1288,508 1292,509 1296,510 1301,511 1305,512 1309,514 1313,516 1317,518 1322,520 1326,522 1330,524 "/>
<polyline fill="none" opacity="1" stroke="#008000" stroke-width="2" points="70,67 74,67 78,67 83,67 87,68 91,69 95,70 99,71 104,72 108,74 112,75 116,77 121,79 125,81 129,84 133,86 137,89 142,92 146,95 150,98 154,101 158,105 163,108 167,112 171,116 175,120 180,124 184,129 188,133 192,138 196,143 201,148 205,153 209,158 213,163 217,168 222,174 226,179 230,185 234,191 239,197 243,203 247,209 251,215 255,221 260,228 264,234 268,241 272,247 276,254 281,261 285,267 289,274 293,281 298,288 302,295 306,302 310,309 314,316 319,323 323,330 327,337 331,344 335,351 340,358 344,365 348,372 352,379 357,387 361,394 365,401 369,407 373,414 378,421 382,428 386,435 390,442 394,448 399,455 403,461 407,468 411,474 416,481 420,487 424,493 428,499 432,505 437,511 441,517 445,522 449,528 453,533 458,539 462,544 466,549 470,554 475,559 479,564 483,568 487,573 491,577 496,581 500,585 504,589 508,593 512,596 517,600 521,603 525,606 529,609 534,612 538,615 542,617 546,619 550,621 555,623 559,625 563,627 567,628 571,629 576,630 580,631 584,632 588,633 593,633 597,633 601,633 605,633 609,633 614,632 618,632 622,631 626,630 630,629 635,627 639,626 643,624 647,622 652,620 656,618 660,615 664,613 668,610 673,607 677,604 681,601 685,597 689,594 694,590 698,586 702,582 706,578 711,574 715,570 719,565 723,560 727,556 732,551 736,546 740,541 744,535 748,530 753,524 757,519 761,513 765,507 770,501 774,495 778,489 782,483 786,476 791,470 795,464 799,457 803,450 807,444 812,437 816,430 820,423 824,417 829,410 833,403 837,396 841,389 845,382 850,375 854,368 858,361 862,354 866,346 871,339 875,332 879,325 883,318 888,311 892,304 896,297 900,290 904,283 909,276 913,270 917,263 921,256 925,249 930,243 934,236 938,230 942,224 947,217 951,211 955,205 959,199 963,193 968,187 972,181 976,176 980,170 984,165 989,159 993,154 997,149 1001,144 1006,139 1010,135 1014,130 1018,126 1022,122 1027,117 1031,113 1035,110 1039,106 1043,102 1048,99 1052,96 1056,93 1060,90 1065,87 1069,85 1073,82 1077,80 1081,78 1086,76 1090,74 1094,73 1098,71 1102,70 1107,69 1111,68 1115,68 1119,67 1124,67 1128,67 1132,67 1136,67 1140,67 1145,68 1149,69 1153,70 1157,71 1161,72 1166,73 1170,75 1174,77 1178,79 1183,81 1187,83 1191,86 1195,88 1199,91 1204,94 1208,97 1212,100 1216,104 1220,107 1225,111 1229,115 1233,119 1237,123 1242,127 1246,132 1250,136 1254,141 1258,146 1263,151 1267,156 1271,161 1275,167 1279,172 1284,178 1288,183 1292,189 1296,195 1301,201 1305,207 1309,213 1313,219 1317,226 1322,232 1326,239 1330,245 "/>
<polyline fill="none" opacity="1" stroke="#008000" stroke-width="2" points="70,72 74,72 78,72 83,72 87,72 91,72 95,72 99,72 104,72 108,72 112,72 116,72 121,72 125,72 129,72 133,72 137,72 142,72 146,72 150,72 154,72 158,72 163,72 167,72 171,72 175,72 180,72 184,72 188,72 192,72 196,72 201,72 205,72 209,72 213,72 217,72 222,72 226,72 230,72 234,72 239,72 243,72 247,72 251,72 255,72 260,72 264,72 268,72 272,72 276,72 281,72 285,72 289,72 293,72 298,72 302,72 306,72 310,72 314,72 319,72 323,72 327,72 331,72 335,72 340,72 344,72 348,72 352,72 357,72 361,72 365,72 369,72 373,72 378,72 382,72 386,72 390,72 394,72 399,72 403,72 407,72 411,72 416,72 420,72 424,72 428,72 432,72 437,72 441,72 445,72 449,72 453,72 458,72 462,72 466,72 470,72 475,72 479,72 483,72 487,72 491,72 496,72 500,72 504,72 508,72 512,72 517,72 521,72 525,72 529,72 534,72 538,72 542,72 546,72 550,72 555,72 559,72 563,72 567,72 571,72 576,72 580,72 584,72 588,72 593,72 597,72 601,72 605,72 609,72 614,72 618,72 622,72 626,72 630,72 635,72 639,72 643,72 647,72 652,72 656,72 660,72 664,72 668,72 673,72 677,72 681,72 685,72 689,72 694,72 698,72 702,72 706,72 711,72 715,72 719,72 723,72 727,72 732,72 736,72 740,72 744,72 748,72 753,72 757,72 761,72 765,72 770,72 774,72 778,72 782,72 786,72 791,72 795,72 799,72 803,72 807,72 812,72 816,72 820,72 824,72 829,72 833,72 837,72 841,72 845,72 850,72 854,72 858,72 862,72 866,72 871,72 875,72 879,72 883,72 888,72 892,72 896,72 900,72 904,72 909,72 913,72 917,72 921,72 925,72 930,72 934,72 938,72 942,72 947,72 951,72 955,72 959,72 963,72 968,72 972,72 976,72 980,72 984,72 989,72 993,72 997,72 1001,72 1006,72 1010,72 1014,72 1018,72 1022,72 1027,72 1031,72 1035,72 1039,72 1043,72 1048,72 1052,72 1056,72 1060,72 1065,72 1069,72 1073,72 1077,72 1081,72 1086,72 1090,72 1094,72 1098,72 1102,72 1107,72 1111,72 1115,72 1119,72 1124,72 1128,72 1132,72 1136,72 1140,72 1145,72 1149,72 1153,72 1157,72 1161,72 1166,72 1170,72 1174,72 1178,72 1183,72 1187,72 1191,72 1195,72 1199,72 1204,72 1208,72 1212,72 1216,72 1220,72 1225,72 1229,72 1233,72 1237,72 1242,72 1246,72 1250,72 1254,72 1258,72 1263,72 1267,72 1271,72 1275,72 1279,72 1284,72 1288,72 1292,72 1296,72 1301,72 1305,72 1309,72 1313,72 1317,72 1322,72 1326,72 1330,72 " stroke-dasharray="8,4"/>
<polyline fill="none" opacity="1" stroke="#800080" stroke-width="2" points="70,42 74,52 78,63 83,73 87,83 91,93 95,103 99,112 104,121 108,131 112,140 116,149 121,157 125,166 129,175 133,183 137,191 142,199 146,207 150,215 154,223 158,230 163,238 167,245 171,252 175,259 180,266 184,273 188,280 192,286 196,293 201,299 205,305 209,312 213,318 217,324 222,330 226,335 230,341 234,347 239,352 243,357 247,363 251,368 255,373 260,378 264,383 268,388 272,393 276,398 281,402 285,407 289,411 293,416 298,420 302,424 306,429 310,433 314,437 319,441 323,445 327,449 331,453 335,456 340,460 344,464 348,467 352,471 357,474 361,478 365,481 369,484 373,487 378,491 382,494 386,497 390,500 394,503 399,506 403,509 407,511 411,514 416,517 420,520 424,522 428,525 432,527 437,530 441,532 445,535 449,537 453,539 458,542 462,544 466,546 470,549 475,551 479,553 483,555 487,557 491,559 496,561 500,563 504,565 508,567 512,569 517,570 521,572 525,574 529,576 534,577 538,579 542,581 546,582 550,584 555,586 559,587 563,589 567,590 571,592 576,593 580,595 584,596 588,597 593,599 597,600 601,601 605,603 609,604 614,605 618,606 622,608 626,609 630,610 635,611 639,612 643,613 647,614 652,615 656,617 660,618 664,619 668,620 673,621 677,622 681,622 685,623 689,624 694,625 698,626 702,627 706,628 711,629 715,630 719,630 723,631 727,632 732,633 736,634 740,634 744,635 748,636 753,637 757,637 761,638 765,639 770,639 774,640 778,641 782,641 786,642 791,642 795,643 799,644 803,644 807,645 812,645 816,646 820,647 824,647 829,648 833,648 837,649 841,649 845,650 850,650 854,651 858,651 862,652 866,652 871,653 875,653 879,653 883,654 888,654 892,655 896,655 900,655 904,656 909,656 913,657 917,657 921,657 925,658 930,658 934,658 938,659 942,659 947,659 951,660 955,660 959,660 963,661 968,661 972,661 976,662 980,662 984,662 989,663 993,663 997,663 1001,663 1006,664 1010,664 1014,664 1018,664 1022,665 1027,665 1031,665 1035,665 1039,666 1043,666 1048,666 1052,666 1056,666 1060,667 1065,667 1069,667 1073,667 1077,668 1081,668 1086,668 1090,668 1094,668 1098,668 1102,669 1107,669 1111,669 1115,669 1119,669 1124,669 1128,670 1132,670 1136,670 1140,670 1145,670 1149,670 1153,671 1157,671 1161,671 1166,671 1170,671 1174,671 1178,671 1183,672 1187,672 1191,672 1195,672 1199,672 1204,672 1208,672 1212,672 1216,673 1220,673 1225,673 1229,673 1233,673 1237,673 1242,673 1246,673 1250,673 1254,673 1258,674 1263,674 1267,674 1271,674 1275,674 1279,674 1284,674 1288,674 1292,674 1296,674 1301,674 1305,675 1309,675 1313,675 1317,675 1322,675 1326,675 1330,675 "/>
<polyline fill="none" opacity="1" stroke="#800080" stroke-width="2" points="70,566 74,563 78,560 83,557 87,554 91,551 95,548 99,545 104,542 108,539 112,537 116,534 121,531 125,529 129,527 133,524 137,522 142,520 146,518 150,516 154,514 158,513 163,511 167,510 171,509 175,508 180,507 184,506 188,505 192,505 196,505 201,505 205,505 209,505 213,505 217,506 222,506 226,507 230,508 234,509 239,510 243,512 247,513 251,515 255,516 260,518 264,520 268,522 272,525 276,527 281,529 285,532 289,534 293,537 298,540 302,543 306,546 310,549 314,552 319,555 323,558 327,561 331,564 335,567 340,570 344,573 348,576 352,579 357,582 361,585 365,588 369,591 373,594 378,596 382,599 386,602 390,604 394,607 399,609 403,611 407,613 411,615 416,617 420,619 424,620 428,622 432,623 437,624 441,625 445,626 449,627 453,627 458,628 462,628 466,628 470,628 475,628 479,628 483,627 487,626 491,626 496,625 500,624 504,622 508,621 512,619 517,618 521,616 525,614 529,612 534,610 538,608 542,605 546,603 550,600 555,598 559,595 563,592 567,589 571,587 576,584 580,581 584,578 588,575 593,572 597,568 601,565 605,562 609,559 614,556 618,553 622,550 626,547 630,544 635,541 639,539 643,536 647,533 652,531 656,528 660,526 664,523 668,521 673,519 677,517 681,515 685,514 689,512 694,511 698,510 702,508 706,507 711,507 715,506 719,505 723,505 727,505 732,505 736,505 740,505 744,505 748,506 753,506 757,507 761,508 765,509 770,511 774,512 778,514 782,515 786,517 791,519 795,521 799,523 803,525 807,528 812,530 816,533 820,535 824,538 829,541 833,544 837,547 841,550 845,553 850,556 854,559 858,562 862,565 866,568 871,571 875,574 879,577 883,580 888,583 892,586 896,589 900,592 904,595 909,597 913,600 917,603 921,605 925,607 930,610 934,612 938,614 942,616 947,618 951,619 955,621 959,622 963,623 968,625 972,626 976,626 980,627 984,628 989,628 993,628 997,628 1001,628 1006,628 1010,627 1014,627 1018,626 1022,625 1027,624 1031,623 1035,622 1039,620 1043,619 1048,617 1052,615 1056,613 1060,611 1065,609 1069,607 1073,605 1077,602 1081,600 1086,597 1090,594 1094,591 1098,589 1102,586 1107,583 1111,580 1115,577 1119,574 1124,570 1128,567 1132,564 1136,561 1140,558 1145,555 1149,552 1153,549 1157,546 1161,543 1166,540 1170,538 1174,535 1178,532 1183,530 1187,527 1191,525 1195,523 1199,521 1204,519 1208,517 1212,515 1216,513 1220,512 1225,510 1229,509 1233,508 1237,507 1242,506 1246,506 1250,505 1254,505 1258,505 1263,505 1267,505 1271,505 1275,505 1279,506 1284,507 1288,508 1292,509 1296,510 1301,511 1305,512 1309,514 1313,516 1317,518 1322,520 1326,522 1330,524 "/>
<polyline fill="none" opacity="1" stroke="#800080" stroke-width="2" points="70,67 74,67 78,67 83,67 87,68 91,69 95,70 99,71 104,72 108,74 112,75 116,77 121,79 125,81 129,84 133,86 137,89 142,92 146,95 150,98 154,101 158,105 163,108 167,112 171,116 175,120 180,124 184,129 188,133 192,138 196,143 201,148 205,153 209,158 213,163 217,168 222,174 226,179 230,185 234,191 239,197 243,203 247,209 251,215 255,221 260,228 264,234 268,241 272,247 276,254 281,261 285,267 289,274 293,281 298,288 302,295 306,302 310,309 314,316 319,323 323,330 327,337 331,344 335,351 340,358 344,365 348,372 352,379 357,387 361,394 365,401 369,407 373,414 378,421 382,428 386,435 390,442 394,448 399,455 403,461 407,468 411,474 416,481 420,487 424,493 428,499 432,505 437,511 441,517 445,522 449,528 453,533 458,539 462,544 466,549 470,554 475,559 479,564 483,568 487,573 491,577 496,581 500,585 504,589 508,593 512,596 517,600 521,603 525,606 529,609 534,612 538,615 542,617 546,619 550,621 555,623 559,625 563,627 567,628 571,629 576,630 580,631 584,632 588,633 593,633 597,633 601,633 605,633 609,633 614,632 618,632 622,631 626,630 630,629 635,627 639,626 643,624 647,622 652,620 656,618 660,615 664,613 668,610 673,607 677,604 681,601 685,597 689,594 694,590 698,586 702,582 706,578 711,574 715,570 719,565 723,560 727,556 732,551 736,546 740,541 744,535 748,530 753,524 757,519 761,513 765,507 770,501 774,495 778,489 782,483 786,476 791,470 795,464 799,457 803,450 807,444 812,437 816,430 820,423 824,417 829,410 833,403 837,396 841,389 845,382 850,375 854,368 858,361 862,354 866,346 871,339 875,332 879,325 883,318 888,311 892,304 896,297 900,290 904,283 909,276 913,270 917,263 921,256 925,249 930,243 934,236 938,230 942,224 947,217 951,211 955,205 959,199 963,193 968,187 972,181 976,176 980,170 984,165 989,159 993,154 997,149 1001,144 1006,139 1010,135 1014,130 1018,126 1022,122 1027,117 1031,113 1035,110 1039,106 1043,102 1048,99 1052,96 1056,93 1060,90 1065,87 1069,85 1073,82 1077,80 1081,78 1086,76 1090,74 1094,73 1098,71 1102,70 1107,69 1111,68 1115,68 1119,67 1124,67 1128,67 1132,67 1136,67 1140,67 1145,68 1149,69 1153,70 1157,71 1161,72 1166,73 1170,75 1174,77 1178,79 1183,81 1187,83 1191,86 1195,88 1199,91 1204,94 1208,97 1212,100 1216,104 1220,107 1225,111 1229,115 1233,119 1237,123 1242,127 1246,132 1250,136 1254,141 1258,146 1263,151 1267,156 1271,161 1275,167 1279,172 1284,178 1288,183 1292,189 1296,195 1301,201 1305,207 1309,213 1313,219 1317,226 1322,232 1326,239 1330,245 "/>
<polyline fill="none" opacity="1" stroke="#800080" stroke-width="2" points="70,72 74,72 78,72 83,72 87,72 91,72 95,72 99,72 104,72 108,72 112,72 116,72 121,72 125,72 129,72 133,72 137,72 142,72 146,72 150,72 154,72 158,72 163,72 167,72 171,72 175,72 180,72 184,72 188,72 192,72 196,72 201,72 205,72 209,72 213,72 217,72 222,72 226,72 230,72 234,72 239,72 243,72 247,72 251,72 255,72 260,72 264,72 268,72 272,72 276,72 281,72 285,72 289,72 293,72 298,72 302,72 306,72 310,72 314,72 319,72 323,72 327,72 331,72 335,72 340,72 344,72 348,72 352,72 357,72 361,72 365,72 369,72 373,72 378,72 382,72 386,72 390,72 394,72 399,72 403,72 407,72 411,72 416,72 420,72 424,72 428,72 432,72 437,72 441,72 445,72 449,72 453,72 458,72 462,72 466,72 470,72 475,72 479,72 483,72 487,72 491,72 496,72 500,72 504,72 508,72 512,72 517,72 521,72 525,72 529,72 534,72 538,72 542,72 546,72 550,72 555,72 559,72 563,72 567,72 571,72 576,72 580,72 584,72 588,72 593,72 597,72 601,72 605,72 609,72 614,72 618,72 622,72 626,72 630,72 635,72 639,72 643,72 647,72 652,72 656,72 660,72 664,72 668,72 673,72 677,72 681,72 685,72 689,72 694,72 698,72 702,72 706,72 711,72 715,72 719,72 723,72 727,72 732,72 736,72 740,72 744,72 748,72 753,72 757,72 761,72 765,72 770,72 774,72 778,72 782,72 786,72 791,72 795,72 799,72 803,72 807,72 812,72 816,72 820,72 824,72 829,72 833,72 837,72 841,72 845,72 850,72 854,72 858,72 862,72 866,72 871,72 875,72 879,72 883,72 888,72 892,72 896,72 900,72 904,72 909,72 913,72 917,72 921,72 925,72 930,72 934,72 938,72 942,72 947,72 951,72 955,72 959,72 963,72 968,72 972,72 976,72 980,72 984,72 989,72 993,72 997,72 1001,72 1006,72 1010,72 1014,72 1018,72 1022,72 1027,72 1031,72 1035,72 1039,72 1043,72 1048,72 1052,72 1056,72 1060,72 1065,72 1069,72 1073,72 1077,72 1081,72 1086,72 1090,72 1094,72 1098,72 1102,72 1107,72 1111,72 1115,72 1119,72 1124,72 1128,72 1132,72 1136,72 1140,72 1145,72 1149,72 1153,72 1157,72 1161,72 1166,72 1170,72 1174,72 1178,72 1183,72 1187,72 1191,72 1195,72 1199,72 1204,72 1208,72 1212,72 1216,72 1220,72 1225,72 1229,72 1233,72 1237,72 1242,72 1246,72 1250,72 1254,72 1258,72 1263,72 1267,72 1271,72 1275,72 1279,72 1284,72 1288,72 1292,72 1296,72 1301,72 1305,72 1309,72 1313,72 1317,72 1322,72 1326,72 1330,72 " stroke-dasharray="8,4"/>
<polyline fill="none" opacity="1" stroke="#3B82F6" stroke-width="1" points="70,10 70,690 "/>
<polyline fill="none" opacity="1" stroke="#3B82F6" stroke-width="1" points="70,690 64,690 "/>
<polyline fill="none" opacity="1" stroke="#3B82F6" stroke-width="1" points="70,679 67,679 "/>
<polyline fill="none" opacity="1" stroke="#3B82F6" stroke-width="1" points="70,669 67,669 "/>
<polyline fill="none" opacity="1" stroke="#3B82F6" stroke-width="1" points="70,658 67,658 "/>
<polyline fill="none" opacity="1" stroke="#3B82F6" stroke-width="1" points="70,648 64,648 "/>
<polyline fill="none" opacity="1" stroke="#3B82F6" stroke-width="1" points="70,637 67,637 "/>
<polyline fill="none" opacity="1" stroke="#3B82F6" stroke-width="1" points="70,626 67,626 "/>
<polyline fill="none" opacity="1" stroke="#3B82F6" stroke-width="1" points="70,616 67,616 "/>
<polyline fill="none" opacity="1" stroke="#3B82F6" stroke-width="1" points="70,605 64,605 "/>
<polyline fill="none" opacity="1" stroke="#3B82F6" stroke-width="1" points="70,594 67,594 "/>
<polyline fill="none" opacity="1" stroke="#3B82F6" stroke-width="1" points="70,584 67,584 "/>
<polyline fill="none" opacity="1" stroke="#3B82F6" stroke-width="1" points="70,573 67,573 "/>
<polyline fill="none" opacity="1" stroke="#3B82F6" stroke-width="1" points="70,563 64,563 "/>
<polyline fill="none" opacity="1" stroke="#3B82F6" stroke-width="1" points="70,552 67,552 "/>
<polyline fill="none" opacity="1" stroke="#3B82F6" stroke-width="1" points="70,541 67,541 "/>
<polyline fill="none" opacity="1" stroke="#3B82F6" stroke-width="1" points="70,531 67,531 "/>
<polyline fill="none" opacity="1" stroke="#3B82F6" stroke-width="1" points="70,520 64,520 "/>
<polyline fill="none" opacity="1" stroke="#3B82F6" stroke-width="1" points="70,509 67,509 "/>
<polyline fill="none" opacity="1" stroke="#3B82F6" stroke-width="1" points="70,499 67,499 "/>
<polyline fill="none" opacity="1" stroke="#3B82F6" stroke-width="1" points="70,488 67,488 "/>
<polyline fill="none" opacity="1" stroke="#3B82F6" stroke-width="1" points="70,478 64,478 "/>
<polyline fill="none" opacity="1" stroke="#3B82F6" stroke-width="1" points="70,467 67,467 "/>
<polyline fill="none" opacity="1" stroke="#3B82F6" stroke-width="1" points="70,456 67,456 "/>
<polyline fill="none" opacity="1" stroke="#3B82F6" stroke-width="1" points="70,446 67,446 "/>
<polyline fill="none" opacity="1" stroke="#3B82F6" stroke-width="1" points="70,435 64,435 "/>
<polyline fill="none" opacity="1" stroke="#3B82F6" stroke-width="1" points="70,424 67,424 "/>
<polyline fill="none" opacity="1" stroke="#3B82F6" stroke-width="1" points="70,414 67,414 "/>
<polyline fill="none" opacity="1" stroke="#3B82F6" stroke-width="1" points="70,403 67,403 "/>
<polyline fill="none" opacity="1" stroke="#3B82F6" stroke-width="1" points="70,393 64,393 "/>
<polyline fill="none" opacity="1" stroke="#3B82F6" stroke-width="1" points="70,382 67,382 "/>
<polyline fill="none" opacity="1" stroke="#3B82F6" stroke-width="1" points="70,371 67,371 "/>
<polyline fill="none" opacity="1" stroke="#3B82F6" stroke-width="1" points="70,361 67,361 "/>
<polyline fill="none" opacity="1" stroke="#3B82F6" stroke-width="1" points="70,350 64,350 "/>
<polyline fill="none" opacity="1" stroke="#3B82F6" stroke-width="1" points="70,339 67,339 "/>
<polyline fill="none" opacity="1" stroke="#3B82F6" stroke-width="1" points="70,329 67,329 "/>
<polyline fill="none" opacity="1" stroke="#3B82F6" stroke-width="1" points="70,318 67,318 "/>
<polyline fill="none" opacity="1" stroke="#3B82F6" stroke-width="1" points="70,308 64,308 "/>
<polyline fill="none" opacity="1" stroke="#3B82F6" stroke-width="1" points="70,297 67,297 "/>
<polyline fill="none" opacity="1" stroke="#3B82F6" stroke-width="1" points="70,286 67,286 "/>
<polyline fill="none" opacity="1" stroke="#3B82F6" stroke-width="1" points="70,276 67,276 "/>
<polyline fill="none" opacity="1" stroke="#3B82F6" stroke-width="1" points="70,265 64,265 "/>
<polyline fill="none" opacity="1" stroke="#3B82F6" stroke-width="1" points="70,254 67,254 "/>
<polyline fill="none" opacity="1" stroke="#3B82F6" stroke-width="1" points="70,244 67,244 "/>
<polyline fill="none" opacity="1" stroke="#3B82F6" stroke-width="1" points="70,233 67,233 "/>
<polyline fill="none" opacity="1" stroke="#3B82F6" stroke-width="1" points="70,223 64,223 "/>
<polyline fill="none" opacity="1" stroke="#3B82F6" stroke-width="1" points="70,212 67,212 "/>
<polyline fill="none" opacity="1" stroke="#3B82F6" stroke-width="1" points="70,201 67,201 "/>
<polyline fill="none" opacity="1" stroke="#3B82F6" stroke-width="1" points="70,191 67,191 "/>
<polyline fill="none" opacity="1" stroke="#3B82F6" stroke-width="1" points="70,180 64,180 "/>
<polyline fill="none" opacity="1" stroke="#3B82F6" stroke-width="1" points="70,169 67,169 "/>
<polyline fill="none" opacity="1" stroke="#3B82F6" stroke-width="1" points="70,159 67,159 "/>
<polyline fill="none" opacity="1" stroke="#3B82F6" stroke-width="1" points="70,148 67,148 "/>
<polyline fill="none" opacity="1" stroke="#3B82F6" stroke-width="1" points="70,138 64,138 "/>
<polyline fill="none" opacity="1" stroke="#3B82F6" stroke-width="1" points="70,127 67,127 "/>
<polyline fill="none" opacity="1" stroke="#3B82F6" stroke-width="1" points="70,116 67,116 "/>
<polyline fill="none" opacity="1" stroke="#3B82F6" stroke-width="1" points="70,106 67,106 "/>
<polyline fill="none" opacity="1" stroke="#3B82F6" stroke-width="1" points="70,95 64,95 "/>
<polyline fill="none" opacity="1" stroke="#3B82F6" stroke-width="1" points="70,84 67,84 "/>
<polyline fill="none" opacity="1" stroke="#3B82F6" stroke-width="1" points="70,74 67,74 "/>
<polyline fill="none" opacity="1" stroke="#3B82F6" stroke-width="1" points="70,63 67,63 "/>
<polyline fill="none" opacity="1" stroke="#3B82F6" stroke-width="1" points="70,53 64,53 "/>
<polyline fill="none" opacity="1" stroke="#3B82F6" stroke-width="1" points="70,42 67,42 "/>
<polyline fill="none" opacity="1" stroke="#3B82F6" stroke-width="1" points="70,31 67,31 "/>
<polyline fill="none" opacity="1" stroke="#3B82F6" stroke-width="1" points="70,21 67,21 "/>
<polyline fill="none" opacity="1" stroke="#3B82F6" stroke-width="1" points="70,10 64,10 "/>
<polyline fill="none" opacity="1" stroke="#A855F7" stroke-width="1" points="10,10 10,690 "/>
<polyline fill="none" opacity="1" stroke="#A855F7" stroke-width="1" points="10,690 4,690 "/>
<polyline fill="none" opacity="1" stroke="#A855F7" stroke-width="1" points="10,679 7,679 "/>
<polyline fill="none" opacity="1" stroke="#A855F7" stroke-width="1" points="10,667 7,667 "/>
<polyline fill="none" opacity="1" stroke="#A855F7" stroke-width="1" points="10,656 7,656 "/>
<polyline fill="none" opacity="1" stroke="#A855F7" stroke-width="1" points="10,645 7,645 "/>
<polyline fill="none" opacity="1" stroke="#A855F7" stroke-width="1" points="10,633 4,633 "/>
<polyline fill="none" opacity="1" stroke="#A855F7" stroke-width="1" points="10,622 7,622 "/>
<polyline fill="none" opacity="1" stroke="#A855F7" stroke-width="1" points="10,611 7,611 "/>
<polyline fill="none" opacity="1" stroke="#A855F7" stroke-width="1" points="10,599 7,599 "/>
<polyline fill="none" opacity="1" stroke="#A855F7" stroke-width="1" points="10,588 7,588 "/>
<polyline fill="none" opacity="1" stroke="#A855F7" stroke-width="1" points="10,577 4,577 "/>
<polyline fill="none" opacity="1" stroke="#A855F7" stroke-width="1" points="10,565 7,565 "/>
<polyline fill="none" opacity="1" stroke="#A855F7" stroke-width="1" points="10,554 7,554 "/>
<polyline fill="none" opacity="1" stroke="#A855F7" stroke-width="1" points="10,543 7,543 "/>
<polyline fill="none" opacity="1" stroke="#A855F7" stroke-width="1" points="10,531 7,531 "/>
<polyline fill="none" opacity="1" stroke="#A855F7" stroke-width="1" points="10,520 4,520 "/>
<polyline fill="none" opacity="1" stroke="#A855F7" stroke-width="1" points="10,509 7,509 "/>
<polyline fill="none" opacity="1" stroke="#A855F7" stroke-width="1" points="10,497 7,497 "/>
<polyline fill="none" opacity="1" stroke="#A855F7" stroke-width="1" points="10,486 7,486 "/>
<polyline fill="none" opacity="1" stroke="#A855F7" stroke-width="1" points="10,475 7,475 "/>
<polyline fill="none" opacity="1" stroke="#A855F7" stroke-width="1" points="10,463 4,463 "/>
<polyline fill="none" opacity="1" stroke="#A855F7" stroke-width="1" points="10,452 7,452 "/>
<polyline fill="none" opacity="1" stroke="#A855F7" stroke-width="1" points="10,441 7,441 "/>
<polyline fill="none" opacity="1" stroke="#A855F7" stroke-width="1" points="10,429 7,429 "/>
<polyline fill="none" opacity="1" stroke="#A855F7" stroke-width="1" points="10,418 7,418 "/>
<polyline fill="none" opacity="1" stroke="#A855F7" stroke-width="1" points="10,407 4,407 "/>
<polyline fill="none" opacity="1" stroke="#A855F7" stroke-width="1" points="10,395 7,395 "/>
<polyline fill="none" opacity="1" stroke="#A855F7" stroke-width="1" points="10,384 7,384 "/>
<polyline fill="none" opacity="1" stroke="#A855F7" stroke-width="1" points="10,373 7,373 "/>
<polyline fill="none" opacity="1" stroke="#A855F7" stroke-width="1" points="10,361 7,361 "/>
<polyline fill="none" opacity="1" stroke="#A855F7" stroke-width="1" points="10,350 4,350 "/>
<polyline fill="none" opacity="1" stroke="#A855F7" stroke-width="1" points="10,339 7,339 "/>
<polyline fill="none" opacity="1" stroke="#A855F7" stroke-width="1" points="10,327 7,327 "/>
<polyline fill="none" opacity="1" stroke="#A855F7" stroke-width="1" points="10,316 7,316 "/>
<polyline fill="none" opacity="1" stroke="#A855F7" stroke-width="1" points="10,305 7,305 "/>
<polyline fill="none" opacity="1" stroke="#A855F7" stroke-width="1" points="10,293 4,293 "/>
<polyline fill="none" opacity="1" stroke="#A855F7" stroke-width="1" points="10,282 7,282 "/>
<polyline fill="none" opacity="1" stroke="#A855F7" stroke-width="1" points="10,271 7,271 "/>
<polyline fill="none" opacity="1" stroke="#A855F7" stroke-width="1" points="10,259 7,259 "/>
<polyline fill="none" opacity="1" stroke="#A855F7" stroke-width="1" points="10,248 7,248 "/>
<polyline fill="none" opacity="1" stroke="#A855F7" stroke-width="1" points="10,237 4,237 "/>
<polyline fill="none" opacity="1" stroke="#A855F7" stroke-width="1" points="10,225 7,225 "/>
<polyline fill="none" opacity="1" stroke="#A855F7" stroke-width="1" points="10,214 7,214 "/>
<polyline fill="none" opacity="1" stroke="#A855F7" stroke-width="1" points="10,203 7,203 "/>
<polyline fill="none" opacity="1" stroke="#A855F7" stroke-width="1" points="10,191 7,191 "/>
<polyline fill="none" opacity="1" stroke="#A855F7" stroke-width="1" points="10,180 4,180 "/>
<polyline fill="none" opacity="1" stroke="#A855F7" stroke-width="1" points="10,169 7,169 "/>
<polyline fill="none" opacity="1" stroke="#A855F7" stroke-width="1" points="10,157 7,157 "/>
<polyline fill="none" opacity="1" stroke="#A855F7" stroke-width="1" points="10,146 7,146 "/>
<polyline fill="none" opacity="1" stroke="#A855F7" stroke-width="1" points="10,135 7,135 "/>
<polyline fill="none" opacity="1" stroke="#A855F7" stroke-width="1" points="10,123 4,123 "/>
<polyline fill="none" opacity="1" stroke="#A855F7" stroke-width="1" points="10,112 7,112 "/>
<polyline fill="none" opacity="1" stroke="#A855F7" stroke-width="1" points="10,101 7,101 "/>
<polyline fill="none" opacity="1" stroke="#A855F7" stroke-width="1" points="10,89 7,89 "/>
<polyline fill="none" opacity="1" stroke="#A855F7" stroke-width="1" points="10,78 7,78 "/>
<polyline fill="none" opacity="1" stroke="#A855F7" stroke-width="1" points="10,67 4,67 "/>
<polyline fill="none" opacity="1" stroke="#A855F7" stroke-width="1" points="10,55 7,55 "/>
<polyline fill="none" opacity="1" stroke="#A855F7" stroke-width="1" points="10,44 7,44 "/>
<polyline fill="none" opacity="1" stroke="#A855F7" stroke-width="1" points="10,33 7,33 "/>
<polyline fill="none" opacity="1" stroke="#A855F7" stroke-width="1" points="10,21 7,21 "/>
<polyline fill="none" opacity="1" stroke="#A855F7" stroke-width="1" points="10,10 4,10 "/>
<polyline fill="none" opacity="1" stroke="#DC2626" stroke-width="1" points="1330,10 1330,690 "/>
<polyline fill="none" opacity="1" stroke="#DC2626" stroke-width="1" points="1330,690 1336,690 "/>
<polyline fill="none" opacity="1" stroke="#DC2626" stroke-width="1" points="1330,678 1333,678 "/>
<polyline fill="none" opacity="1" stroke="#DC2626" stroke-width="1" points="1330,665 1333,665 "/>
<polyline fill="none" opacity="1" stroke="#DC2626" stroke-width="1" points="1330,653 1333,653 "/>
<polyline fill="none" opacity="1" stroke="#DC2626" stroke-width="1" points="1330,641 1333,641 "/>
<polyline fill="none" opacity="1" stroke="#DC2626" stroke-width="1" points="1330,628 1336,628 "/>
<polyline fill="none" opacity="1" stroke="#DC2626" stroke-width="1" points="1330,616 1333,616 "/>
<polyline fill="none" opacity="1" stroke="#DC2626" stroke-width="1" points="1330,603 1333,603 "/>
<polyline fill="none" opacity="1" stroke="#DC2626" stroke-width="1" points="1330,591 1333,591 "/>
<polyline fill="none" opacity="1" stroke="#DC2626" stroke-width="1" points="1330,579 1333,579 "/>
<polyline fill="none" opacity="1" stroke="#DC2626" stroke-width="1" points="1330,566 1336,566 "/>
<polyline fill="none" opacity="1" stroke="#DC2626" stroke-width="1" points="1330,554 1333,554 "/>
<polyline fill="none" opacity="1" stroke="#DC2626" stroke-width="1" points="1330,542 1333,542 "/>
<polyline fill="none" opacity="1" stroke="#DC2626" stroke-width="1" points="1330,529 1333,529 "/>
<polyline fill="none" opacity="1" stroke="#DC2626" stroke-width="1" points="1330,517 1333,517 "/>
<polyline fill="none" opacity="1" stroke="#DC2626" stroke-width="1" points="1330,505 1336,505 "/>
<polyline fill="none" opacity="1" stroke="#DC2626" stroke-width="1" points="1330,492 1333,492 "/>
<polyline fill="none" opacity="1" stroke="#DC2626" stroke-width="1" points="1330,480 1333,480 "/>
<polyline fill="none" opacity="1" stroke="#DC2626" stroke-width="1" points="1330,467 1333,467 "/>
<polyline fill="none" opacity="1" stroke="#DC2626" stroke-width="1" points="1330,455 1333,455 "/>
<polyline fill="none" opacity="1" stroke="#DC2626" stroke-width="1" points="1330,443 1336,443 "/>
<polyline fill="none" opacity="1" stroke="#DC2626" stroke-width="1" points="1330,430 1333,430 "/>
<polyline fill="none" opacity="1" stroke="#DC2626" stroke-width="1" points="1330,418 1333,418 "/>
<polyline fill="none" opacity="1" stroke="#DC2626" stroke-width="1" points="1330,406 1333,406 "/>
<polyline fill="none" opacity="1" stroke="#DC2626" stroke-width="1" points="1330,393 1333,393 "/>
<polyline fill="none" opacity="1" stroke="#DC2626" stroke-width="1" points="1330,381 1336,381 "/>
<polyline fill="none" opacity="1" stroke="#DC2626" stroke-width="1" points="1330,369 1333,369 "/>
<polyline fill="none" opacity="1" stroke="#DC2626" stroke-width="1" points="1330,356 1333,356 "/>
<polyline fill="none" opacity="1" stroke="#DC2626" stroke-width="1" points="1330,344 1333,344 "/>
<polyline fill="none" opacity="1" stroke="#DC2626" stroke-width="1" points="1330,331 1333,331 "/>
<polyline fill="none" opacity="1" stroke="#DC2626" stroke-width="1" points="1330,319 1336,319 "/>
<polyline fill="none" opacity="1" stroke="#DC2626" stroke-width="1" points="1330,307 1333,307 "/>
<polyline fill="none" opacity="1" stroke="#DC2626" stroke-width="1" points="1330,294 1333,294 "/>
<polyline fill="none" opacity="1" stroke="#DC2626" stroke-width="1" points="1330,282 1333,282 "/>
<polyline fill="none" opacity="1" stroke="#DC2626" stroke-width="1" points="1330,270 1333,270 "/>
<polyline fill="none" opacity="1" stroke="#DC2626" stroke-width="1" points="1330,257 1336,257 "/>
<polyline fill="none" opacity="1" stroke="#DC2626" stroke-width="1" points="1330,245 1333,245 "/>
<polyline fill="none" opacity="1" stroke="#DC2626" stroke-width="1" points="1330,233 1333,233 "/>
<polyline fill="none" opacity="1" stroke="#DC2626" stroke-width="1" points="1330,220 1333,220 "/>
<polyline fill="none" opacity="1" stroke="#DC2626" stroke-width="1" points="1330,208 1333,208 "/>
<polyline fill="none" opacity="1" stroke="#DC2626" stroke-width="1" points="1330,195 1336,195 "/>
<polyline fill="none" opacity="1" stroke="#DC2626" stroke-width="1" points="1330,183 1333,183 "/>
<polyline fill="none" opacity="1" stroke="#DC2626" stroke-width="1" points="1330,171 1333,171 "/>
<polyline fill="none" opacity="1" stroke="#DC2626" stroke-width="1" points="1330,158 1333,158 "/>
<polyline fill="none" opacity="1" stroke="#DC2626" stroke-width="1" points="1330,146 1333,146 "/>
<polyline fill="none" opacity="1" stroke="#DC2626" stroke-width="1" points="1330,134 1336,134 "/>
<polyline fill="none" opacity="1" stroke="#DC2626" stroke-width="1" points="1330,121 1333,121 "/>
<polyline fill="none" opacity="1" stroke="#DC2626" stroke-width="1" points="1330,109 1333,109 "/>
<polyline fill="none" opacity="1" stroke="#DC2626" stroke-width="1" points="1330,97 1333,97 "/>
<polyline fill="none" opacity="1" stroke="#DC2626" stroke-width="1" points="1330,84 1333,84 "/>
<polyline fill="none" opacity="1" stroke="#DC2626" stroke-width="1" points="1330,72 1336,72 "/>
<polyline fill="none" opacity="1" stroke="#DC2626" stroke-width="1" points="1330,59 1333,59 "/>
<polyline fill="none" opacity="1" stroke="#DC2626" stroke-width="1" points="1330,47 1333,47 "/>
<polyline fill="none" opacity="1" stroke="#DC2626" stroke-width="1" points="1330,35 1333,35 "/>
<polyline fill="none" opacity="1" stroke="#DC2626" stroke-width="1" points="1330,22 1333,22 "/>
<polyline fill="none" opacity="1" stroke="#DC2626" stroke-width="1" points="1330,10 1336,10 "/>
<polyline fill="none" opacity="1" stroke="#475569" stroke-width="1" points="70,690 70,696 "/>
<polyline fill="none" opacity="1" stroke="#475569" stroke-width="1" points="112,690 112,693 "/>
<polyline fill="none" opacity="1" stroke="#475569" stroke-width="1" points="154,690 154,693 "/>
<polyline fill="none" opacity="1" stroke="#475569" stroke-width="1" points="196,690 196,693 "/>
<polyline fill="none" opacity="1" stroke="#475569" stroke-width="1" points="239,690 239,696 "/>
<polyline fill="none" opacity="1" stroke="#475569" stroke-width="1" points="281,690 281,693 "/>
<polyline fill="none" opacity="1" stroke="#475569" stroke-width="1" points="323,690 323,693 "/>
<polyline fill="none" opacity="1" stroke="#475569" stroke-width="1" points="365,690 365,693 "/>
<polyline fill="none" opacity="1" stroke="#475569" stroke-width="1" points="407,690 407,696 "/>
<polyline fill="none" opacity="1" stroke="#475569" stroke-width="1" points="449,690 449,693 "/>
<polyline fill="none" opacity="1" stroke="#475569" stroke-width="1" points="491,690 491,693 "/>
<polyline fill="none" opacity="1" stroke="#475569" stroke-width="1" points="534,690 534,693 "/>
<polyline fill="none" opacity="1" stroke="#475569" stroke-width="1" points="576,690 576,696 "/>
<polyline fill="none" opacity="1" stroke="#475569" stroke-width="1" points="618,690 618,693 "/>
<polyline fill="none" opacity="1" stroke="#475569" stroke-width="1" points="660,690 660,693 "/>
<polyline fill="none" opacity="1" stroke="#475569" stroke-width="1" points="702,690 702,693 "/>
<polyline fill="none" opacity="1" stroke="#475569" stroke-width="1" points="744,690 744,696 "/>
<polyline fill="none" opacity="1" stroke="#475569" stroke-width="1" points="786,690 786,693 "/>
<polyline fill="none" opacity="1" stroke="#475569" stroke-width="1" points="829,690 829,693 "/>
<polyline fill="none" opacity="1" stroke="#475569" stroke-width="1" points="871,690 871,693 "/>
<polyline fill="none" opacity="1" stroke="#475569" stroke-width="1" points="913,690 913,696 "/>
<polyline fill="none" opacity="1" stroke="#475569" stroke-width="1" points="955,690 955,693 "/>
<polyline fill="none" opacity="1" stroke="#475569" stroke-width="1" points="997,690 997,693 "/>
<polyline fill="none" opacity="1" stroke="#475569" stroke-width="1" points="1039,690 1039,693 "/>
<polyline fill="none" opacity="1" stroke="#475569" stroke-width="1" points="1081,690 1081,696 "/>
<polyline fill="none" opacity="1" stroke="#475569" stroke-width="1" points="1124,690 1124,693 "/>
<polyline fill="none" opacity="1" stroke="#475569" stroke-width="1" points="1166,690 1166,693 "/>
<polyline fill="none" opacity="1" stroke="#475569" stroke-width="1" points="1208,690 1208,693 "/>
<polyline fill="none" opacity="1" stroke="#475569" stroke-width="1" points="1250,690 1250,696 "/>
<polyline fill="none" opacity="1" stroke="#475569" stroke-width="1" points="1292,690 1292,693 "/>
</svg>
