<svg width="1400" height="700" viewBox="0 0 1400 700" xmlns="http://www.w3.org/2000/svg">
<rect x="0" y="0" width="1400" height="700" opacity="1" fill="#FFFFFF" stroke="none"/>
<polyline fill="none" opacity="0.4" stroke="#C8C8C8" stroke-width="0.5" stroke-dasharray="4,4" points="70,689 70,10 "/>
<polyline fill="none" opacity="0.4" stroke="#C8C8C8" stroke-width="0.5" stroke-dasharray="4,4" points="238,689 238,10 "/>
<polyline fill="none" opacity="0.4" stroke="#C8C8C8" stroke-width="0.5" stroke-dasharray="4,4" points="406,689 406,10 "/>
<polyline fill="none" opacity="0.4" stroke="#C8C8C8" stroke-width="0.5" stroke-dasharray="4,4" points="575,689 575,10 "/>
<polyline fill="none" opacity="0.4" stroke="#C8C8C8" stroke-width="0.5" stroke-dasharray="4,4" points="743,689 743,10 "/>
<polyline fill="none" opacity="0.4" stroke="#C8C8C8" stroke-width="0.5" stroke-dasharray="4,4" points="912,689 912,10 "/>
<polyline fill="none" opacity="0.4" stroke="#C8C8C8" stroke-width="0.5" stroke-dasharray="4,4" points="1080,689 1080,10 "/>
<polyline fill="none" opacity="0.4" stroke="#C8C8C8" stroke-width="0.5" stroke-dasharray="4,4" points="1248,689 1248,10 "/>
<polyline fill="none" opacity="0.4" stroke="#C8C8C8" stroke-width="0.5" stroke-dasharray="4,4" points="70,689 1329,689 "/>
<polyline fill="none" opacity="0.4" stroke="#C8C8C8" stroke-width="0.5" stroke-dasharray="4,4" points="70,647 1329,647 "/>
<polyline fill="none" opacity="0.4" stroke="#C8C8C8" stroke-width="0.5" stroke-dasharray="4,4" points="70,605 1329,605 "/>
<polyline fill="none" opacity="0.4" stroke="#C8C8C8" stroke-width="0.5" stroke-dasharray="4,4" points="70,562 1329,562 "/>
<polyline fill="none" opacity="0.4" stroke="#C8C8C8" stroke-width="0.5" stroke-dasharray="4,4" points="70,520 1329,520 "/>
<polyline fill="none" opacity="0.4" stroke="#C8C8C8" stroke-width="0.5" stroke-dasharray="4,4" points="70,477 1329,477 "/>
<polyline fill="none" opacity="0.4" stroke="#C8C8C8" stroke-width="0.5" stroke-dasharray="4,4" points="70,435 1329,435 "/>
<polyline fill="none" opacity="0.4" stroke="#C8C8C8" stroke-width="0.5" stroke-dasharray="4,4" points="70,392 1329,392 "/>
<polyline fill="none" opacity="0.4" stroke="#C8C8C8" stroke-width="0.5" stroke-dasharray="4,4" points="70,350 1329,350 "/>
<polyline fill="none" opacity="0.4" stroke="#C8C8C8" stroke-width="0.5" stroke-dasharray="4,4" points="70,308 1329,308 "/>
<polyline fill="none" opacity="0.4" stroke="#C8C8C8" stroke-width="0.5" stroke-dasharray="4,4" points="70,265 1329,265 "/>
<polyline fill="none" opacity="0.4" stroke="#C8C8C8" stroke-width="0.5" stroke-dasharray="4,4" points="70,223 1329,223 "/>
<polyline fill="none" opacity="0.4" stroke="#C8C8C8" stroke-width="0.5" stroke-dasharray="4,4" points="70,180 1329,180 "/>
<polyline fill="none" opacity="0.4" stroke="#C8C8C8" stroke-width="0.5" stroke-dasharray="4,4" points="70,138 1329,138 "/>
<polyline fill="none" opacity="0.4" stroke="#C8C8C8" stroke-width="0.5" stroke-dasharray="4,4" points="70,95 1329,95 "/>
<polyline fill="none" opacity="0.4" stroke="#C8C8C8" stroke-width="0.5" stroke-dasharray="4,4" points="70,53 1329,53 "/>
<polyline fill="none" opacity="0.4" stroke="#C8C8C8" stroke-width="0.5" stroke-dasharray="4,4" points="70,10 1329,10 "/>
<polyline fill="none" opacity="1" stroke="#475569" stroke-width="1" points="70,689 1329,689 "/>
<polyline fill="none" opacity="1" stroke="#3B82F6" stroke-width="2" points="70,42 74,52 78,63 83,73 87,83 91,93 95,103 99,112 104,121 108,131 112,140 116,149 121,157 125,166 129,175 133,183 137,191 142,199 146,207 150,215 154,223 158,230 163,238 167,245 171,252 175,259 180,266 184,273 188,280 192,286 196,293 201,299 205,305 209,312 213,318 217,324 222,330 226,335 230,341 234,347 239,352 243,357 247,363 251,368 255,373 260,378 264,383 268,388 272,393 276,398 281,402 285,407 289,411 293,416 298,420 302,424 306,429 310,433 314,437 319,441 323,445 327,449 331,453 335,456 340,460 344,464 348,467 352,471 357,474 361,478 365,481 369,484 373,487 378,491 382,494 386,497 390,500 394,503 399,506 403,509 407,511 411,514 416,517 420,520 424,522 428,525 432,527 437,530 441,532 445,535 449,537 453,539 458,542 462,544 466,546 470,549 475,551 479,553 483,555 487,557 491,559 496,561 500,563 504,565 508,567 512,569 517,570 521,572 525,574 529,576 534,577 538,579 542,581 546,582 550,584 555,586 559,587 563,589 567,590 571,592 576,593 580,595 584,596 588,597 593,599 597,600 601,601 605,603 609,604 614,605 618,606 622,608 626,609 630,610 635,611 639,612 643,613 647,614 652,615 656,617 660,618 664,619 668,620 673,621 677,622 681,622 685,623 689,624 694,625 698,626 702,627 706,628 711,629 715,630 719,630 723,631 727,632 732,633 736,634 740,634 744,635 748,636 753,637 757,637 761,638 765,639 770,639 774,640 778,641 782,641 786,642 791,642 795,643 799,644 803,644 807,645 812,645 816,646 820,647 824,647 829,648 833,648 837,649 841,649 845,650 850,650 854,651 858,651 862,652 866,652 871,653 875,653 879,653 883,654 888,654 892,655 896,655 900,655 904,656 909,656 913,657 917,657 921,657 925,658 930,658 934,658 938,659 942,659 947,659 951,660 955,660 959,660 963,661 968,661 972,661 976,662 980,662 984,662 989,663 993,663 997,663 1001,663 1006,664 1010,664 1014,664 1018,664 1022,665 1027,665 1031,665 1035,665 1039,666 1043,666 1048,666 1052,666 1056,666 1060,667 1065,667 1069,667 1073,667 1077,668 1081,668 1086,668 1090,668 1094,668 1098,668 1102,669 1107,669 1111,669 1115,669 1119,669 1124,669 1128,670 1132,670 1136,670 1140,670 1145,670 1149,670 1153,671 1157,671 1161,671 1166,671 1170,671 1174,671 1178,671 1183,672 1187,672 1191,672 1195,672 1199,672 1204,672 1208,672 1212,672 1216,673 1220,673 1225,673 1229,673 1233,673 1237,673 1242,673 1246,673 1250,673 1254,673 1258,674 1263,674 1267,674 1271,674 1275,674 1279,674 1284,674 1288,674 1292,674 1296,674 1301,674 1305,675 1309,675 1313,675 1317,675 1322,675 1326,675 1330,675 "/>
<polyline fill="none" opacity="1" stroke="#22C55E" stroke-width="2" points="70,350 74,322 78,294 83,266 87,240 91,214 95,190 99,167 104,147 108,128 112,112 116,97 121,86 125,77 129,71 133,67 137,67 142,69 146,74 150,82 154,92 158,105 163,121 167,139 171,159 175,180 180,204 184,229 188,255 192,282 196,310 201,338 205,367 209,395 213,422 217,449 222,475 226,500 230,523 234,545 239,564 243,582 247,597 251,610 255,620 260,627 264,632 268,633 272,632 276,628 281,622 285,612 289,600 293,586 298,569 302,550 306,529 310,506 314,482 319,456 323,429 327,402 331,374 335,345 340,317 344,289 348,262 352,235 357,210 361,186 365,164 369,143 373,125 378,109 382,95 386,84 390,76 394,70 399,67 403,67 407,70 411,75 416,83 420,94 424,108 428,124 432,142 437,162 441,184 445,208 449,233 453,260 458,287 462,315 466,343 470,371 475,399 479,427 483,454 487,480 491,504 496,527 500,548 504,568 508,585 512,599 517,611 521,621 525,628 529,632 534,633 538,632 542,627 546,620 550,610 555,598 559,583 563,566 567,546 571,525 576,502 580,477 584,451 588,425 593,397 597,369 601,340 605,312 609,284 614,257 618,231 622,206 626,182 630,160 635,140 639,122 643,107 647,93 652,83 656,75 660,69 664,67 668,67 673,70 677,76 681,85 685,96 689,110 694,127 698,145 702,166 706,188 711,212 715,238 719,264 723,292 727,319 732,348 736,376 740,404 744,432 748,458 753,484 757,508 761,531 765,552 770,571 774,587 778,601 782,613 786,622 791,629 795,632 799,633 803,631 807,626 812,619 816,609 820,596 824,580 829,563 833,543 837,521 841,498 845,473 850,447 854,420 858,392 862,364 866,336 871,308 875,280 879,253 883,227 888,202 892,178 896,157 900,137 904,119 909,104 913,91 917,81 921,74 925,69 930,67 934,68 938,71 942,78 947,87 951,99 955,113 959,130 963,149 968,169 972,192 976,216 980,242 984,269 989,296 993,324 997,353 1001,381 1006,409 1010,436 1014,463 1018,488 1022,512 1027,534 1031,555 1035,573 1039,590 1043,604 1048,615 1052,624 1056,630 1060,633 1065,633 1069,631 1073,625 1077,617 1081,607 1086,593 1090,578 1094,560 1098,540 1102,518 1107,494 1111,469 1115,443 1119,415 1124,387 1128,359 1132,331 1136,303 1140,275 1145,248 1149,222 1153,198 1157,175 1161,153 1166,134 1170,117 1174,102 1178,89 1183,80 1187,73 1191,68 1195,67 1199,68 1204,72 1208,79 1212,89 1216,101 1220,116 1225,133 1229,152 1233,173 1237,196 1242,221 1246,246 1250,273 1254,301 1258,329 1263,357 1267,386 1271,413 1275,441 1279,467 1284,492 1288,516 1292,538 1296,558 1301,576 1305,592 1309,606 1313,617 1317,625 1322,630 1326,633 1330,633 "/>
<polyline fill="none" opacity="1" stroke="#3B82F6" stroke-width="1" points="70,10 70,690 "/>
<polyline fill="none" opacity="1" stroke="#3B82F6" stroke-width="1" points="70,690 64,690 "/>
<polyline fill="none" opacity="1" stroke="#3B82F6" stroke-width="1" points="70,679 67,679 "/>
<polyline fill="none" opacity="1" stroke="#3B82F6" stroke-width="1" points="70,669 67,669 "/>
<polyline fill="none" opacity="1" stroke="#3B82F6" stroke-width="1" points="70,658 67,658 "/>
<polyline fill="none" opacity="1" stroke="#3B82F6" stroke-width="1" points="70,648 64,648 "/>
<polyline fill="none" opacity="1" stroke="#3B82F6" stroke-width="1" points="70,637 67,637 "/>
<polyline fill="none" opacity="1" stroke="#3B82F6" stroke-width="1" points="70,626 67,626 "/>
<polyline fill="none" opacity="1" stroke="#3B82F6" stroke-width="1" points="70,616 67,616 "/>
<polyline fill="none" opacity="1" stroke="#3B82F6" stroke-width="1" points="70,605 64,605 "/>
<polyline fill="none" opacity="1" stroke="#3B82F6" stroke-width="1" points="70,594 67,594 "/>
<polyline fill="none" opacity="1" stroke="#3B82F6" stroke-width="1" points="70,584 67,584 "/>
<polyline fill="none" opacity="1" stroke="#3B82F6" stroke-width="1" points="70,573 67,573 "/>
<polyline fill="none" opacity="1" stroke="#3B82F6" stroke-width="1" points="70,563 64,563 "/>
<polyline fill="none" opacity="1" stroke="#3B82F6" stroke-width="1" points="70,552 67,552 "/>
<polyline fill="none" opacity="1" stroke="#3B82F6" stroke-width="1" points="70,541 67,541 "/>
<polyline fill="none" opacity="1" stroke="#3B82F6" stroke-width="1" points="70,531 67,531 "/>
<polyline fill="none" opacity="1" stroke="#3B82F6" stroke-width="1" points="70,520 64,520 "/>
<polyline fill="none" opacity="1" stroke="#3B82F6" stroke-width="1" points="70,509 67,509 "/>
<polyline fill="none" opacity="1" stroke="#3B82F6" stroke-width="1" points="70,499 67,499 "/>
<polyline fill="none" opacity="1" stroke="#3B82F6" stroke-width="1" points="70,488 67,488 "/>
<polyline fill="none" opacity="1" stroke="#3B82F6" stroke-width="1" points="70,478 64,478 "/>
<polyline fill="none" opacity="1" stroke="#3B82F6" stroke-width="1" points="70,467 67,467 "/>
<polyline fill="none" opacity="1" stroke="#3B82F6" stroke-width="1" points="70,456 67,456 "/>
<polyline fill="none" opacity="1" stroke="#3B82F6" stroke-width="1" points="70,446 67,446 "/>
<polyline fill="none" opacity="1" stroke="#3B82F6" stroke-width="1" points="70,435 64,435 "/>
<polyline fill="none" opacity="1" stroke="#3B82F6" stroke-width="1" points="70,424 67,424 "/>
<polyline fill="none" opacity="1" stroke="#3B82F6" stroke-width="1" points="70,414 67,414 "/>
<polyline fill="none" opacity="1" stroke="#3B82F6" stroke-width="1" points="70,403 67,403 "/>
<polyline fill="none" opacity="1" stroke="#3B82F6" stroke-width="1" points="70,393 64,393 "/>
<polyline fill="none" opacity="1" stroke="#3B82F6" stroke-width="1" points="70,382 67,382 "/>
<polyline fill="none" opacity="1" stroke="#3B82F6" stroke-width="1" points="70,371 67,371 "/>
<polyline fill="none" opacity="1" stroke="#3B82F6" stroke-width="1" points="70,361 67,361 "/>
<polyline fill="none" opacity="1" stroke="#3B82F6" stroke-width="1" points="70,350 64,350 "/>
<polyline fill="none" opacity="1" stroke="#3B82F6" stroke-width="1" points="70,339 67,339 "/>
<polyline fill="none" opacity="1" stroke="#3B82F6" stroke-width="1" points="70,329 67,329 "/>
<polyline fill="none" opacity="1" stroke="#3B82F6" stroke-width="1" points="70,318 67,318 "/>
<polyline fill="none" opacity="1" stroke="#3B82F6" stroke-width="1" points="70,308 64,308 "/>
<polyline fill="none" opacity="1" stroke="#3B82F6" stroke-width="1" points="70,297 67,297 "/>
<polyline fill="none" opacity="1" stroke="#3B82F6" stroke-width="1" points="70,286 67,286 "/>
<polyline fill="none" opacity="1" stroke="#3B82F6" stroke-width="1" points="70,276 67,276 "/>
<polyline fill="none" opacity="1" stroke="#3B82F6" stroke-width="1" points="70,265 64,265 "/>
<polyline fill="none" opacity="1" stroke="#3B82F6" stroke-width="1" points="70,254 67,254 "/>
<polyline fill="none" opacity="1" stroke="#3B82F6" stroke-width="1" points="70,244 67,244 "/>
<polyline fill="none" opacity="1" stroke="#3B82F6" stroke-width="1" points="70,233 67,233 "/>
<polyline fill="none" opacity="1" stroke="#3B82F6" stroke-width="1" points="70,223 64,223 "/>
<polyline fill="none" opacity="1" stroke="#3B82F6" stroke-width="1" points="70,212 67,212 "/>
<polyline fill="none" opacity="1" stroke="#3B82F6" stroke-width="1" points="70,201 67,201 "/>
<polyline fill="none" opacity="1" stroke="#3B82F6" stroke-width="1" points="70,191 67,191 "/>
<polyline fill="none" opacity="1" stroke="#3B82F6" stroke-width="1" points="70,180 64,180 "/>
<polyline fill="none" opacity="1" stroke="#3B82F6" stroke-width="1" points="70,169 67,169 "/>
<polyline fill="none" opacity="1" stroke="#3B82F6" stroke-width="1" points="70,159 67,159 "/>
<polyline fill="none" opacity="1" stroke="#3B82F6" stroke-width="1" points="70,148 67,148 "/>
<polyline fill="none" opacity="1" stroke="#3B82F6" stroke-width="1" points="70,138 64,138 "/>
<polyline fill="none" opacity="1" stroke="#3B82F6" stroke-width="1" points="70,127 67,127 "/>
<polyline fill="none" opacity="1" stroke="#3B82F6" stroke-width="1" points="70,116 67,116 "/>
<polyline fill="none" opacity="1" stroke="#3B82F6" stroke-width="1" points="70,106 67,106 "/>
<polyline fill="none" opacity="1" stroke="#3B82F6" stroke-width="1" points="70,95 64,95 "/>
<polyline fill="none" opacity="1" stroke="#3B82F6" stroke-width="1" points="70,84 67,84 "/>
<polyline fill="none" opacity="1" stroke="#3B82F6" stroke-width="1" points="70,74 67,74 "/>
<polyline fill="none" opacity="1" stroke="#3B82F6" stroke-width="1" points="70,63 67,63 "/>
<polyline fill="none" opacity="1" stroke="#3B82F6" stroke-width="1" points="70,53 64,53 "/>
<polyline fill="none" opacity="1" stroke="#3B82F6" stroke-width="1" points="70,42 67,42 "/>
<polyline fill="none" opacity="1" stroke="#3B82F6" stroke-width="1" points="70,31 67,31 "/>
<polyline fill="none" opacity="1" stroke="#3B82F6" stroke-width="1" points="70,21 67,21 "/>
<polyline fill="none" opacity="1" stroke="#3B82F6" stroke-width="1" points="70,10 64,10 "/>
<polyline fill="none" opacity="1" stroke="#22C55E" stroke-width="1" points="10,10 10,690 "/>
<polyline fill="none" opacity="1" stroke="#22C55E" stroke-width="1" points="10,690 4,690 "/>
<polyline fill="none" opacity="1" stroke="#22C55E" stroke-width="1" points="10,676 7,676 "/>
<polyline fill="none" opacity="1" stroke="#22C55E" stroke-width="1" points="10,662 7,662 "/>
<polyline fill="none" opacity="1" stroke="#22C55E" stroke-width="1" points="10,648 7,648 "/>
<polyline fill="none" opacity="1" stroke="#22C55E" stroke-width="1" points="10,633 4,633 "/>
<polyline fill="none" opacity="1" stroke="#22C55E" stroke-width="1" points="10,619 7,619 "/>
<polyline fill="none" opacity="1" stroke="#22C55E" stroke-width="1" points="10,605 7,605 "/>
<polyline fill="none" opacity="1" stroke="#22C55E" stroke-width="1" points="10,591 7,591 "/>
<polyline fill="none" opacity="1" stroke="#22C55E" stroke-width="1" points="10,577 4,577 "/>
<polyline fill="none" opacity="1" stroke="#22C55E" stroke-width="1" points="10,563 7,563 "/>
<polyline fill="none" opacity="1" stroke="#22C55E" stroke-width="1" points="10,548 7,548 "/>
<polyline fill="none" opacity="1" stroke="#22C55E" stroke-width="1" points="10,534 7,534 "/>
<polyline fill="none" opacity="1" stroke="#22C55E" stroke-width="1" points="10,520 4,520 "/>
<polyline fill="none" opacity="1" stroke="#22C55E" stroke-width="1" points="10,506 7,506 "/>
<polyline fill="none" opacity="1" stroke="#22C55E" stroke-width="1" points="10,492 7,492 "/>
<polyline fill="none" opacity="1" stroke="#22C55E" stroke-width="1" points="10,478 7,478 "/>
<polyline fill="none" opacity="1" stroke="#22C55E" stroke-width="1" points="10,463 4,463 "/>
<polyline fill="none" opacity="1" stroke="#22C55E" stroke-width="1" points="10,449 7,449 "/>
<polyline fill="none" opacity="1" stroke="#22C55E" stroke-width="1" points="10,435 7,435 "/>
<polyline fill="none" opacity="1" stroke="#22C55E" stroke-width="1" points="10,421 7,421 "/>
<polyline fill="none" opacity="1" stroke="#22C55E" stroke-width="1" points="10,407 4,407 "/>
<polyline fill="none" opacity="1" stroke="#22C55E" stroke-width="1" points="10,393 7,393 "/>
<polyline fill="none" opacity="1" stroke="#22C55E" stroke-width="1" points="10,378 7,378 "/>
<polyline fill="none" opacity="1" stroke="#22C55E" stroke-width="1" points="10,364 7,364 "/>
<polyline fill="none" opacity="1" stroke="#22C55E" stroke-width="1" points="10,350 4,350 "/>
<polyline fill="none" opacity="1" stroke="#22C55E" stroke-width="1" points="10,336 7,336 "/>
<polyline fill="none" opacity="1" stroke="#22C55E" stroke-width="1" points="10,322 7,322 "/>
<polyline fill="none" opacity="1" stroke="#22C55E" stroke-width="1" points="10,308 7,308 "/>
<polyline fill="none" opacity="1" stroke="#22C55E" stroke-width="1" points="10,293 4,293 "/>
<polyline fill="none" opacity="1" stroke="#22C55E" stroke-width="1" points="10,279 7,279 "/>
<polyline fill="none" opacity="1" stroke="#22C55E" stroke-width="1" points="10,265 7,265 "/>
<polyline fill="none" opacity="1" stroke="#22C55E" stroke-width="1" points="10,251 7,251 "/>
<polyline fill="none" opacity="1" stroke="#22C55E" stroke-width="1" points="10,237 4,237 "/>
<polyline fill="none" opacity="1" stroke="#22C55E" stroke-width="1" points="10,223 7,223 "/>
<polyline fill="none" opacity="1" stroke="#22C55E" stroke-width="1" points="10,208 7,208 "/>
<polyline fill="none" opacity="1" stroke="#22C55E" stroke-width="1" points="10,194 7,194 "/>
<polyline fill="none" opacity="1" stroke="#22C55E" stroke-width="1" points="10,180 4,180 "/>
<polyline fill="none" opacity="1" stroke="#22C55E" stroke-width="1" points="10,166 7,166 "/>
<polyline fill="none" opacity="1" stroke="#22C55E" stroke-width="1" points="10,152 7,152 "/>
<polyline fill="none" opacity="1" stroke="#22C55E" stroke-width="1" points="10,138 7,138 "/>
<polyline fill="none" opacity="1" stroke="#22C55E" stroke-width="1" points="10,123 4,123 "/>
<polyline fill="none" opacity="1" stroke="#22C55E" stroke-width="1" points="10,109 7,109 "/>
<polyline fill="none" opacity="1" stroke="#22C55E" stroke-width="1" points="10,95 7,95 "/>
<polyline fill="none" opacity="1" stroke="#22C55E" stroke-width="1" points="10,81 7,81 "/>
<polyline fill="none" opacity="1" stroke="#22C55E" stroke-width="1" points="10,67 4,67 "/>
<polyline fill="none" opacity="1" stroke="#22C55E" stroke-width="1" points="10,53 7,53 "/>
<polyline fill="none" opacity="1" stroke="#22C55E" stroke-width="1" points="10,38 7,38 "/>
<polyline fill="none" opacity="1" stroke="#22C55E" stroke-width="1" points="10,24 7,24 "/>
<polyline fill="none" opacity="1" stroke="#22C55E" stroke-width="1" points="10,10 4,10 "/>
<polyline fill="none" opacity="1" stroke="#475569" stroke-width="1" points="70,690 70,696 "/>
<polyline fill="none" opacity="1" stroke="#475569" stroke-width="1" points="112,690 112,693 "/>
<polyline fill="none" opacity="1" stroke="#475569" stroke-width="1" points="154,690 154,693 "/>
<polyline fill="none" opacity="1" stroke="#475569" stroke-width="1" points="196,690 196,693 "/>
<polyline fill="none" opacity="1" stroke="#475569" stroke-width="1" points="239,690 239,696 "/>
<polyline fill="none" opacity="1" stroke="#475569" stroke-width="1" points="281,690 281,693 "/>
<polyline fill="none" opacity="1" stroke="#475569" stroke-width="1" points="323,690 323,693 "/>
<polyline fill="none" opacity="1" stroke="#475569" stroke-width="1" points="365,690 365,693 "/>
<polyline fill="none" opacity="1" stroke="#475569" stroke-width="1" points="407,690 407,696 "/>
<polyline fill="none" opacity="1" stroke="#475569" stroke-width="1" points="449,690 449,693 "/>
<polyline fill="none" opacity="1" stroke="#475569" stroke-width="1" points="491,690 491,693 "/>
<polyline fill="none" opacity="1" stroke="#475569" stroke-width="1" points="534,690 534,693 "/>
<polyline fill="none" opacity="1" stroke="#475569" stroke-width="1" points="576,690 576,696 "/>
<polyline fill="none" opacity="1" stroke="#475569" stroke-width="1" points="618,690 618,693 "/>
<polyline fill="none" opacity="1" stroke="#475569" stroke-width="1" points="660,690 660,693 "/>
<polyline fill="none" opacity="1" stroke="#475569" stroke-width="1" points="702,690 702,693 "/>
<polyline fill="none" opacity="1" stroke="#475569" stroke-width="1" points="744,690 744,696 "/>
<polyline fill="none" opacity="1" stroke="#475569" stroke-width="1" points="786,690 786,693 "/>
<polyline fill="none" opacity="1" stroke="#475569" stroke-width="1" points="829,690 829,693 "/>
<polyline fill="none" opacity="1" stroke="#475569" stroke-width="1" points="871,690 871,693 "/>
<polyline fill="none" opacity="1" stroke="#475569" stroke-width="1" points="913,690 913,696 "/>
<polyline fill="none" opacity="1" stroke="#475569" stroke-width="1" points="955,690 955,693 "/>
<polyline fill="none" opacity="1" stroke="#475569" stroke-width="1" points="997,690 997,693 "/>
<polyline fill="none" opacity="1" stroke="#475569" stroke-width="1" points="1039,690 1039,693 "/>
<polyline fill="none" opacity="1" stroke="#475569" stroke-width="1" points="1081,690 1081,696 "/>
<polyline fill="none" opacity="1" stroke="#475569" stroke-width="1" points="1124,690 1124,693 "/>
<polyline fill="none" opacity="1" stroke="#475569" stroke-width="1" points="1166,690 1166,693 "/>
<polyline fill="none" opacity="1" stroke="#475569" stroke-width="1" points="1208,690 1208,693 "/>
<polyline fill="none" opacity="1" stroke="#475569" stroke-width="1" points="1250,690 1250,696 "/>
<polyline fill="none" opacity="1" stroke="#475569" stroke-width="1" points="1292,690 1292,693 "/>
</svg>
