<svg width="1400" height="700" viewBox="0 0 1400 700" xmlns="http://www.w3.org/2000/svg">
<rect x="0" y="0" width="1400" height="700" opacity="1" fill="#FFFFFF" stroke="none"/>
<polyline fill="none" opacity="0.4" stroke="#C8C8C8" stroke-width="0.5" stroke-dasharray="4,4" points="70,689 70,10 "/>
<polyline fill="none" opacity="0.4" stroke="#C8C8C8" stroke-width="0.5" stroke-dasharray="4,4" points="238,689 238,10 "/>
<polyline fill="none" opacity="0.4" stroke="#C8C8C8" stroke-width="0.5" stroke-dasharray="4,4" points="406,689 406,10 "/>
<polyline fill="none" opacity="0.4" stroke="#C8C8C8" stroke-width="0.5" stroke-dasharray="4,4" points="575,689 575,10 "/>
<polyline fill="none" opacity="0.4" stroke="#C8C8C8" stroke-width="0.5" stroke-dasharray="4,4" points="743,689 743,10 "/>
<polyline fill="none" opacity="0.4" stroke="#C8C8C8" stroke-width="0.5" stroke-dasharray="4,4" points="912,689 912,10 "/>
<polyline fill="none" opacity="0.4" stroke="#C8C8C8" stroke-width="0.5" stroke-dasharray="4,4" points="1080,689 1080,10 "/>
<polyline fill="none" opacity="0.4" stroke="#C8C8C8" stroke-width="0.5" stroke-dasharray="4,4" points="1248,689 1248,10 "/>
<polyline fill="none" opacity="0.4" stroke="#C8C8C8" stroke-width="0.5" stroke-dasharray="4,4" points="70,689 1329,689 "/>
<polyline fill="none" opacity="0.4" stroke="#C8C8C8" stroke-width="0.5" stroke-dasharray="4,4" points="70,647 1329,647 "/>
<polyline fill="none" opacity="0.4" stroke="#C8C8C8" stroke-width="0.5" stroke-dasharray="4,4" points="70,605 1329,605 "/>
<polyline fill="none" opacity="0.4" stroke="#C8C8C8" stroke-width="0.5" stroke-dasharray="4,4" points="70,562 1329,562 "/>
<polyline fill="none" opacity="0.4" stroke="#C8C8C8" stroke-width="0.5" stroke-dasharray="4,4" points="70,520 1329,520 "/>
<polyline fill="none" opacity="0.4" stroke="#C8C8C8" stroke-width="0.5" stroke-dasharray="4,4" points="70,477 1329,477 "/>
<polyline fill="none" opacity="0.4" stroke="#C8C8C8" stroke-width="0.5" stroke-dasharray="4,4" points="70,435 1329,435 "/>
<polyline fill="none" opacity="0.4" stroke="#C8C8C8" stroke-width="0.5" stroke-dasharray="4,4" points="70,392 1329,392 "/>
<polyline fill="none" opacity="0.4" stroke="#C8C8C8" stroke-width="0.5" stroke-dasharray="4,4" points="70,350 1329,350 "/>
<polyline fill="none" opacity="0.4" stroke="#C8C8C8" stroke-width="0.5" stroke-dasharray="4,4" points="70,308 1329,308 "/>
<polyline fill="none" opacity="0.4" stroke="#C8C8C8" stroke-width="0.5" stroke-dasharray="4,4" points="70,265 1329,265 "/>
<polyline fill="none" opacity="0.4" stroke="#C8C8C8" stroke-width="0.5" stroke-dasharray="4,4" points="70,223 1329,223 "/>
<polyline fill="none" opacity="0.4" stroke="#C8C8C8" stroke-width="0.5" stroke-dasharray="4,4" points="70,180 1329,180 "/>
<polyline fill="none" opacity="0.4" stroke="#C8C8C8" stroke-width="0.5" stroke-dasharray="4,4" points="70,138 1329,138 "/>
<polyline fill="none" opacity="0.4" stroke="#C8C8C8" stroke-width="0.5" stroke-dasharray="4,4" points="70,95 1329,95 "/>
<polyline fill="none" opacity="0.4" stroke="#C8C8C8" stroke-width="0.5" stroke-dasharray="4,4" points="70,53 1329,53 "/>
<polyline fill="none" opacity="0.4" stroke="#C8C8C8" stroke-width="0.5" stroke-dasharray="4,4" points="70,10 1329,10 "/>
<polyline fill="none" opacity="1" stroke="#475569" stroke-width="1" points="70,689 1329,689 "/>
<polyline fill="none" opacity="1" stroke="#3B82F6" stroke-width="1" points="70,689 70,10 "/>
<polyline fill="none" opacity="1" stroke="#F97316" stroke-width="1" points="1329,689 1329,10 "/>
<polyline fill="none" opacity="1" stroke="#3B82F6" stroke-width="2" points="70,42 74,53 78,63 82,73 86,83 91,93 95,103 99,112 103,122 107,131 112,140 116,149 120,158 124,166 128,175 133,183 137,191 141,199 145,207 150,215 154,223 158,230 162,238 166,245 171,252 175,259 179,266 183,273 187,280 192,286 196,293 200,299 204,305 208,312 213,318 217,324 221,330 225,335 230,341 234,347 238,352 242,357 246,363 251,368 255,373 259,378 263,383 267,388 272,393 276,398 280,402 284,407 288,411 293,416 297,420 301,424 305,429 310,433 314,437 318,441 322,445 326,449 331,452 335,456 339,460 343,463 347,467 352,470 356,474 360,477 364,481 368,484 373,487 377,490 381,493 385,497 390,500 394,502 398,505 402,508 406,511 411,514 415,517 419,519 423,522 427,525 432,527 436,530 440,532 444,534 448,537 453,539 457,542 461,544 465,546 470,548 474,550 478,552 482,555 486,557 491,559 495,561 499,563 503,565 507,566 512,568 516,570 520,572 524,574 528,575 533,577 537,579 541,580 545,582 550,584 554,585 558,587 562,588 566,590 571,591 575,593 579,594 583,596 587,597 592,598 596,600 600,601 604,602 608,603 613,605 617,606 621,607 625,608 630,610 634,611 638,612 642,613 646,614 651,615 655,616 659,617 663,618 667,619 672,620 676,621 680,622 684,623 688,624 693,625 697,626 701,627 705,628 710,628 714,629 718,630 722,631 726,632 731,632 735,633 739,634 743,635 747,635 752,636 756,637 760,638 764,638 768,639 773,640 777,640 781,641 785,641 790,642 794,643 798,643 802,644 806,644 811,645 815,646 819,646 823,647 827,647 832,648 836,648 840,649 844,649 848,650 853,650 857,651 861,651 865,652 870,652 874,653 878,653 882,653 886,654 891,654 895,655 899,655 903,655 907,656 912,656 916,657 920,657 924,657 928,658 933,658 937,658 941,659 945,659 950,659 954,660 958,660 962,660 966,661 971,661 975,661 979,661 983,662 987,662 992,662 996,663 1000,663 1004,663 1008,663 1013,664 1017,664 1021,664 1025,664 1030,665 1034,665 1038,665 1042,665 1046,666 1051,666 1055,666 1059,666 1063,666 1067,667 1072,667 1076,667 1080,667 1084,667 1088,668 1093,668 1097,668 1101,668 1105,668 1110,669 1114,669 1118,669 1122,669 1126,669 1131,669 1135,670 1139,670 1143,670 1147,670 1152,670 1156,670 1160,670 1164,671 1168,671 1173,671 1177,671 1181,671 1185,671 1190,671 1194,671 1198,672 1202,672 1206,672 1211,672 1215,672 1219,672 1223,672 1227,672 1232,672 1236,673 1240,673 1244,673 1248,673 1253,673 1257,673 1261,673 1265,673 1270,673 1274,673 1278,674 1282,674 1286,674 1291,674 1295,674 1299,674 1303,674 1307,674 1312,674 1316,674 1320,674 1324,674 1329,675 "/>
<polyline fill="none" opacity="1" stroke="#DC2626" stroke-width="2" points="70,115 74,115 78,114 82,114 86,113 91,113 95,112 99,112 103,111 107,111 112,110 116,110 120,109 124,109 128,108 133,108 137,108 141,107 145,107 150,107 154,106 158,106 162,106 166,106 171,105 175,105 179,105 183,105 187,105 192,105 196,105 200,105 204,105 209,105 213,105 217,105 221,105 225,105 230,105 234,105 238,106 242,106 246,106 251,106 255,107 259,107 263,107 268,108 272,108 276,108 280,109 284,109 289,110 293,110 297,111 301,111 305,112 310,112 314,113 318,113 322,114 327,114 331,115 335,115 339,116 343,116 348,117 352,117 356,118 360,118 364,119 369,119 373,120 377,120 381,121 386,121 390,122 394,122 398,122 402,123 407,123 411,123 415,124 419,124 423,124 428,124 432,125 436,125 440,125 445,125 449,125 453,125 457,126 461,126 466,126 470,126 474,126 478,125 482,125 487,125 491,125 495,125 499,125 504,125 508,124 512,124 516,124 520,124 525,123 529,123 533,122 537,122 541,122 546,121 550,121 554,120 558,120 563,120 567,119 571,119 575,118 579,118 584,117 588,117 592,116 596,115 600,115 605,114 609,114 613,113 617,113 622,112 626,112 630,111 634,111 638,110 643,110 647,109 651,109 655,109 659,108 664,108 668,107 672,107 676,107 681,107 685,106 689,106 693,106 697,105 702,105 706,105 710,105 714,105 718,105 723,105 727,105 731,105 735,105 740,105 744,105 748,105 752,105 756,105 761,105 765,105 769,106 773,106 777,106 782,106 786,107 790,107 794,107 799,108 803,108 807,109 811,109 815,109 820,110 824,110 828,111 832,111 836,112 841,112 845,113 849,113 853,114 858,114 862,115 866,115 870,116 874,116 879,117 883,117 887,118 891,118 895,119 900,119 904,120 908,120 912,121 917,121 921,122 925,122 929,122 933,123 938,123 942,123 946,124 950,124 954,124 959,125 963,125 967,125 971,125 976,125 980,125 984,125 988,126 992,126 997,126 1001,126 1005,126 1009,125 1013,125 1018,125 1022,125 1026,125 1030,125 1035,125 1039,124 1043,124 1047,124 1051,123 1056,123 1060,123 1064,122 1068,122 1072,122 1077,121 1081,121 1085,120 1089,120 1094,119 1098,119 1102,118 1106,118 1110,117 1115,117 1119,116 1123,116 1127,115 1131,115 1136,114 1140,114 1144,113 1148,113 1153,112 1157,112 1161,111 1165,111 1169,110 1174,110 1178,109 1182,109 1186,109 1190,108 1195,108 1199,107 1203,107 1207,107 1212,106 1216,106 1220,106 1224,106 1228,105 1233,105 1237,105 1241,105 1245,105 1249,105 1254,105 1258,105 1262,105 1266,105 1271,105 1275,105 1279,105 1283,105 1287,105 1292,105 1296,106 1300,106 1304,106 1308,106 1313,107 1317,107 1321,107 1325,108 1330,108 "/>
<polyline fill="none" opacity="1" stroke="#A855F7" stroke-width="2" points="70,667 74,667 78,667 82,667 86,667 91,667 95,667 99,667 103,667 107,667 112,667 116,667 120,667 124,667 128,667 133,667 137,667 141,667 145,667 150,667 154,667 158,667 162,667 166,667 171,667 175,667 179,667 183,667 187,667 192,667 196,668 200,668 204,668 208,668 213,668 217,668 221,668 225,668 230,668 234,668 238,668 242,668 246,668 251,668 255,668 259,668 263,668 267,668 272,668 276,668 280,668 284,668 288,668 293,668 297,668 301,668 305,668 310,668 314,668 318,668 322,668 326,668 331,668 335,668 339,668 343,668 347,668 352,668 356,668 360,668 364,668 368,668 373,669 377,669 381,669 385,669 390,669 394,669 398,669 402,669 406,669 411,669 415,669 419,669 423,669 427,669 432,669 436,669 440,669 444,669 448,669 453,669 457,669 461,669 465,669 470,669 474,669 478,669 482,669 486,669 491,669 495,669 499,669 503,669 507,669 512,669 516,669 520,669 524,669 528,669 533,669 537,669 541,669 545,669 550,669 554,669 558,669 562,669 566,669 571,669 575,669 579,669 583,669 587,669 592,669 596,669 600,669 604,669 608,669 613,669 617,669 621,669 625,669 630,669 634,669 638,669 642,669 646,669 651,669 655,669 659,669 663,669 667,669 672,669 676,669 680,669 684,669 688,669 693,669 697,669 701,669 705,669 710,669 714,669 718,669 722,669 726,669 731,669 735,669 739,669 743,669 747,669 752,669 756,669 760,669 764,669 768,669 773,669 777,669 781,669 785,669 790,669 794,669 798,669 802,669 806,669 811,669 815,669 819,669 823,669 827,669 832,668 836,668 840,668 844,668 848,668 853,668 857,668 861,668 865,668 870,668 874,668 878,668 882,668 886,668 891,668 895,668 899,668 903,668 907,668 912,668 916,668 920,668 924,668 928,668 933,668 937,668 941,668 945,668 950,668 954,668 958,668 962,668 966,668 971,668 975,668 979,668 983,668 987,668 992,668 996,668 1000,668 1004,667 1008,667 1013,667 1017,667 1021,667 1025,667 1030,667 1034,667 1038,667 1042,667 1046,667 1051,667 1055,667 1059,667 1063,667 1067,667 1072,667 1076,667 1080,667 1084,667 1088,667 1093,667 1097,667 1101,667 1105,667 1110,667 1114,667 1118,667 1122,667 1126,667 1131,667 1135,667 1139,667 1143,667 1147,667 1152,667 1156,667 1160,667 1164,667 1168,667 1173,667 1177,667 1181,667 1185,667 1190,667 1194,667 1198,667 1202,667 1206,667 1211,667 1215,667 1219,667 1223,667 1227,667 1232,667 1236,667 1240,667 1244,667 1248,667 1253,667 1257,668 1261,668 1265,668 1270,668 1274,668 1278,668 1282,668 1286,668 1291,668 1295,668 1299,668 1303,668 1307,668 1312,668 1316,668 1320,668 1324,668 1329,668 "/>
<polyline fill="none" opacity="1" stroke="#22C55E" stroke-width="2" points="70,534 74,523 78,513 82,503 86,493 91,483 95,475 99,466 103,459 107,452 112,446 116,440 120,436 124,433 128,430 133,429 137,429 141,430 145,432 150,435 154,438 158,443 162,449 166,456 171,463 175,471 179,480 183,489 187,499 192,509 196,519 200,529 204,540 209,550 213,560 217,570 221,580 225,589 230,598 234,606 238,613 242,619 246,625 251,629 255,633 259,636 263,638 268,638 272,638 276,636 280,634 284,630 289,626 293,621 297,614 301,607 305,600 310,591 314,582 318,573 322,563 327,553 331,542 335,532 339,521 343,511 348,501 352,491 356,482 360,473 364,465 369,457 373,451 377,445 381,440 386,435 390,432 394,430 398,429 402,429 407,430 411,432 415,435 419,439 423,444 428,450 432,457 436,464 440,472 445,481 449,490 453,500 457,510 461,521 466,531 470,541 474,552 478,562 482,572 487,581 491,590 495,599 499,607 504,614 508,620 512,626 516,630 520,634 525,636 529,638 533,638 537,638 541,636 546,633 550,630 554,625 558,620 563,613 567,606 571,598 575,590 579,581 584,571 588,561 592,551 596,541 600,530 605,520 609,509 613,499 617,490 622,480 626,472 630,464 634,456 638,449 643,444 647,439 651,435 655,432 659,430 664,429 668,429 672,430 676,433 681,436 685,440 689,445 693,451 697,458 702,466 706,474 710,483 714,492 718,502 723,512 727,522 731,533 735,543 740,554 744,564 748,574 752,583 756,592 761,600 765,608 769,615 773,621 777,626 782,631 786,634 790,637 794,638 799,638 803,637 807,636 811,633 815,629 820,624 824,619 828,612 832,605 836,597 841,588 845,579 849,569 853,559 858,549 862,539 866,528 870,518 874,508 879,498 883,488 887,479 891,470 895,462 900,455 904,448 908,443 912,438 917,434 921,431 925,430 929,429 933,429 938,431 942,433 946,436 950,441 954,446 959,452 963,459 967,467 971,475 976,484 980,494 984,504 988,514 992,524 997,535 1001,545 1005,555 1009,565 1013,575 1018,585 1022,593 1026,602 1030,609 1035,616 1039,622 1043,627 1047,631 1051,635 1056,637 1060,638 1064,638 1068,637 1072,635 1077,632 1081,628 1085,623 1089,618 1094,611 1098,604 1102,595 1106,587 1110,577 1115,568 1119,558 1123,547 1127,537 1131,527 1136,516 1140,506 1144,496 1148,486 1153,477 1157,469 1161,461 1165,454 1169,447 1174,442 1178,437 1182,434 1186,431 1190,430 1195,429 1199,429 1203,431 1207,434 1212,437 1216,442 1220,447 1224,453 1228,460 1233,468 1237,477 1241,486 1245,495 1249,505 1254,515 1258,526 1262,536 1266,547 1271,557 1275,567 1279,577 1283,586 1287,595 1292,603 1296,610 1300,617 1304,623 1308,628 1313,632 1317,635 1321,637 1325,638 1330,638 "/>
<polyline fill="none" opacity="1" stroke="#EA580C" stroke-width="2" stroke-dasharray="8,4" points="70,31 74,31 78,31 82,31 86,31 91,31 95,31 99,31 103,31 107,31 112,31 116,31 120,31 124,31 128,31 133,31 137,31 141,31 145,31 150,31 154,31 158,31 162,31 166,31 171,31 175,31 179,31 183,31 187,31 192,31 196,31 200,31 204,31 209,31 213,31 217,31 221,31 225,31 230,31 234,31 238,31 242,31 246,31 251,31 255,31 259,31 263,31 268,31 272,31 276,31 280,31 284,31 289,31 293,31 297,31 301,31 305,31 310,31 314,31 318,31 322,31 327,31 331,31 335,31 339,31 343,31 348,31 352,31 356,31 360,31 364,31 369,31 373,31 377,31 381,31 386,31 390,31 394,31 398,31 402,31 407,31 411,31 415,31 419,31 423,31 428,31 432,31 436,31 440,31 445,31 449,31 453,31 457,31 461,31 466,31 470,31 474,31 478,31 482,31 487,31 491,31 495,31 499,31 504,31 508,31 512,31 516,31 520,31 525,31 529,31 533,31 537,31 541,31 546,31 550,31 554,31 558,31 563,31 567,31 571,31 575,31 579,31 584,31 588,31 592,31 596,31 600,31 605,31 609,31 613,31 617,31 622,31 626,31 630,31 634,31 638,31 643,31 647,31 651,31 655,31 659,31 664,31 668,31 672,31 676,31 681,31 685,31 689,31 693,31 697,31 702,31 706,31 710,31 714,31 718,31 723,31 727,31 731,31 735,31 740,31 744,31 748,31 752,31 756,31 761,31 765,31 769,31 773,31 777,31 782,31 786,31 790,31 794,31 799,31 803,31 807,31 811,31 815,31 820,31 824,31 828,31 832,31 836,31 841,31 845,31 849,31 853,31 858,31 862,31 866,31 870,31 874,31 879,31 883,31 887,31 891,31 895,31 900,31 904,31 908,31 912,31 917,31 921,31 925,31 929,31 933,31 938,31 942,31 946,31 950,31 954,31 959,31 963,31 967,31 971,31 976,31 980,31 984,31 988,31 992,31 997,31 1001,31 1005,31 1009,31 1013,31 1018,31 1022,31 1026,31 1030,31 1035,31 1039,31 1043,31 1047,31 1051,31 1056,31 1060,31 1064,31 1068,31 1072,31 1077,31 1081,31 1085,31 1089,31 1094,31 1098,31 1102,31 1106,31 1110,31 1115,31 1119,31 1123,31 1127,31 1131,31 1136,31 1140,31 1144,31 1148,31 1153,31 1157,31 1161,31 1165,31 1169,31 1174,31 1178,31 1182,31 1186,31 1190,31 1195,31 1199,31 1203,31 1207,31 1212,31 1216,31 1220,31 1224,31 1228,31 1233,31 1237,31 1241,31 1245,31 1249,31 1254,31 1258,31 1262,31 1266,31 1271,31 1275,31 1279,31 1283,31 1287,31 1292,31 1296,31 1300,31 1304,31 1308,31 1313,31 1317,31 1321,31 1325,31 1330,31 "/>
<polyline fill="none" opacity="1" stroke="#475569" stroke-width="1" points="70,690 70,696 "/>
<polyline fill="none" opacity="1" stroke="#475569" stroke-width="1" points="112,690 112,693 "/>
<polyline fill="none" opacity="1" stroke="#475569" stroke-width="1" points="154,690 154,693 "/>
<polyline fill="none" opacity="1" stroke="#475569" stroke-width="1" points="196,690 196,693 "/>
<polyline fill="none" opacity="1" stroke="#475569" stroke-width="1" points="238,690 238,696 "/>
<polyline fill="none" opacity="1" stroke="#475569" stroke-width="1" points="280,690 280,693 "/>
<polyline fill="none" opacity="1" stroke="#475569" stroke-width="1" points="322,690 322,693 "/>
<polyline fill="none" opacity="1" stroke="#475569" stroke-width="1" points="364,690 364,693 "/>
<polyline fill="none" opacity="1" stroke="#475569" stroke-width="1" points="407,690 407,696 "/>
<polyline fill="none" opacity="1" stroke="#475569" stroke-width="1" points="449,690 449,693 "/>
<polyline fill="none" opacity="1" stroke="#475569" stroke-width="1" points="491,690 491,693 "/>
<polyline fill="none" opacity="1" stroke="#475569" stroke-width="1" points="533,690 533,693 "/>
<polyline fill="none" opacity="1" stroke="#475569" stroke-width="1" points="575,690 575,696 "/>
<polyline fill="none" opacity="1" stroke="#475569" stroke-width="1" points="617,690 617,693 "/>
<polyline fill="none" opacity="1" stroke="#475569" stroke-width="1" points="659,690 659,693 "/>
<polyline fill="none" opacity="1" stroke="#475569" stroke-width="1" points="702,690 702,693 "/>
<polyline fill="none" opacity="1" stroke="#475569" stroke-width="1" points="744,690 744,696 "/>
<polyline fill="none" opacity="1" stroke="#475569" stroke-width="1" points="786,690 786,693 "/>
<polyline fill="none" opacity="1" stroke="#475569" stroke-width="1" points="828,690 828,693 "/>
<polyline fill="none" opacity="1" stroke="#475569" stroke-width="1" points="870,690 870,693 "/>
<polyline fill="none" opacity="1" stroke="#475569" stroke-width="1" points="912,690 912,696 "/>
<polyline fill="none" opacity="1" stroke="#475569" stroke-width="1" points="954,690 954,693 "/>
<polyline fill="none" opacity="1" stroke="#475569" stroke-width="1" points="997,690 997,693 "/>
<polyline fill="none" opacity="1" stroke="#475569" stroke-width="1" points="1039,690 1039,693 "/>
<polyline fill="none" opacity="1" stroke="#475569" stroke-width="1" points="1081,690 1081,696 "/>
<polyline fill="none" opacity="1" stroke="#475569" stroke-width="1" points="1123,690 1123,693 "/>
<polyline fill="none" opacity="1" stroke="#475569" stroke-width="1" points="1165,690 1165,693 "/>
<polyline fill="none" opacity="1" stroke="#475569" stroke-width="1" points="1207,690 1207,693 "/>
<polyline fill="none" opacity="1" stroke="#475569" stroke-width="1" points="1249,690 1249,696 "/>
<polyline fill="none" opacity="1" stroke="#475569" stroke-width="1" points="1292,690 1292,693 "/>
<polyline fill="none" opacity="1" stroke="#3B82F6" stroke-width="1" points="70,690 64,690 "/>
<polyline fill="none" opacity="1" stroke="#3B82F6" stroke-width="1" points="70,679 67,679 "/>
<polyline fill="none" opacity="1" stroke="#3B82F6" stroke-width="1" points="70,668 67,668 "/>
<polyline fill="none" opacity="1" stroke="#3B82F6" stroke-width="1" points="70,658 67,658 "/>
<polyline fill="none" opacity="1" stroke="#3B82F6" stroke-width="1" points="70,647 64,647 "/>
<polyline fill="none" opacity="1" stroke="#3B82F6" stroke-width="1" points="70,636 67,636 "/>
<polyline fill="none" opacity="1" stroke="#3B82F6" stroke-width="1" points="70,626 67,626 "/>
<polyline fill="none" opacity="1" stroke="#3B82F6" stroke-width="1" points="70,615 67,615 "/>
<polyline fill="none" opacity="1" stroke="#3B82F6" stroke-width="1" points="70,605 64,605 "/>
<polyline fill="none" opacity="1" stroke="#3B82F6" stroke-width="1" points="70,594 67,594 "/>
<polyline fill="none" opacity="1" stroke="#3B82F6" stroke-width="1" points="70,583 67,583 "/>
<polyline fill="none" opacity="1" stroke="#3B82F6" stroke-width="1" points="70,573 67,573 "/>
<polyline fill="none" opacity="1" stroke="#3B82F6" stroke-width="1" points="70,562 64,562 "/>
<polyline fill="none" opacity="1" stroke="#3B82F6" stroke-width="1" points="70,551 67,551 "/>
<polyline fill="none" opacity="1" stroke="#3B82F6" stroke-width="1" points="70,541 67,541 "/>
<polyline fill="none" opacity="1" stroke="#3B82F6" stroke-width="1" points="70,530 67,530 "/>
<polyline fill="none" opacity="1" stroke="#3B82F6" stroke-width="1" points="70,520 64,520 "/>
<polyline fill="none" opacity="1" stroke="#3B82F6" stroke-width="1" points="70,509 67,509 "/>
<polyline fill="none" opacity="1" stroke="#3B82F6" stroke-width="1" points="70,498 67,498 "/>
<polyline fill="none" opacity="1" stroke="#3B82F6" stroke-width="1" points="70,488 67,488 "/>
<polyline fill="none" opacity="1" stroke="#3B82F6" stroke-width="1" points="70,477 64,477 "/>
<polyline fill="none" opacity="1" stroke="#3B82F6" stroke-width="1" points="70,466 67,466 "/>
<polyline fill="none" opacity="1" stroke="#3B82F6" stroke-width="1" points="70,456 67,456 "/>
<polyline fill="none" opacity="1" stroke="#3B82F6" stroke-width="1" points="70,445 67,445 "/>
<polyline fill="none" opacity="1" stroke="#3B82F6" stroke-width="1" points="70,435 64,435 "/>
<polyline fill="none" opacity="1" stroke="#3B82F6" stroke-width="1" points="70,424 67,424 "/>
<polyline fill="none" opacity="1" stroke="#3B82F6" stroke-width="1" points="70,413 67,413 "/>
<polyline fill="none" opacity="1" stroke="#3B82F6" stroke-width="1" points="70,403 67,403 "/>
<polyline fill="none" opacity="1" stroke="#3B82F6" stroke-width="1" points="70,392 64,392 "/>
<polyline fill="none" opacity="1" stroke="#3B82F6" stroke-width="1" points="70,381 67,381 "/>
<polyline fill="none" opacity="1" stroke="#3B82F6" stroke-width="1" points="70,371 67,371 "/>
<polyline fill="none" opacity="1" stroke="#3B82F6" stroke-width="1" points="70,360 67,360 "/>
<polyline fill="none" opacity="1" stroke="#3B82F6" stroke-width="1" points="70,350 64,350 "/>
<polyline fill="none" opacity="1" stroke="#3B82F6" stroke-width="1" points="70,339 67,339 "/>
<polyline fill="none" opacity="1" stroke="#3B82F6" stroke-width="1" points="70,328 67,328 "/>
<polyline fill="none" opacity="1" stroke="#3B82F6" stroke-width="1" points="70,318 67,318 "/>
<polyline fill="none" opacity="1" stroke="#3B82F6" stroke-width="1" points="70,307 64,307 "/>
<polyline fill="none" opacity="1" stroke="#3B82F6" stroke-width="1" points="70,296 67,296 "/>
<polyline fill="none" opacity="1" stroke="#3B82F6" stroke-width="1" points="70,286 67,286 "/>
<polyline fill="none" opacity="1" stroke="#3B82F6" stroke-width="1" points="70,275 67,275 "/>
<polyline fill="none" opacity="1" stroke="#3B82F6" stroke-width="1" points="70,265 64,265 "/>
<polyline fill="none" opacity="1" stroke="#3B82F6" stroke-width="1" points="70,254 67,254 "/>
<polyline fill="none" opacity="1" stroke="#3B82F6" stroke-width="1" points="70,243 67,243 "/>
<polyline fill="none" opacity="1" stroke="#3B82F6" stroke-width="1" points="70,233 67,233 "/>
<polyline fill="none" opacity="1" stroke="#3B82F6" stroke-width="1" points="70,222 64,222 "/>
<polyline fill="none" opacity="1" stroke="#3B82F6" stroke-width="1" points="70,211 67,211 "/>
<polyline fill="none" opacity="1" stroke="#3B82F6" stroke-width="1" points="70,201 67,201 "/>
<polyline fill="none" opacity="1" stroke="#3B82F6" stroke-width="1" points="70,190 67,190 "/>
<polyline fill="none" opacity="1" stroke="#3B82F6" stroke-width="1" points="70,180 64,180 "/>
<polyline fill="none" opacity="1" stroke="#3B82F6" stroke-width="1" points="70,169 67,169 "/>
<polyline fill="none" opacity="1" stroke="#3B82F6" stroke-width="1" points="70,158 67,158 "/>
<polyline fill="none" opacity="1" stroke="#3B82F6" stroke-width="1" points="70,148 67,148 "/>
<polyline fill="none" opacity="1" stroke="#3B82F6" stroke-width="1" points="70,137 64,137 "/>
<polyline fill="none" opacity="1" stroke="#3B82F6" stroke-width="1" points="70,126 67,126 "/>
<polyline fill="none" opacity="1" stroke="#3B82F6" stroke-width="1" points="70,116 67,116 "/>
<polyline fill="none" opacity="1" stroke="#3B82F6" stroke-width="1" points="70,105 67,105 "/>
<polyline fill="none" opacity="1" stroke="#3B82F6" stroke-width="1" points="70,95 64,95 "/>
<polyline fill="none" opacity="1" stroke="#3B82F6" stroke-width="1" points="70,84 67,84 "/>
<polyline fill="none" opacity="1" stroke="#3B82F6" stroke-width="1" points="70,73 67,73 "/>
<polyline fill="none" opacity="1" stroke="#3B82F6" stroke-width="1" points="70,63 67,63 "/>
<polyline fill="none" opacity="1" stroke="#3B82F6" stroke-width="1" points="70,52 64,52 "/>
<polyline fill="none" opacity="1" stroke="#3B82F6" stroke-width="1" points="70,41 67,41 "/>
<polyline fill="none" opacity="1" stroke="#3B82F6" stroke-width="1" points="70,31 67,31 "/>
<polyline fill="none" opacity="1" stroke="#3B82F6" stroke-width="1" points="70,20 67,20 "/>
<polyline fill="none" opacity="1" stroke="#3B82F6" stroke-width="1" points="70,10 64,10 "/>
<polyline fill="none" opacity="1" stroke="#F97316" stroke-width="1" points="1330,690 1336,690 "/>
<polyline fill="none" opacity="1" stroke="#F97316" stroke-width="1" points="1330,679 1333,679 "/>
<polyline fill="none" opacity="1" stroke="#F97316" stroke-width="1" points="1330,669 1333,669 "/>
<polyline fill="none" opacity="1" stroke="#F97316" stroke-width="1" points="1330,658 1333,658 "/>
<polyline fill="none" opacity="1" stroke="#F97316" stroke-width="1" points="1330,648 1333,648 "/>
<polyline fill="none" opacity="1" stroke="#F97316" stroke-width="1" points="1330,637 1336,637 "/>
<polyline fill="none" opacity="1" stroke="#F97316" stroke-width="1" points="1330,627 1333,627 "/>
<polyline fill="none" opacity="1" stroke="#F97316" stroke-width="1" points="1330,616 1333,616 "/>
<polyline fill="none" opacity="1" stroke="#F97316" stroke-width="1" points="1330,606 1333,606 "/>
<polyline fill="none" opacity="1" stroke="#F97316" stroke-width="1" points="1330,595 1333,595 "/>
<polyline fill="none" opacity="1" stroke="#F97316" stroke-width="1" points="1330,585 1336,585 "/>
<polyline fill="none" opacity="1" stroke="#F97316" stroke-width="1" points="1330,574 1333,574 "/>
<polyline fill="none" opacity="1" stroke="#F97316" stroke-width="1" points="1330,564 1333,564 "/>
<polyline fill="none" opacity="1" stroke="#F97316" stroke-width="1" points="1330,554 1333,554 "/>
<polyline fill="none" opacity="1" stroke="#F97316" stroke-width="1" points="1330,543 1333,543 "/>
<polyline fill="none" opacity="1" stroke="#F97316" stroke-width="1" points="1330,533 1336,533 "/>
<polyline fill="none" opacity="1" stroke="#F97316" stroke-width="1" points="1330,522 1333,522 "/>
<polyline fill="none" opacity="1" stroke="#F97316" stroke-width="1" points="1330,512 1333,512 "/>
<polyline fill="none" opacity="1" stroke="#F97316" stroke-width="1" points="1330,501 1333,501 "/>
<polyline fill="none" opacity="1" stroke="#F97316" stroke-width="1" points="1330,491 1333,491 "/>
<polyline fill="none" opacity="1" stroke="#F97316" stroke-width="1" points="1330,480 1336,480 "/>
<polyline fill="none" opacity="1" stroke="#F97316" stroke-width="1" points="1330,470 1333,470 "/>
<polyline fill="none" opacity="1" stroke="#F97316" stroke-width="1" points="1330,459 1333,459 "/>
<polyline fill="none" opacity="1" stroke="#F97316" stroke-width="1" points="1330,449 1333,449 "/>
<polyline fill="none" opacity="1" stroke="#F97316" stroke-width="1" points="1330,438 1333,438 "/>
<polyline fill="none" opacity="1" stroke="#F97316" stroke-width="1" points="1330,428 1336,428 "/>
<polyline fill="none" opacity="1" stroke="#F97316" stroke-width="1" points="1330,418 1333,418 "/>
<polyline fill="none" opacity="1" stroke="#F97316" stroke-width="1" points="1330,407 1333,407 "/>
<polyline fill="none" opacity="1" stroke="#F97316" stroke-width="1" points="1330,397 1333,397 "/>
<polyline fill="none" opacity="1" stroke="#F97316" stroke-width="1" points="1330,386 1333,386 "/>
<polyline fill="none" opacity="1" stroke="#F97316" stroke-width="1" points="1330,376 1336,376 "/>
<polyline fill="none" opacity="1" stroke="#F97316" stroke-width="1" points="1330,365 1333,365 "/>
<polyline fill="none" opacity="1" stroke="#F97316" stroke-width="1" points="1330,355 1333,355 "/>
<polyline fill="none" opacity="1" stroke="#F97316" stroke-width="1" points="1330,344 1333,344 "/>
<polyline fill="none" opacity="1" stroke="#F97316" stroke-width="1" points="1330,334 1333,334 "/>
<polyline fill="none" opacity="1" stroke="#F97316" stroke-width="1" points="1330,323 1336,323 "/>
<polyline fill="none" opacity="1" stroke="#F97316" stroke-width="1" points="1330,313 1333,313 "/>
<polyline fill="none" opacity="1" stroke="#F97316" stroke-width="1" points="1330,302 1333,302 "/>
<polyline fill="none" opacity="1" stroke="#F97316" stroke-width="1" points="1330,292 1333,292 "/>
<polyline fill="none" opacity="1" stroke="#F97316" stroke-width="1" points="1330,282 1333,282 "/>
<polyline fill="none" opacity="1" stroke="#F97316" stroke-width="1" points="1330,271 1336,271 "/>
<polyline fill="none" opacity="1" stroke="#F97316" stroke-width="1" points="1330,261 1333,261 "/>
<polyline fill="none" opacity="1" stroke="#F97316" stroke-width="1" points="1330,250 1333,250 "/>
<polyline fill="none" opacity="1" stroke="#F97316" stroke-width="1" points="1330,240 1333,240 "/>
<polyline fill="none" opacity="1" stroke="#F97316" stroke-width="1" points="1330,229 1333,229 "/>
<polyline fill="none" opacity="1" stroke="#F97316" stroke-width="1" points="1330,219 1336,219 "/>
<polyline fill="none" opacity="1" stroke="#F97316" stroke-width="1" points="1330,208 1333,208 "/>
<polyline fill="none" opacity="1" stroke="#F97316" stroke-width="1" points="1330,198 1333,198 "/>
<polyline fill="none" opacity="1" stroke="#F97316" stroke-width="1" points="1330,187 1333,187 "/>
<polyline fill="none" opacity="1" stroke="#F97316" stroke-width="1" points="1330,177 1333,177 "/>
<polyline fill="none" opacity="1" stroke="#F97316" stroke-width="1" points="1330,166 1336,166 "/>
<polyline fill="none" opacity="1" stroke="#F97316" stroke-width="1" points="1330,156 1333,156 "/>
<polyline fill="none" opacity="1" stroke="#F97316" stroke-width="1" points="1330,145 1333,145 "/>
<polyline fill="none" opacity="1" stroke="#F97316" stroke-width="1" points="1330,135 1333,135 "/>
<polyline fill="none" opacity="1" stroke="#F97316" stroke-width="1" points="1330,125 1333,125 "/>
<polyline fill="none" opacity="1" stroke="#F97316" stroke-width="1" points="1330,114 1336,114 "/>
<polyline fill="none" opacity="1" stroke="#F97316" stroke-width="1" points="1330,104 1333,104 "/>
<polyline fill="none" opacity="1" stroke="#F97316" stroke-width="1" points="1330,93 1333,93 "/>
<polyline fill="none" opacity="1" stroke="#F97316" stroke-width="1" points="1330,83 1333,83 "/>
<polyline fill="none" opacity="1" stroke="#F97316" stroke-width="1" points="1330,72 1333,72 "/>
<polyline fill="none" opacity="1" stroke="#F97316" stroke-width="1" points="1330,62 1336,62 "/>
<polyline fill="none" opacity="1" stroke="#F97316" stroke-width="1" points="1330,51 1333,51 "/>
<polyline fill="none" opacity="1" stroke="#F97316" stroke-width="1" points="1330,41 1333,41 "/>
<polyline fill="none" opacity="1" stroke="#F97316" stroke-width="1" points="1330,30 1333,30 "/>
<polyline fill="none" opacity="1" stroke="#F97316" stroke-width="1" points="1330,20 1333,20 "/>
<polyline fill="none" opacity="1" stroke="#F97316" stroke-width="1" points="1330,10 1336,10 "/>
</svg>
